<svg width="24" height="32" viewBox="0 0 24 32" fill="none" xmlns="http://www.w3.org/2000/svg">
<path id="Vector" d="M22.0987 0.727539C22.511 0.727594 22.9089 0.880201 23.2169 1.15642C23.525 1.43263 23.7218 1.81324 23.7701 2.22606L23.7818 2.42461V29.5778C23.7814 30.0103 23.6171 30.4264 23.3226 30.7409C23.0281 31.0554 22.6256 31.2447 22.1974 31.2701C21.7691 31.2954 21.3474 31.1549 21.0184 30.8773C20.6895 30.5997 20.4781 30.2059 20.4274 29.7764L20.4156 29.5778V21.0924H18.7325C18.3202 21.0924 17.9223 20.9398 17.6143 20.6636C17.3062 20.3873 17.1094 20.0067 17.0612 19.5939L17.0494 19.3954V9.21291C17.0494 5.46238 19.574 0.727539 22.0987 0.727539ZM12 0.727539C12.4123 0.727594 12.8102 0.880201 13.1182 1.15642C13.4263 1.43263 13.6231 1.81324 13.6714 2.22606L13.6831 2.42461V10.91C13.6829 12.4151 13.1869 13.8775 12.273 15.0674C11.359 16.2574 10.0789 17.1076 8.63379 17.4844V29.5778C8.63331 30.0103 8.46904 30.4264 8.17455 30.7409C7.88006 31.0554 7.47756 31.2447 7.04931 31.2701C6.62105 31.2954 6.19936 31.1549 5.87039 30.8773C5.54142 30.5997 5.33 30.2059 5.27933 29.7764L5.26755 29.5778V17.4844C3.87974 17.1227 2.64258 16.324 1.73598 15.2045C0.829376 14.0849 0.300623 12.703 0.226616 11.2596L0.218201 10.91V2.42461C0.218677 1.99206 0.382942 1.57602 0.677436 1.26149C0.97193 0.946963 1.37442 0.757688 1.80268 0.732338C2.23093 0.706989 2.65263 0.847479 2.9816 1.1251C3.31057 1.40273 3.52198 1.79653 3.57265 2.22606L3.58443 2.42461V10.91C3.58445 11.5058 3.74 12.0911 4.03545 12.607C4.33089 13.123 4.75583 13.5514 5.26755 13.8493V2.42461C5.26803 1.99206 5.43229 1.57602 5.72679 1.26149C6.02128 0.946963 6.42377 0.757688 6.85203 0.732338C7.28028 0.706989 7.70198 0.847479 8.03095 1.1251C8.35992 1.40273 8.57134 1.79653 8.622 2.22606L8.63379 2.42461L8.63547 13.8493C9.10516 13.5756 9.50228 13.1914 9.79299 12.7296C10.0837 12.2677 10.2594 11.7419 10.3051 11.1968L10.3169 10.91V2.42461C10.3169 1.97452 10.4942 1.54286 10.8099 1.2246C11.1255 0.906337 11.5536 0.727539 12 0.727539Z" fill="#182D43"/>
</svg>
