<svg xmlns="http://www.w3.org/2000/svg" width="31" height="25" viewBox="0 0 31 25" fill="none">
  <path d="M9.89362 0.0996094H0V7.93119H7.91489L9.89362 5.97329V0.0996094Z" fill="white"/>
  <path d="M20.4468 0.0996094H10.5532V5.97329L12.5319 7.93119H19.4574L20.4468 6.95224V0.0996094Z" fill="white"/>
  <path d="M31 0.0996094H21.1064V6.95224L22.0957 7.93119H31V0.0996094Z" fill="white"/>
  <path d="M22.0957 8.58382L21.1064 9.56277V14.4575L23.0851 16.4154H31V8.58382H22.0957Z" fill="white"/>
  <path d="M23.0851 17.068L21.1064 19.0259V24.8996H31V17.068H23.0851Z" fill="white"/>
  <path d="M12.5319 8.58382L10.5532 10.5417V15.4365L11.5426 16.4154H18.4681L20.4468 14.4575V9.56277L19.4574 8.58382H12.5319Z" fill="white"/>
  <path d="M7.91489 8.58382H0V16.4154H8.90425L9.89362 15.4365V10.5417L7.91489 8.58382Z" fill="white"/>
  <path d="M8.90425 17.068H0V24.8996H9.89362V18.047L8.90425 17.068Z" fill="white"/>
  <path d="M11.5426 17.068L10.5532 18.047V24.8996H20.4468V19.0259L18.4681 17.068H11.5426Z" fill="white"/>
</svg>