<?xml version="1.0" encoding="utf-8"?>
<!-- Generator: Adobe Illustrator 27.5.0, SVG Export Plug-In . SVG Version: 6.00 Build 0)  -->
<svg version="1.1" xmlns="http://www.w3.org/2000/svg" xmlns:xlink="http://www.w3.org/1999/xlink" x="0px" y="0px"
	 viewBox="0 0 3710 3710" style="enable-background:new 0 0 3710 3710;" xml:space="preserve">
<g id="Background">
	<g>
		<g>
			<rect style="fill:#FFFFFF;" width="3710" height="3710"/>
		</g>
	</g>
</g>
<g id="Illustration">
	<g>
		<path style="fill:#F4F7FA;" d="M1722.82,392.276c-343.705,5.836-875.482,131.451-1028.548,454.261
			c-53.46,112.745-49.84,278.494-42.603,609.991c2.128,97.435,5.655,239.45,30.43,415.658
			c51.466,366.04,86.501,615.226,219.099,760.323c332.25,363.569,1532.418,353.063,2044.924-301.48
			c279.575-357.058,322.584-864.984,66.947-1284.76C2731.617,584.103,2182.959,384.463,1722.82,392.276z"/>
		<g>
			<g>
				<g>
					<g>
						<linearGradient id="SVGID_1_" gradientUnits="userSpaceOnUse" x1="684.3721" y1="1080.6273" x2="1862.1919" y2="1080.6273">
							<stop  offset="0" style="stop-color:#AA80F9"/>
							<stop  offset="0.9964" style="stop-color:#6165D7"/>
						</linearGradient>
						<path style="fill:url(#SVGID_1_);" d="M1407.508,1666.537c6.815,39.389,7.99,72.535,12.856,111.325
							c142.822-89.232,296.863-149.069,441.828-239.274c-187.215-115.76-318.126-140.045-377.74-388.207
							c-27.976-116.458-48.991-354.182-143.764-430.906c-107.974-87.411-173.046-14.776-206.603-127.515
							c-52.449-176.209-219.556-301.651-398.554-118.886c-176.664,180.382,144.595,751.632,350.842,842.889
							C1246.313,1428.784,1371.926,1460.86,1407.508,1666.537z"/>
						<g>
							<defs>
								<path id="SVGID_00000031894297224061980880000014555839916637911194_" d="M1479.229,1131.025
									c-10.349-43.776-48.915-358.485-139.626-416.198c-103.345-65.75-173.02-15.965-205.891-124.878
									c-51.376-170.227-219.298-301.042-398.29-117.293c-176.657,181.352,145.396,752.735,350.256,842.162
									c168.285,127.965,274.519,123.657,326.99,362.947C1449.423,1845.376,1518.141,1295.616,1479.229,1131.025z"/>
							</defs>
							<clipPath id="SVGID_00000024701399347269860430000004270665988427072403_">
								<use xlink:href="#SVGID_00000031894297224061980880000014555839916637911194_"  style="overflow:visible;"/>
							</clipPath>
							<g style="clip-path:url(#SVGID_00000024701399347269860430000004270665988427072403_);">
								<path style="fill:#FCFDFE;" d="M1639.545,1636.55c-40.136-47.433-84.485-92.285-127.373-135.656l-16.238-16.437
									c-34.432-34.902-64.607-66.738-91.229-94.825c-14.974-15.8-29.119-30.725-42.95-45.078
									c-42.267-43.869-71.934-74.496-86.699-89.735c-4.985-5.149-8.273-8.539-9.772-10.096
									c-115.892-120.365-229.112-326.588-289.937-437.376c-6.593-12.009-12.488-22.746-17.602-31.937
									c-87.82-157.793-198.11-311.475-327.802-456.771l2.268-2.028c129.841,145.467,240.26,299.333,328.189,457.322
									c5.12,9.194,11.016,19.935,17.613,31.951c60.758,110.666,173.85,316.659,289.464,436.728
									c1.498,1.557,4.782,4.947,9.764,10.089c14.766,15.242,44.437,45.872,86.704,89.742c13.84,14.368,27.99,29.293,42.969,45.096
									c26.612,28.08,56.776,59.902,91.186,94.786l16.237,16.434c42.929,43.413,87.32,88.303,127.532,135.827L1639.545,1636.55z"/>
								<path style="fill:#FCFDFE;" d="M1423.476,1415.705c-72.793-83.175-124.792-210.208-150.374-367.371
									c-21.309-130.915-23.042-278.573-4.754-405.108l3.01,0.432c-18.247,126.243-16.517,273.563,4.745,404.189
									c25.49,156.601,77.242,283.112,149.661,365.859L1423.476,1415.705z"/>
								<path style="fill:#FCFDFE;" d="M984.958,825.194c-23.659-92.609-35.75-188.761-47.442-281.747
									c-8.003-63.647-16.279-129.465-28.195-193.614l2.989-0.557c11.932,64.24,20.214,130.099,28.223,193.796
									c11.68,92.891,23.758,188.946,47.369,281.37L984.958,825.194z"/>
								<path style="fill:#FCFDFE;" d="M1144.372,1091.051c-103.723-83.22-280.355-147.578-377.976-137.795l-0.303-3.024
									c98.279-9.912,275.943,54.812,380.181,138.45L1144.372,1091.051z"/>
							</g>
						</g>
					</g>
					<g>
						
							<linearGradient id="SVGID_00000131331711598362985090000010938897056546370192_" gradientUnits="userSpaceOnUse" x1="1386.1942" y1="447.5543" x2="2150.8518" y2="1706.3776" gradientTransform="matrix(0.3126 0.9499 0.9499 -0.3126 -189.2741 155.2184)">
							<stop  offset="0.0036" style="stop-color:#E38DDD"/>
							<stop  offset="1" style="stop-color:#9571F6"/>
						</linearGradient>
						<path style="fill:url(#SVGID_00000131331711598362985090000010938897056546370192_);" d="M1105.873,1292.857
							c116.927,168.488,206.372,82.869,325.341-21.447c51.101,184.047,107.634,361.372,165.629,541.13
							c-80.659,68.634-139.711,116.294-237.536,32.85c-110.638-94.374-171.357-152.504-328.154-119.917
							s-311.633-26.266-323.32-185.95c-12.297-168.041-220.667-303.882-144.063-463.124
							C697.247,798.928,984.116,1117.409,1105.873,1292.857z"/>
						<g>
							<defs>
								<path id="SVGID_00000130641705992234591390000011413826331239326860_" d="M1651.128,1750.024
									c-78.296,93.997-166.228,200.662-293.099,93.989c-105.618-88.803-171.742-153.154-327.2-118.851
									s-311.808-27.101-323.061-185.567c-11.841-166.76-220.962-306.034-143.942-463.099
									c134.203-273.677,418.725,33.903,542.863,219.343c124.138,185.44,213.127,41.052,339.125-21.718
									C1617.83,1188.425,1714.388,1674.078,1651.128,1750.024z"/>
							</defs>
							<clipPath id="SVGID_00000018936401239616570850000000821670523004478131_">
								<use xlink:href="#SVGID_00000130641705992234591390000011413826331239326860_"  style="overflow:visible;"/>
							</clipPath>
							<g style="clip-path:url(#SVGID_00000018936401239616570850000000821670523004478131_);">
								<path style="fill:#FCFDFE;" d="M1488.974,1596.356c-172.716-7.881-316.413-19.248-462.112-86.436
									c-139.44-64.299-234.164-157.448-316.732-311.464c-42.8-79.834-82.502-132.211-138.189-203.007l2.39-1.881
									c55.784,70.922,95.562,123.4,138.478,203.453c82.232,153.386,176.535,246.141,315.324,310.141
									c145.2,66.954,288.6,78.294,460.98,86.157L1488.974,1596.356z"/>
								<path style="fill:#FCFDFE;" d="M1406.59,1903.469l-2.923-0.836c15.648-54.697,37.104-102.922,65.597-147.432
									c14.573-22.764,31.585-41.263,52.644-62.038l2.136,2.167c-20.914,20.628-37.797,38.981-52.219,61.508
									C1443.493,1801.098,1422.154,1849.061,1406.59,1903.469z"/>
								<path style="fill:#FCFDFE;" d="M725.152,1672.106l-1.766-2.473c123.334-88.153,263.488-133.273,394.664-127.044
									l-0.143,3.038C987.424,1539.419,847.934,1584.347,725.152,1672.106z"/>
								<path style="fill:#FCFDFE;" d="M815.859,1355.12c-7.712-13.347-39.593-138.739-66.856-251.642
									c-27.375-113.359-55.354-235.752-54.793-244.344l3.034,0.195c-0.479,7.316,24.067,116.523,54.713,243.434
									c27.214,112.697,58.984,237.769,66.534,250.838L815.859,1355.12z"/>
							</g>
						</g>
					</g>
				</g>
			</g>
		</g>
		<g>
			<g>
				
					<linearGradient id="SVGID_00000012458485128655440550000005118980534308491419_" gradientUnits="userSpaceOnUse" x1="-2087.2927" y1="-213.1094" x2="-1637.0905" y2="2664.9773" gradientTransform="matrix(-0.8325 -0.5541 -0.5541 0.8325 1619.2135 530.4697)">
					<stop  offset="0" style="stop-color:#AA80F9"/>
					<stop  offset="0.9964" style="stop-color:#6165D7"/>
				</linearGradient>
				<path style="fill:url(#SVGID_00000012458485128655440550000005118980534308491419_);" d="M2631.292,2723.169
					c-16.426-1.322-50.994-18.679-58.14-26.919c-47.554-54.835-143.258-151.718-142.442-228.444
					c0.139-13.104,57.949-28.052,65.554-40.44c34.545-18.477,47.674-22.744,71.886-56.442
					c71.48-99.487-110.764-271.024,88.125-344.008c145.683-53.46,273.077-8.531,246.084-237.393s134.906-656.092,385.111-507.613
					c143.594,85.213,11.752,287.303,90.304,427.882c74.645,133.587,22.061,249.067-119.378,338.224
					c-141.438,89.157-60.718,148.556-12.183,276.586c58.3,153.792-180.71,193.074-292.602,201.797
					C2863.507,2533.424,2638.811,2612.1,2631.292,2723.169z"/>
				<g>
					<defs>
						<path id="SVGID_00000085940277982749706620000011150518446198594488_" d="M2392.785,2449.821
							c40.141,105.924,76.624,215.363,116.472,322.25c64.601,2.111,140.643,3.021,151.064-76.783
							c14.488-110.952,203.406-162.562,293.472-169.101c111.474-8.094,350.8-47.98,292.429-201.615
							c-48.593-127.9-129.249-187.439,12.184-276.566c141.433-89.127,193.987-204.618,119.368-338.223
							c-78.525-140.598,53.283-342.589-90.304-427.877c-250.193-148.61-412.153,278.995-385.08,507.524
							s-100.708,184.991-246.035,237.23c-198.403,71.318-17.967,248.95-87.717,342.149
							C2513.957,2441.872,2467.566,2431.249,2392.785,2449.821z"/>
					</defs>
					<clipPath id="SVGID_00000067216388223129734600000008213178858589818531_">
						<use xlink:href="#SVGID_00000085940277982749706620000011150518446198594488_"  style="overflow:visible;"/>
					</clipPath>
					<g style="clip-path:url(#SVGID_00000067216388223129734600000008213178858589818531_);">
						<path style="fill:#FCFDFE;" d="M2504.305,2588.551l-1.714-3.129c237.78-130.42,429.192-330.156,553.543-577.624
							c118.322-235.463,174.761-509.507,163.217-792.497l3.564-0.146c11.57,283.597-45,558.243-163.594,794.246
							C2934.644,2257.517,2742.722,2457.782,2504.305,2588.551z"/>
						<path style="fill:#FCFDFE;" d="M2755.258,2408.192l-1.188-3.365c146.375-51.771,381.729-61.86,524.646-22.492l-0.948,3.442
							C3135.447,2346.569,2901.049,2356.62,2755.258,2408.192z"/>
						<path style="fill:#FCFDFE;" d="M2596.627,2536.526l-2.515-2.53c57-56.669,83.161-139.979,77.756-247.615
							c-3.963-78.924-24.492-168.851-61.017-267.285l3.344-1.24c36.651,98.776,57.255,189.058,61.237,268.344
							C2680.888,2394.891,2654.374,2479.111,2596.627,2536.526z"/>
						<path style="fill:#FCFDFE;" d="M3074.846,1975.255l-2.641-2.397c101.967-112.366,257.354-148.606,369.752-159.221l0.334,3.554
							C3330.523,1827.743,3176.047,1863.735,3074.846,1975.255z"/>
						<path style="fill:#FCFDFE;" d="M3187.065,1646.542l-3.567-0.084c1.771-73.343-17.202-221.221-164.167-387.595l2.672-2.362
							C3169.776,1423.788,3188.848,1572.679,3187.065,1646.542z"/>
					</g>
				</g>
			</g>
		</g>
		<g>
			<g>
				<defs>
					<path id="SVGID_00000082359291820670873720000007311350479465325743_" d="M2926.088,2294.827
						c-78.51,2.196-157.253,2.618-236.163,1.263c-1.044,1.341-55.366-160.606,8.321-261.735
						c126.555-196.472-5.354-329.66-51.172-414.264c-70.324-118.297-72.769-276.671,71.896-272.35
						c140.365,0.948,111.789-282.659,50.41-494.227c-38.483-101.459,38.182-246.241,131.911-292.722
						c95.239-49.984,207.539-1.668,275.174,202.161c89.297,234.072-61.841,411.252-105.967,544.23
						c-43.466,130.567,123.356,200.709,21.298,327.564c-84.964,111.711-200.98,201.672-133.476,311.377
						C3026.871,2054.267,3032.116,2151.609,2926.088,2294.827z"/>
				</defs>
				<clipPath id="SVGID_00000075161567118548907420000014149221566439648154_">
					<use xlink:href="#SVGID_00000082359291820670873720000007311350479465325743_"  style="overflow:visible;"/>
				</clipPath>
				
					<linearGradient id="SVGID_00000183230396951416060240000013596092878813827218_" gradientUnits="userSpaceOnUse" x1="2600.7439" y1="1419.7219" x2="3204.1902" y2="1419.7219">
					<stop  offset="0" style="stop-color:#AA80F9"/>
					<stop  offset="0.9964" style="stop-color:#6165D7"/>
				</linearGradient>
				
					<path style="clip-path:url(#SVGID_00000075161567118548907420000014149221566439648154_);fill:url(#SVGID_00000183230396951416060240000013596092878813827218_);" d="
					M2926.088,2294.827c-78.51,2.196-157.253,2.618-236.163,1.263c-1.044,1.341-55.366-160.606,8.321-261.735
					c126.555-196.472-5.354-329.66-51.172-414.264c-69.825-118.288-68.909-259.828,59.636-284.51
					c142.08-30.173,126.413-271.363,62.67-482.067c-38.483-101.459,38.182-246.241,131.911-292.722
					c95.239-49.984,207.539-1.668,275.174,202.161c89.297,234.072-61.841,411.252-105.967,544.23
					c-43.466,130.567,123.356,200.709,21.298,327.564c-84.964,111.711-200.98,201.672-133.476,311.377
					C3026.871,2054.267,3032.116,2151.609,2926.088,2294.827z"/>
				<g style="clip-path:url(#SVGID_00000075161567118548907420000014149221566439648154_);">
					<path style="fill:#FCFDFE;" d="M2822.159,2323.227c-0.282-1.474,11.34-364.336,77.595-727.157
						c7.719-58.206,16.864-117.153,25.708-174.164c23.68-152.647,48.167-310.492,46.162-463.011
						c-2.24-170.464-38.055-318.056-109.492-451.204l3.143-1.686c71.714,133.663,107.67,281.792,109.917,452.845
						c2.009,152.814-22.501,310.809-46.203,463.603c-8.841,56.99-17.982,115.92-25.711,174.171
						c-66.278,362.96-77.761,723.945-77.595,726.052L2822.159,2323.227z"/>
					<path style="fill:#FCFDFE;" d="M2968.42,1127.576l-3.024-1.888c68.65-109.778,147.914-262.578,190.496-344.666
						c34.315-66.149,34.576-66.156,36.6-66.194l0.07,3.568l-0.035-1.784l1.022,1.418c-2.022,2.045-16.35,29.666-34.491,64.633
						C3116.455,864.799,3037.147,1017.68,2968.42,1127.576z"/>
					<path style="fill:#FCFDFE;" d="M2970.99,992.986c-36.691-105.388-93.884-168.931-135.402-203.676
						c-45.374-37.974-84.004-51.799-88.047-51.799c-0.019,0-0.037,0-0.054,0l-0.047-1.324l-1.59-1.662
						c0.829-0.787,2.061-0.683,4.048-0.206c31.082,7.48,160.266,73.106,224.461,257.495L2970.99,992.986z"/>
					<path style="fill:#FCFDFE;" d="M2863.814,1831.753c-5.729-103.158-48.381-207.71-126.771-310.754
						c-40.887-53.746-89.956-104.81-145.843-151.78c-4.059-3.411-5.487-4.62-5.985-5.208l2.729-2.299
						c0.364,0.418,2.768,2.439,5.55,4.776c56.091,47.137,105.341,98.396,146.388,152.351
						c78.828,103.622,121.724,208.836,127.491,312.719L2863.814,1831.753z"/>
					<path style="fill:#FCFDFE;" d="M2883.145,1719.16l-3.313-1.324c65.656-164.242,256.962-208.588,259.309-208.588
						c0.004,0,0.007,0,0.007,0l1.601,1.418l-0.901,1.937l-0.845-1.55l0.162,1.745c-0.396,0.056-48.531,10.671-105.458,42.869
						C2983.479,1584.079,2916.585,1635.505,2883.145,1719.16z M3138.14,1509.468l0.852,1.564L3138.14,1509.468z"/>
					<path style="fill:#FCFDFE;" d="M2824.889,2263.82c-6.113-44.256-35.013-116.457-137.982-209.093
						c-5.658-5.09-5.658-5.09-5.689-6.073l1.784-0.056l1.482-0.962c0.329,0.408,2.406,2.275,4.81,4.435
						c103.77,93.362,132.935,166.416,139.128,211.26L2824.889,2263.82z"/>
					<path style="fill:#FCFDFE;" d="M2833.287,2177.067l-3.547-0.383c3.822-35.212,30.491-107.569,166.163-196.565
						c1.873-1.226,3.078-2.014,3.5-2.334l2.156,2.843c-0.446,0.338-1.719,1.178-3.7,2.477
						C2863.414,2071.292,2837.041,2142.482,2833.287,2177.067z"/>
				</g>
			</g>
		</g>
		<g>
			
				<linearGradient id="SVGID_00000159452194550485526980000006614760152744927408_" gradientUnits="userSpaceOnUse" x1="895.7547" y1="1891.1536" x2="2877.6411" y2="1891.1536">
				<stop  offset="0" style="stop-color:#444B8C"/>
				<stop  offset="0.9964" style="stop-color:#26264F"/>
			</linearGradient>
			<path style="fill:url(#SVGID_00000159452194550485526980000006614760152744927408_);" d="M2817.417,740.167L976.329,633.66
				c-42.403-2.07-80.574,44.203-80.574,83.057v2370.74c0,53.884,55.042,64.73,97.445,60.399l1824.217-186.303
				c33.322-3.403,60.224-33.896,60.224-68.122V805.078C2877.641,770.852,2850.739,741.793,2817.417,740.167z"/>
			<path style="fill:#D8DEE8;" d="M2847.697,721.335l-1844.724-90.749c-42.403-2.086-76.937,27.959-76.937,67.116v2389.262
				c0,39.157,34.534,67.346,76.937,62.982l1844.724-189.869c33.322-3.43,60.224-34.162,60.224-68.655V786.753
				C2907.921,752.261,2881.019,722.974,2847.697,721.335z"/>
			
				<linearGradient id="SVGID_00000090252991682501734410000017197890168714623897_" gradientUnits="userSpaceOnUse" x1="1361.3271" y1="3147.5483" x2="3283.6396" y2="-1492.5229">
				<stop  offset="0.0036" style="stop-color:#E38DDD"/>
				<stop  offset="1" style="stop-color:#9571F6"/>
			</linearGradient>
			<path style="fill:url(#SVGID_00000090252991682501734410000017197890168714623897_);" d="M1002.973,3117.546
				c-22.872,2.309-41.526-12.974-41.526-34.075V699.294c0-21.101,18.654-37.387,41.526-36.306l1844.724,87.14
				c18.013,0.851,32.636,16.725,32.636,35.386v2108.631c0,18.662-14.623,35.322-32.636,37.14L1002.973,3117.546z"/>
			<polygon style="fill:#FFFFFF;" points="2728.802,2874.739 1151.001,3026.758 1151.001,827.15 2728.802,886.573 			"/>
			<path style="opacity:0.3;fill:#97A6B7;" d="M2097.729,897.338l-630.575,7.888l14.144-142.207
				c1.067-18.477,14.426-33.646,32.012-36.348l106.792-16.411c12.573-1.932,23.401-10.242,28.896-22.175l11.58-25.148
				l279.325,17.248L2097.729,897.338z"/>
			
				<linearGradient id="SVGID_00000053519853204739479920000016510640195362001339_" gradientUnits="userSpaceOnUse" x1="1467.1541" y1="677.2283" x2="2458.4675" y2="677.2283">
				<stop  offset="0" style="stop-color:#444B8C"/>
				<stop  offset="0.9964" style="stop-color:#26264F"/>
			</linearGradient>
			<path style="fill:url(#SVGID_00000053519853204739479920000016510640195362001339_);" d="M2434.461,805.08
				c-2.991-16.089-15.882-27.382-32.124-28.11l-100.76-4.516c-45.733-2.05-79.259-39.204-77.581-86.262l3.888-109.052
				c0.719-20.168-13.683-36.328-33.478-37.51l-33.104-1.977c-25.244-1.508-42.051-23.761-38.51-49.494
				c6.188-44.969-24.623-83.777-69.278-86.82c-45.005-3.067-87.009,31.316-93.709,76.861c-0.996,6.768-3.282,13.455-7.002,19.423
				c-10.399,16.682-28.621,25.866-46.467,24.8l-34.149-2.039c-20.691-1.236-40.354,13.287-45.595,33.721l-28.394,110.694
				c-12.28,47.873-58.601,82.467-107.787,80.263l-110.529-4.954c-18.102-0.811-35.867,9.739-44.204,26.281l-66.604,132.162
				c-5.455,10.824,1.262,22.516,13.15,22.911l958.517,31.837c10.491,0.349,19.393-10.112,17.46-20.507L2434.461,805.08z
				 M2039.928,495.723c-13.203-0.818-22.365-12.296-20.445-25.635c1.921-13.339,14.191-23.455,27.388-22.595
				c13.174,0.858,22.285,12.332,20.371,25.631C2065.327,486.42,2053.108,496.539,2039.928,495.723z"/>
			<path style="fill:#97A6B7;" d="M2440.139,808.036c-2.991-16.089-15.882-27.382-32.124-28.11l-100.76-4.516
				c-45.733-2.05-79.259-39.204-77.581-86.262l3.889-109.052c0.719-20.168-13.683-36.328-33.478-37.51l-33.104-1.977
				c-25.244-1.508-42.051-23.761-38.51-49.493c6.188-44.97-24.624-83.777-69.278-86.82c-45.005-3.067-87.009,31.316-93.709,76.861
				c-0.996,6.768-3.282,13.455-7.002,19.423c-10.399,16.682-28.621,25.866-46.467,24.8l-34.149-2.04
				c-20.692-1.236-40.354,13.287-45.595,33.721l-28.393,110.694c-12.28,47.873-58.601,82.468-107.787,80.263l-110.529-4.954
				c-18.102-0.811-35.867,9.739-44.204,26.281l-66.604,132.162c-5.455,10.824,1.262,22.516,13.15,22.911l958.516,31.837
				c10.491,0.348,19.393-10.112,17.46-20.507L2440.139,808.036z M2045.605,498.679c-13.203-0.818-22.365-12.296-20.445-25.635
				c1.92-13.339,14.191-23.455,27.388-22.595c13.175,0.858,22.286,12.332,20.371,25.631
				C2071.005,489.377,2058.785,499.495,2045.605,498.679z"/>
			<g>
				<path style="opacity:0.5;fill:#FFFFFF;" d="M2276.101,868.769c-85.501-52.782-151.106-15.358-204.394-74.889
					c-57.045-63.729-18.57-147.627-77.594-187.216c-37.787-25.346-71.496-2.991-115.445-9.852
					c-16.091-2.512-33.266-8.909-51.111-21.377l-23.68,92.319c-12.28,47.874-58.601,82.466-107.787,80.264l-110.529-4.953
					c-18.102-0.811-35.867,9.74-44.204,26.281l-66.604,132.162c-5.455,10.823,1.262,22.517,13.15,22.91l871.094,28.934
					C2337.056,918.505,2309.8,889.571,2276.101,868.769z"/>
			</g>
			<g>
				<polygon style="fill:#97A6B7;" points="2283.668,1172.596 1693.305,1166.119 1693.305,1095.287 2283.668,1104.374 				"/>
				<g>
					<g>
						
							<linearGradient id="SVGID_00000080906047129389667290000017983703660374414478_" gradientUnits="userSpaceOnUse" x1="1616.3181" y1="1620.7135" x2="1688.6315" y2="1620.7135">
							<stop  offset="0" style="stop-color:#FF9085"/>
							<stop  offset="1" style="stop-color:#FB6FBB"/>
						</linearGradient>
						<polygon style="fill:url(#SVGID_00000080906047129389667290000017983703660374414478_);" points="1688.631,1936.816 
							1616.318,1939.501 1616.318,1301.926 1688.631,1302.105 						"/>
						
							<linearGradient id="SVGID_00000085232726529431317090000017771882327944794797_" gradientUnits="userSpaceOnUse" x1="1755.5404" y1="1716.7903" x2="1826.6111" y2="1716.7903">
							<stop  offset="0" style="stop-color:#FF9085"/>
							<stop  offset="1" style="stop-color:#FB6FBB"/>
						</linearGradient>
						<polygon style="fill:url(#SVGID_00000085232726529431317090000017771882327944794797_);" points="1826.611,1931.693 
							1755.54,1934.332 1755.54,1499.953 1826.611,1499.249 						"/>
						
							<linearGradient id="SVGID_00000030470067403630920280000006188227493957812615_" gradientUnits="userSpaceOnUse" x1="1892.375" y1="1657.0958" x2="1962.2347" y2="1657.0958">
							<stop  offset="0" style="stop-color:#FF9085"/>
							<stop  offset="1" style="stop-color:#FB6FBB"/>
						</linearGradient>
						<polygon style="fill:url(#SVGID_00000030470067403630920280000006188227493957812615_);" points="1962.235,1926.658 
							1892.375,1929.251 1892.375,1385.131 1962.235,1384.94 						"/>
						
							<linearGradient id="SVGID_00000145750830268887278600000011232049194085772957_" gradientUnits="userSpaceOnUse" x1="2026.8828" y1="1709.1479" x2="2095.5623" y2="1709.1479">
							<stop  offset="0" style="stop-color:#FF9085"/>
							<stop  offset="1" style="stop-color:#FB6FBB"/>
						</linearGradient>
						<polygon style="fill:url(#SVGID_00000145750830268887278600000011232049194085772957_);" points="2095.562,1921.707 
							2026.883,1924.257 2026.883,1494.708 2095.562,1494.038 						"/>
						
							<linearGradient id="SVGID_00000173122686924179304550000009288916953336919442_" gradientUnits="userSpaceOnUse" x1="2159.1228" y1="1764.1127" x2="2226.6516" y2="1764.1127">
							<stop  offset="0" style="stop-color:#FF9085"/>
							<stop  offset="1" style="stop-color:#FB6FBB"/>
						</linearGradient>
						<polygon style="fill:url(#SVGID_00000173122686924179304550000009288916953336919442_);" points="2226.652,1916.84 
							2159.123,1919.347 2159.123,1610.042 2226.652,1608.878 						"/>
						<polygon style="fill:#D8DEE8;" points="2355.558,1912.054 2289.152,1914.52 2289.152,1303.595 2355.558,1303.76 						"/>
						<polygon style="fill:#D8DEE8;" points="2482.337,1907.347 2417.024,1909.772 2417.024,1727.765 2482.337,1726.117 						"/>
						<polygon style="fill:#D8DEE8;" points="2607.039,1902.717 2542.794,1905.102 2542.794,1422.917 2607.039,1422.573 						"/>
					</g>
					<polygon style="fill:#D8DEE8;" points="2607.039,2161.992 1344.858,2230.519 1344.858,2163.936 2607.039,2100.543 					"/>
					<polygon style="fill:#D8DEE8;" points="2607.039,2044.438 1344.858,2103.143 1344.858,2036.56 2607.039,1982.99 					"/>
					<polygon style="fill:#D8DEE8;" points="2607.039,2637.55 1344.858,2745.814 1344.858,2679.231 2607.039,2576.102 					"/>
					<polygon style="opacity:0.5;fill:#D8DEE8;" points="1828.861,2295.076 1828.861,2547.914 1329.158,2585.856 1329.158,2325.064 
											"/>
					<path style="fill:#D8DEE8;" d="M1329.158,2477.308v108.547l499.702-37.942v-195.922c-28.559-9.074-62.903-12.922-89.118,5.866
						c-54.945,39.411-47.94,59.72-105.246,53.159c-44.87-5.159-94.799-9.376-133.304,23.219
						c-23.865,20.202-36.144,40.985-70.547,40.348C1398.261,2473.984,1360.527,2453.815,1329.158,2477.308z"/>
					<polygon style="fill:#D8DEE8;" points="2607.039,2293.795 1946.15,2335.443 1946.15,2288.037 2607.039,2248.376 					"/>
					<polygon style="fill:#D8DEE8;" points="2607.039,2389.975 1946.15,2435.831 1946.15,2391.214 2607.039,2347.228 					"/>
					<polygon style="fill:#D8DEE8;" points="2607.039,2488.827 1946.15,2539.008 1946.15,2491.602 2607.039,2443.408 					"/>
					<polygon style="fill:#D8DEE8;" points="1498.616,1358.91 1341.645,1359.052 1341.645,1298.454 1498.616,1298.893 					"/>
					<polygon style="fill:#D8DEE8;" points="1498.616,1507.186 1341.645,1508.765 1341.645,1448.167 1498.616,1447.169 					"/>
					<polygon style="fill:#D8DEE8;" points="1498.616,1651.932 1341.645,1654.914 1341.645,1594.316 1498.616,1591.915 					"/>
					<polygon style="fill:#D8DEE8;" points="1498.616,1800.208 1341.645,1804.627 1341.645,1744.029 1498.616,1740.191 					"/>
					<polygon style="fill:#D8DEE8;" points="1498.616,1944.954 1341.645,1950.776 1341.645,1890.177 1498.616,1884.937 					"/>
				</g>
			</g>
		</g>
		<g>
			
				<linearGradient id="SVGID_00000160167213727532681070000003146603005929458600_" gradientUnits="userSpaceOnUse" x1="2762.2007" y1="4469.2856" x2="2782.8806" y2="2930.7859">
				<stop  offset="0" style="stop-color:#444B8C"/>
				<stop  offset="0.9964" style="stop-color:#26264F"/>
			</linearGradient>
			<path style="fill:url(#SVGID_00000160167213727532681070000003146603005929458600_);" d="M3209.711,2086.614l-2.683,907.898
				c-0.132,44.514-36.129,85.009-81.24,89.626l-663.741,67.944c-51.124,5.234-92.957-30.109-92.957-78.01v-977.234
				c0-45.359,37.117-82.785,84.218-87.319c3.005-0.29,6.062-0.391,9.138-0.405l666.208-3.177
				C3173.924,2005.722,3209.843,2041.787,3209.711,2086.614z"/>
			
				<linearGradient id="SVGID_00000011026611010912878910000007019309089266708357_" gradientUnits="userSpaceOnUse" x1="2812.0562" y1="4460.1758" x2="2832.6631" y2="2927.0935">
				<stop  offset="0" style="stop-color:#AA80F9"/>
				<stop  offset="0.9964" style="stop-color:#6165D7"/>
			</linearGradient>
			<path style="fill:url(#SVGID_00000011026611010912878910000007019309089266708357_);" d="M3256.765,2085.95l-2.783,905.087
				c-0.136,44.376-34.044,84.543-78.859,89.131l-659.202,67.483c-50.767,5.197-94.407-29.825-94.4-77.567l0.135-973.977
				c0.006-45.207,37.907-82.513,84.687-87.03c2.985-0.289,7.061-0.394,10.116-0.408l661.67-3.155
				C3223.102,2005.3,3256.903,2041.263,3256.765,2085.95z"/>
			<g style="opacity:0.3;">
				
					<linearGradient id="SVGID_00000014600739427686558350000011943443793056796041_" gradientUnits="userSpaceOnUse" x1="2421.623" y1="2172.5337" x2="3256.7698" y2="2172.5337">
					<stop  offset="0" style="stop-color:#AA80F9"/>
					<stop  offset="0.9964" style="stop-color:#6165D7"/>
				</linearGradient>
				<path style="fill:url(#SVGID_00000014600739427686558350000011943443793056796041_);" d="M3256.769,2084.664l-0.699,227.473
					l-834.447,27.418l0.034-244.831c0.006-44.128,36.18-80.043,81.379-85.946c4.04-0.542,9.229-0.088,13.423-0.108l661.67-3.155
					C3223.102,2005.3,3256.907,2039.977,3256.769,2084.664z"/>
				
					<linearGradient id="SVGID_00000135667004163542138370000000074374860264680842_" gradientUnits="userSpaceOnUse" x1="2421.6194" y1="2302.4934" x2="3256.2849" y2="2302.4934">
					<stop  offset="0" style="stop-color:#AA80F9"/>
					<stop  offset="0.9964" style="stop-color:#6165D7"/>
				</linearGradient>
				<path style="fill:url(#SVGID_00000135667004163542138370000000074374860264680842_);" d="M3256.285,2242.225l-0.291,94.522
					c-80.957,25.607-229.952,46.317-400.911,52.905c-75.51,2.91-148.502,2.812-214.472,0.079
					c-87.848-3.642-162.025-11.944-218.991-23.69l0.014-101.73c21.437-5.272,41.136-10.167,64.511-14.781
					c50.811-10.035,111.979-18.485,178.824-24.706c59.719-5.571,124.536-9.341,191.383-10.88
					c86.023-1.981,165.896-0.042,234.545,4.991c5.34,0.38,10.668,0.8,15.867,1.221c16.417,1.346,32.187,2.872,47.177,4.58
					c5.304,0.595,10.528,1.217,15.64,1.867c11.754,1.48,21.856,3.088,32.554,4.781
					C3222.646,2234.626,3240.829,2238.249,3256.285,2242.225z"/>
			</g>
			<path style="fill:#FFFFFF;" d="M3215.914,2264.099c-0.04,13.524-11.052,24.823-24.628,25.238l-684.839,20.949
				c-15.359,0.47-27.835-10.847-27.83-25.279l0.055-163.559c0.005-14.45,12.499-26.317,27.869-26.504l685.322-8.328
				c13.585-0.165,24.541,10.679,24.501,24.219L3215.914,2264.099z"/>
			
				<linearGradient id="SVGID_00000110450670621843595180000004669490420193221802_" gradientUnits="userSpaceOnUse" x1="2852.824" y1="1966.9144" x2="2796.3174" y2="3255.2446">
				<stop  offset="0.0036" style="stop-color:#E38DDD"/>
				<stop  offset="1" style="stop-color:#9571F6"/>
			</linearGradient>
			<path style="fill:url(#SVGID_00000110450670621843595180000004669490420193221802_);" d="M3200.342,2261.118
				c-0.025,8.554-6.997,15.693-15.586,15.946l-681.482,20.074c-9.701,0.286-17.575-6.867-17.572-15.977l0.059-162.806
				c0.003-9.121,7.888-16.615,17.596-16.739l681.918-8.674c8.594-0.109,15.531,6.745,15.506,15.309L3200.342,2261.118z"/>
			<g>
				<g>
					<g>
						
							<linearGradient id="SVGID_00000065051706434668469370000002184915487405438365_" gradientUnits="userSpaceOnUse" x1="3100.2068" y1="2109.845" x2="3089.1245" y2="2362.5198">
							<stop  offset="0" style="stop-color:#311944"/>
							<stop  offset="1" style="stop-color:#A03976"/>
						</linearGradient>
						<path style="fill:url(#SVGID_00000065051706434668469370000002184915487405438365_);" d="M3106.146,2170.413
							c-0.011,4.242-3.495,7.024-7.785,7.094l-0.359,0.006c-4.294,0.07-7.768-2.539-7.758-6.787l0.079-31.55
							c0.011-4.249,3.503-7.458,7.797-7.531l0.359-0.006c4.291-0.073,7.758,3.027,7.747,7.27L3106.146,2170.413z"/>
						
							<linearGradient id="SVGID_00000138567786074721541960000016110491438269408919_" gradientUnits="userSpaceOnUse" x1="3163.4543" y1="2108.7488" x2="3152.3606" y2="2361.6812">
							<stop  offset="0" style="stop-color:#311944"/>
							<stop  offset="1" style="stop-color:#A03976"/>
						</linearGradient>
						<path style="fill:url(#SVGID_00000138567786074721541960000016110491438269408919_);" d="M3169.299,2169.301
							c-0.011,4.218-3.457,7.111-7.698,7.179l-0.355,0.006c-4.245,0.069-7.679-2.652-7.667-6.876l0.086-31.461
							c0.011-4.225,3.465-7.507,7.71-7.579l0.355-0.006c4.242-0.072,7.669,3.102,7.657,7.321L3169.299,2169.301z"/>
					</g>
					<g>
						
							<linearGradient id="SVGID_00000170247506812194216000000014082503836277917593_" gradientUnits="userSpaceOnUse" x1="3100.1606" y1="2177.1035" x2="3088.2905" y2="2447.7397">
							<stop  offset="0" style="stop-color:#311944"/>
							<stop  offset="1" style="stop-color:#A03976"/>
						</linearGradient>
						<path style="fill:url(#SVGID_00000170247506812194216000000014082503836277917593_);" d="M3105.97,2240.999
							c-0.011,4.24-3.494,8.522-7.783,8.586l-0.359,0.005c-4.292,0.064-7.766-3.935-7.756-8.181l0.079-32.46
							c0.01-4.247,3.502-8.434,7.795-8.502l0.359-0.006c4.29-0.068,7.756,3.903,7.745,8.144L3105.97,2240.999z"/>
						
							<linearGradient id="SVGID_00000031929503201117867320000017841879342786299834_" gradientUnits="userSpaceOnUse" x1="3163.5618" y1="2171.2502" x2="3150.8889" y2="2460.188">
							<stop  offset="0" style="stop-color:#311944"/>
							<stop  offset="1" style="stop-color:#A03976"/>
						</linearGradient>
						<path style="fill:url(#SVGID_00000031929503201117867320000017841879342786299834_);" d="M3169.109,2239.728
							c-0.012,4.216-3.456,5.563-7.697,8.906l-0.354,0.005c-4.244,0.064-7.677-4.284-7.666-8.506l0.086-33.896
							c0.011-4.223,3.464-10.006,7.708-10.073l0.355-0.006c4.241-0.067,7.667,5.502,7.655,9.719L3169.109,2239.728z"/>
					</g>
				</g>
				<g>
					
						<linearGradient id="SVGID_00000060746269596602109140000008475764888713855668_" gradientUnits="userSpaceOnUse" x1="5977.0352" y1="-5413.2222" x2="5966.7051" y2="-5177.7007" gradientTransform="matrix(0 1 -1 0 -2239 -3789)">
						<stop  offset="0" style="stop-color:#311944"/>
						<stop  offset="1" style="stop-color:#A03976"/>
					</linearGradient>
					<path style="opacity:0.3;fill:url(#SVGID_00000060746269596602109140000008475764888713855668_);" d="M3153.943,2185.821
						c0,4.223-3.67,7.749-7.923,7.841l-29.563,0.698c-4.281,0.093-5.325-3.269-5.325-7.511v-0.355c0-4.242,0.98-7.739,5.262-7.826
						l30.926-0.672c4.253-0.087,6.623,3.247,6.623,7.471V2185.821z"/>
					<g>
						
							<linearGradient id="SVGID_00000039855799175755035340000017524272718563826845_" gradientUnits="userSpaceOnUse" x1="5911.1548" y1="-5413.2344" x2="5900.8218" y2="-5177.6504" gradientTransform="matrix(0 1 -1 0 -2239 -3789)">
							<stop  offset="0" style="stop-color:#311944"/>
							<stop  offset="1" style="stop-color:#A03976"/>
						</linearGradient>
						<path style="fill:url(#SVGID_00000039855799175755035340000017524272718563826845_);" d="M3153.943,2120.087
							c0,4.225-3.581,7.73-7.835,7.797l-29.609,0.504c-4.282,0.068-5.366-3.32-5.366-7.564v-0.355c0-4.244,1.065-7.719,5.347-7.781
							l30.885-0.478c4.254-0.061,6.578,3.298,6.578,7.523V2120.087z"/>
						
							<linearGradient id="SVGID_00000003810133065428139090000015629746438375865997_" gradientUnits="userSpaceOnUse" x1="6046.1445" y1="-5414.8945" x2="6034.9604" y2="-5159.895" gradientTransform="matrix(0 1 -1 0 -2239 -3789)">
							<stop  offset="0" style="stop-color:#311944"/>
							<stop  offset="1" style="stop-color:#A03976"/>
						</linearGradient>
						<path style="fill:url(#SVGID_00000003810133065428139090000015629746438375865997_);" d="M3153.943,2254.654
							c0,4.221-3.762,7.767-8.014,7.887l-31.3,0.888c-4.28,0.12-7.064-3.227-7.064-7.467v-0.354c0-4.24,2.674-7.747,6.954-7.861
							l31.857-0.868c4.252-0.113,7.566,3.201,7.566,7.422V2254.654z"/>
					</g>
				</g>
			</g>
			<path style="opacity:0.3;fill:#FFFFFF;" d="M2906.158,3048.984c-2.707,15.142-7.17,30.46-13.868,44.95
				c-2.381,5.147-5.077,10.521-8.032,16.01l-368.336,37.707c-50.767,5.197-94.407-29.825-94.4-77.567l0.135-975.361
				c0.006-44.128,36.181-80.786,81.379-86.686c1.098,0.311,2.729,0.647,3.84,0.985c47.541,14.38,99.332,41.2,130.255,91.379
				c19.317,31.31,30.797,71.832,28.227,124.413c-0.654,13.596-2.183,28.014-4.816,43.304c-1.532,8.885-3.061,17.962-4.622,27.218
				c-1.949,11.558-3.868,23.376-5.732,35.398c-2.971,19.244-5.706,38.987-7.908,58.934c-2.102,19.121-3.7,38.442-4.503,57.705
				c-0.146,3.719-0.276,7.451-0.365,11.168c-0.311,12.046-0.277,24.035,0.169,35.922c0.292,8.141,0.786,16.217,1.478,24.228
				c3.926,45.071,14.53,87.945,35.777,125.133c16.056,28.086,40.215,49.458,65.574,69.189c6.689,5.196,13.453,10.285,20.182,15.357
				c23.069,17.379,45.043,35.437,64.594,55.72c0.482,0.497,0.964,1.006,1.433,1.504c9.457,9.934,18.333,20.41,26.479,31.614
				c9.05,12.44,16.632,25.61,22.986,39.36c2.452,5.28,4.711,10.666,6.806,16.115c3.616,9.353,6.724,18.967,9.434,28.779
				c1.219,4.401,2.41,8.868,3.547,13.393c0.054,0.167,0.108,0.347,0.135,0.53c4.585,17.937,8.538,36.69,10.977,55.762
				C2910.263,2996.904,2910.744,3023.261,2906.158,3048.984z"/>
			<g>
				<g>
					<g>
						
							<linearGradient id="SVGID_00000096060596702184030510000013619045051063526028_" gradientUnits="userSpaceOnUse" x1="3274.6677" y1="2088.1753" x2="1955.7571" y2="2821.8738">
							<stop  offset="0" style="stop-color:#444B8C"/>
							<stop  offset="0.9964" style="stop-color:#3E4177"/>
						</linearGradient>
						<path style="fill:url(#SVGID_00000096060596702184030510000013619045051063526028_);" d="M2639.216,2504.715
							c-0.009,9.58-8.208,17.75-18.329,18.248l-123.587,6.091c-10.357,0.51-18.764-6.949-18.76-16.662l0.015-44.358
							c0.003-9.717,8.418-17.952,18.778-18.392l123.621-5.253c10.124-0.43,18.311,6.991,18.302,16.575L2639.216,2504.715z"/>
						
							<linearGradient id="SVGID_00000136375804433425097540000007816391513912771759_" gradientUnits="userSpaceOnUse" x1="3302.9065" y1="2175.8442" x2="2025.3583" y2="2886.533">
							<stop  offset="0" style="stop-color:#444B8C"/>
							<stop  offset="0.9964" style="stop-color:#3E4177"/>
						</linearGradient>
						<path style="fill:url(#SVGID_00000136375804433425097540000007816391513912771759_);" d="M2838.956,2495.171
							c-0.015,9.415-7.938,17.436-17.712,17.918l-119.32,5.881c-9.997,0.493-18.106-6.843-18.096-16.386l0.046-43.582
							c0.01-9.547,8.138-17.631,18.138-18.056l119.351-5.071c9.776-0.416,17.677,6.884,17.662,16.302L2838.956,2495.171z"/>
						
							<linearGradient id="SVGID_00000039131940953994745360000004033255626142290620_" gradientUnits="userSpaceOnUse" x1="3328.5439" y1="2258.0916" x2="2089.0061" y2="2947.6355">
							<stop  offset="0" style="stop-color:#444B8C"/>
							<stop  offset="0.9964" style="stop-color:#3E4177"/>
						</linearGradient>
						<path style="fill:url(#SVGID_00000039131940953994745360000004033255626142290620_);" d="M3025.47,2486.26
							c-0.021,9.26-7.691,17.144-17.146,17.61l-115.404,5.687c-9.667,0.477-17.503-6.744-17.487-16.128l0.074-42.857
							c0.016-9.388,7.881-17.333,17.551-17.743l115.433-4.905c9.457-0.402,17.095,6.783,17.074,16.046L3025.47,2486.26z"/>
						
							<linearGradient id="SVGID_00000062181953371962581580000007556893191265081769_" gradientUnits="userSpaceOnUse" x1="3363.4714" y1="2335.249" x2="2161.3914" y2="3003.9556">
							<stop  offset="0" style="stop-color:#444B8C"/>
							<stop  offset="0.9964" style="stop-color:#3E4177"/>
						</linearGradient>
						<path style="fill:url(#SVGID_00000062181953371962581580000007556893191265081769_);" d="M3212.178,2477.338
							c-0.027,9.106-7.447,16.851-16.588,17.302l-111.55,5.498c-9.343,0.46-16.91-6.644-16.888-15.87l0.102-42.132
							c0.022-9.229,7.628-17.034,16.973-17.431l111.577-4.741c9.143-0.388,16.522,6.682,16.495,15.79L3212.178,2477.338z"/>
					</g>
					<g>
						
							<linearGradient id="SVGID_00000000902624901730144760000008946395851413305004_" gradientUnits="userSpaceOnUse" x1="3341.4702" y1="2192.4263" x2="2016.1168" y2="2929.7087">
							<stop  offset="0" style="stop-color:#444B8C"/>
							<stop  offset="0.9964" style="stop-color:#3E4177"/>
						</linearGradient>
						<path style="fill:url(#SVGID_00000000902624901730144760000008946395851413305004_);" d="M2639.089,2645.18
							c-0.009,9.571-8.204,17.832-18.32,18.454l-123.527,7.59c-10.352,0.636-18.754-6.713-18.751-16.417l0.015-44.314
							c0.003-9.707,8.414-18.036,18.768-18.602l123.56-6.754c10.119-0.553,18.302,6.761,18.293,16.335L2639.089,2645.18z"/>
						
							<linearGradient id="SVGID_00000157279385376121329100000004386528144845901202_" gradientUnits="userSpaceOnUse" x1="3366.7664" y1="2279.2192" x2="2082.9861" y2="2993.375">
							<stop  offset="0" style="stop-color:#444B8C"/>
							<stop  offset="0.9964" style="stop-color:#3E4177"/>
						</linearGradient>
						<path style="fill:url(#SVGID_00000157279385376121329100000004386528144845901202_);" d="M2838.734,2633.212
							c-0.015,9.406-7.934,17.516-17.703,18.116l-119.264,7.328c-9.992,0.614-18.098-6.615-18.087-16.149l0.046-43.539
							c0.01-9.537,8.134-17.713,18.129-18.259l119.295-6.521c9.772-0.534,17.668,6.662,17.653,16.071L2838.734,2633.212z"/>
						
							<linearGradient id="SVGID_00000114754913678465620450000012000429941659797424_" gradientUnits="userSpaceOnUse" x1="3389.6887" y1="2360.6331" x2="2144.1128" y2="3053.5359">
							<stop  offset="0" style="stop-color:#444B8C"/>
							<stop  offset="0.9964" style="stop-color:#3E4177"/>
						</linearGradient>
						<path style="fill:url(#SVGID_00000114754913678465620450000012000429941659797424_);" d="M3025.163,2622.036
							c-0.021,9.251-7.688,17.221-17.138,17.801l-115.351,7.088c-9.663,0.594-17.495-6.524-17.479-15.899l0.074-42.816
							c0.016-9.379,7.877-17.411,17.542-17.939l115.38-6.307c9.453-0.517,17.087,6.568,17.066,15.823L3025.163,2622.036z"/>
						
							<linearGradient id="SVGID_00000048492209638142762640000007238669969958417562_" gradientUnits="userSpaceOnUse" x1="3421.9783" y1="2436.9133" x2="2214.0522" y2="3108.8718">
							<stop  offset="0" style="stop-color:#444B8C"/>
							<stop  offset="0.9964" style="stop-color:#3E4177"/>
						</linearGradient>
						<path style="fill:url(#SVGID_00000048492209638142762640000007238669969958417562_);" d="M3211.788,2610.849
							c-0.027,9.097-7.444,16.926-16.581,17.487l-111.501,6.851c-9.338,0.574-16.902-6.432-16.88-15.648l0.101-42.092
							c0.022-9.22,7.624-17.11,16.965-17.62l111.528-6.096c9.139-0.5,16.515,6.474,16.488,15.574L3211.788,2610.849z"/>
					</g>
					<g>
						
							<linearGradient id="SVGID_00000036214175565578141680000001630785878954738328_" gradientUnits="userSpaceOnUse" x1="3408.7871" y1="2292.9663" x2="2077.1516" y2="3033.7434">
							<stop  offset="0" style="stop-color:#444B8C"/>
							<stop  offset="0.9964" style="stop-color:#3E4177"/>
						</linearGradient>
						<path style="fill:url(#SVGID_00000036214175565578141680000001630785878954738328_);" d="M2638.965,2782.244
							c-0.009,9.561-8.2,17.912-18.311,18.653l-123.468,9.052c-10.347,0.758-18.745-6.484-18.742-16.177l0.015-44.271
							c0.003-9.698,8.409-18.119,18.759-18.807l123.501-8.217c10.114-0.673,18.293,6.537,18.285,16.102L2638.965,2782.244z"/>
						
							<linearGradient id="SVGID_00000131357445198932364190000010426007282340830388_" gradientUnits="userSpaceOnUse" x1="3431.1482" y1="2378.9426" x2="2141.2903" y2="3096.4792">
							<stop  offset="0" style="stop-color:#444B8C"/>
							<stop  offset="0.9964" style="stop-color:#3E4177"/>
						</linearGradient>
						<path style="fill:url(#SVGID_00000131357445198932364190000010426007282340830388_);" d="M2838.517,2767.913
							c-0.015,9.396-7.931,17.593-17.696,18.309l-119.208,8.74c-9.988,0.732-18.089-6.394-18.079-15.918l0.046-43.497
							c0.01-9.528,8.13-17.792,18.121-18.457l119.24-7.933c9.767-0.65,17.661,6.445,17.646,15.845L2838.517,2767.913z"/>
						
							<linearGradient id="SVGID_00000108269390601896221880000000436232423538499986_" gradientUnits="userSpaceOnUse" x1="3451.3577" y1="2459.5801" x2="2199.8933" y2="3155.7585">
							<stop  offset="0" style="stop-color:#444B8C"/>
							<stop  offset="0.9964" style="stop-color:#3E4177"/>
						</linearGradient>
						<path style="fill:url(#SVGID_00000108269390601896221880000000436232423538499986_);" d="M3024.862,2754.53
							c-0.021,9.243-7.684,17.295-17.13,17.988l-115.3,8.453c-9.658,0.708-17.487-6.309-17.471-15.676l0.074-42.775
							c0.016-9.37,7.874-17.488,17.535-18.131l115.329-7.673c9.449-0.629,17.08,6.358,17.059,15.604L3024.862,2754.53z"/>
						
							<linearGradient id="SVGID_00000178199863495978461380000017109151069592630158_" gradientUnits="userSpaceOnUse" x1="3481.0112" y1="2535.041" x2="2267.3835" y2="3210.1714">
							<stop  offset="0" style="stop-color:#444B8C"/>
							<stop  offset="0.9964" style="stop-color:#3E4177"/>
						</linearGradient>
						<path style="fill:url(#SVGID_00000178199863495978461380000017109151069592630158_);" d="M3211.407,2741.133
							c-0.027,9.089-7.44,16.998-16.573,17.668l-111.453,8.171c-9.335,0.684-16.895-6.224-16.873-15.433l0.101-42.052
							c0.022-9.212,7.621-17.184,16.958-17.805l111.48-7.417c9.135-0.608,16.508,6.271,16.481,15.363L3211.407,2741.133z"/>
					</g>
					
						<linearGradient id="SVGID_00000094612478286499587790000017734122719193199506_" gradientUnits="userSpaceOnUse" x1="3476.5977" y1="2389.8171" x2="2138.8396" y2="3134.0002">
						<stop  offset="0" style="stop-color:#444B8C"/>
						<stop  offset="0.9964" style="stop-color:#3E4177"/>
					</linearGradient>
					<path style="fill:url(#SVGID_00000094612478286499587790000017734122719193199506_);" d="M2638.844,2915.917
						c-0.009,9.552-8.196,17.99-18.303,18.848l-123.41,10.476c-10.342,0.878-18.737-6.26-18.733-15.944l0.015-44.228
						c0.003-9.688,8.406-18.199,18.75-19.007l123.444-9.643c10.11-0.79,18.285,6.318,18.276,15.874L2638.844,2915.917z"/>
					
						<linearGradient id="SVGID_00000142155056241841092840000007979928597388608390_" gradientUnits="userSpaceOnUse" x1="3496.0264" y1="2475.0378" x2="2200.2458" y2="3195.8691">
						<stop  offset="0" style="stop-color:#444B8C"/>
						<stop  offset="0.9964" style="stop-color:#3E4177"/>
					</linearGradient>
					<path style="fill:url(#SVGID_00000142155056241841092840000007979928597388608390_);" d="M2838.306,2899.283
						c-0.015,9.388-7.927,17.668-17.688,18.497l-119.155,10.115c-9.983,0.847-18.081-6.178-18.071-15.694l0.046-43.456
						c0.01-9.519,8.126-17.87,18.112-18.65l119.186-9.31c9.763-0.763,17.653,6.234,17.637,15.625L2838.306,2899.283z"/>
					
						<linearGradient id="SVGID_00000073699132705528180340000006426739395314125246_" gradientUnits="userSpaceOnUse" x1="3513.5308" y1="2554.9534" x2="2256.3279" y2="3254.3242">
						<stop  offset="0" style="stop-color:#444B8C"/>
						<stop  offset="0.9964" style="stop-color:#3E4177"/>
					</linearGradient>
					<path style="fill:url(#SVGID_00000073699132705528180340000006426739395314125246_);" d="M3024.57,2883.75
						c-0.021,9.234-7.681,17.368-17.123,18.17l-115.25,9.783c-9.654,0.82-17.479-6.101-17.463-15.458l0.074-42.736
						c0.016-9.361,7.87-17.563,17.527-18.317l115.279-9.005c9.445-0.738,17.072,6.154,17.051,15.392L3024.57,2883.75z"/>
					
						<linearGradient id="SVGID_00000054248804767306413350000005572300018758846368_" gradientUnits="userSpaceOnUse" x1="3545.3096" y1="2495.8713" x2="2200.9927" y2="3243.7029">
						<stop  offset="0" style="stop-color:#444B8C"/>
						<stop  offset="0.9964" style="stop-color:#3E4177"/>
					</linearGradient>
					<path style="fill:url(#SVGID_00000054248804767306413350000005572300018758846368_);" d="M2638.714,3059.231
						c-0.009,9.542-8.192,18.073-18.294,19.056l-123.348,12.002c-10.337,1.006-18.727-6.02-18.724-15.695l0.015-44.183
						c0.003-9.678,8.401-18.285,18.741-19.221l123.382-11.17c10.105-0.915,18.276,6.084,18.268,15.63L2638.714,3059.231z"/>
					
						<linearGradient id="SVGID_00000129907402627697859060000007118022676814209726_" gradientUnits="userSpaceOnUse" x1="3561.7188" y1="2580.2153" x2="2259.5928" y2="3304.5767">
						<stop  offset="0" style="stop-color:#444B8C"/>
						<stop  offset="0.9964" style="stop-color:#3E4177"/>
					</linearGradient>
					<path style="fill:url(#SVGID_00000129907402627697859060000007118022676814209726_);" d="M2838.08,3040.131
						c-0.015,9.379-7.924,17.749-17.679,18.698l-119.097,11.588c-9.979,0.971-18.072-5.947-18.062-15.453l0.046-43.413
						c0.01-9.51,8.122-17.953,18.104-18.856l119.128-10.785c9.758-0.884,17.644,6.008,17.629,15.39L2838.08,3040.131z"/>
					
						<linearGradient id="SVGID_00000169536695562703536100000009468776609259425158_" gradientUnits="userSpaceOnUse" x1="3576.4363" y1="2659.2959" x2="2313.0845" y2="3362.0872">
						<stop  offset="0" style="stop-color:#444B8C"/>
						<stop  offset="0.9964" style="stop-color:#3E4177"/>
					</linearGradient>
					<path style="fill:url(#SVGID_00000169536695562703536100000009468776609259425158_);" d="M3024.256,3022.295
						c-0.021,9.225-7.677,17.447-17.115,18.365l-115.196,11.208c-9.65,0.939-17.471-5.877-17.455-15.226l0.074-42.693
						c0.016-9.352,7.866-17.643,17.518-18.517L3007.308,2965c9.44-0.854,17.064,5.935,17.043,15.164L3024.256,3022.295z"/>
					
						<linearGradient id="SVGID_00000051342139154815252750000018263079681849502862_" gradientUnits="userSpaceOnUse" x1="3567.2588" y1="2682.7119" x2="2352.5562" y2="3358.4404">
						<stop  offset="0" style="stop-color:#444B8C"/>
						<stop  offset="0.9964" style="stop-color:#3E4177"/>
					</linearGradient>
					<path style="fill:url(#SVGID_00000051342139154815252750000018263079681849502862_);" d="M3194.123,2811.618l-111.445,8.706
						c-9.333,0.729-16.363,11.271-16.385,20.474l-0.057,23.667l-0.048,19.761l-0.215,89.215l-0.063,26.244l-0.042,17.143
						c-0.022,9.191,6.956,17.441,16.283,16.533l111.368-10.836c9.125-0.888,17.096-10.476,17.123-19.548l0.049-16.921l0.076-25.903
						l0.258-88.057l0.057-19.504l0.068-23.359C3211.177,2820.148,3203.255,2810.905,3194.123,2811.618z"/>
				</g>
				<g>
					<g>
						
							<linearGradient id="SVGID_00000059992078857448999010000010381537055517730228_" gradientUnits="userSpaceOnUse" x1="2569.7053" y1="2398.562" x2="2547.9436" y2="2894.7188">
							<stop  offset="0" style="stop-color:#444B8C"/>
							<stop  offset="0.9964" style="stop-color:#26264F"/>
						</linearGradient>
						<path style="fill:url(#SVGID_00000059992078857448999010000010381537055517730228_);" d="M2646.102,2504.386
							c-0.009,9.574-8.198,17.739-18.307,18.237l-123.439,6.083c-10.344,0.51-18.741-6.945-18.737-16.652l0.016-44.332
							c0.003-9.711,8.408-17.941,18.755-18.38l123.473-5.246c10.112-0.43,18.289,6.988,18.28,16.565L2646.102,2504.386z"/>
						
							<linearGradient id="SVGID_00000004506974616711774300000016867300908866851495_" gradientUnits="userSpaceOnUse" x1="2765.1802" y1="2391.24" x2="2743.8291" y2="2878.0364">
							<stop  offset="0" style="stop-color:#444B8C"/>
							<stop  offset="0.9964" style="stop-color:#26264F"/>
						</linearGradient>
						<path style="fill:url(#SVGID_00000004506974616711774300000016867300908866851495_);" d="M2838.956,2495.171
							c-0.015,9.415-7.938,17.436-17.712,17.918l-119.32,5.881c-9.997,0.493-18.106-6.843-18.096-16.386l0.046-43.582
							c0.01-9.547,8.138-17.631,18.138-18.056l119.351-5.071c9.776-0.416,17.677,6.884,17.662,16.302L2838.956,2495.171z"/>
						
							<linearGradient id="SVGID_00000075850777780025581830000014682745310501097622_" gradientUnits="userSpaceOnUse" x1="2960.7029" y1="2383.9104" x2="2939.761" y2="2861.3782">
							<stop  offset="0" style="stop-color:#444B8C"/>
							<stop  offset="0.9964" style="stop-color:#26264F"/>
						</linearGradient>
						<path style="fill:url(#SVGID_00000075850777780025581830000014682745310501097622_);" d="M3031.903,2485.952
							c-0.021,9.255-7.682,17.134-17.126,17.599l-115.27,5.681c-9.656,0.476-17.483-6.74-17.466-16.119l0.075-42.832
							c0.016-9.383,7.872-17.322,17.531-17.732l115.299-4.899c9.446-0.401,17.075,6.779,17.054,16.038L3031.903,2485.952z"/>
						
							<linearGradient id="SVGID_00000134208253823032917890000011868585519320862595_" gradientUnits="userSpaceOnUse" x1="3149.6431" y1="2376.8213" x2="3129.095" y2="2845.3093">
							<stop  offset="0" style="stop-color:#444B8C"/>
							<stop  offset="0.9964" style="stop-color:#26264F"/>
						</linearGradient>
						<path style="fill:url(#SVGID_00000134208253823032917890000011868585519320862595_);" d="M3218.398,2477.041
							c-0.027,9.1-7.439,16.842-16.569,17.292l-111.423,5.491c-9.332,0.46-16.891-6.641-16.868-15.861l0.102-42.108
							c0.022-9.224,7.619-17.024,16.954-17.42l111.45-4.735c9.133-0.388,16.503,6.678,16.476,15.782L3218.398,2477.041z"/>
					</g>
					<g>
						
							<linearGradient id="SVGID_00000021818984264824224960000017003287645824427676_" gradientUnits="userSpaceOnUse" x1="2569.6768" y1="2538.5115" x2="2547.562" y2="3042.7192">
							<stop  offset="0" style="stop-color:#444B8C"/>
							<stop  offset="0.9964" style="stop-color:#26264F"/>
						</linearGradient>
						<path style="fill:url(#SVGID_00000021818984264824224960000017003287645824427676_);" d="M2645.971,2644.767
							c-0.009,9.565-8.194,17.821-18.298,18.442l-123.378,7.581c-10.339,0.635-18.731-6.71-18.728-16.407l0.016-44.287
							c0.004-9.701,8.404-18.025,18.746-18.59l123.412-6.746c10.107-0.552,18.28,6.758,18.271,16.326L2645.971,2644.767z"/>
						
							<linearGradient id="SVGID_00000151536683860791190730000017508758517499683771_" gradientUnits="userSpaceOnUse" x1="2765.0554" y1="2528.8643" x2="2743.3633" y2="3023.4392">
							<stop  offset="0" style="stop-color:#444B8C"/>
							<stop  offset="0.9964" style="stop-color:#26264F"/>
						</linearGradient>
						<path style="fill:url(#SVGID_00000151536683860791190730000017508758517499683771_);" d="M2838.734,2633.212
							c-0.015,9.406-7.934,17.516-17.703,18.116l-119.264,7.328c-9.992,0.614-18.098-6.615-18.087-16.149l0.046-43.539
							c0.01-9.537,8.134-17.713,18.129-18.259l119.295-6.521c9.772-0.534,17.668,6.662,17.653,16.071L2838.734,2633.212z"/>
						
							<linearGradient id="SVGID_00000013876970816502438020000009863656468392663707_" gradientUnits="userSpaceOnUse" x1="2960.4851" y1="2519.2073" x2="2939.2136" y2="3004.1875">
							<stop  offset="0" style="stop-color:#444B8C"/>
							<stop  offset="0.9964" style="stop-color:#26264F"/>
						</linearGradient>
						<path style="fill:url(#SVGID_00000013876970816502438020000009863656468392663707_);" d="M3031.593,2621.651
							c-0.021,9.246-7.679,17.21-17.118,17.791l-115.217,7.08c-9.652,0.593-17.475-6.521-17.458-15.891l0.075-42.791
							c0.017-9.373,7.868-17.401,17.522-17.929l115.247-6.299c9.442-0.516,17.067,6.565,17.046,15.814L3031.593,2621.651z"/>
						
							<linearGradient id="SVGID_00000029042557551723980480000012860558994646943901_" gradientUnits="userSpaceOnUse" x1="3149.3384" y1="2509.8687" x2="3128.4722" y2="2985.6152">
							<stop  offset="0" style="stop-color:#444B8C"/>
							<stop  offset="0.9964" style="stop-color:#26264F"/>
						</linearGradient>
						<path style="fill:url(#SVGID_00000029042557551723980480000012860558994646943901_);" d="M3218.005,2610.476
							c-0.027,9.092-7.436,16.916-16.562,17.477l-111.374,6.844c-9.328,0.573-16.883-6.428-16.861-15.64l0.102-42.068
							c0.022-9.215,7.616-17.1,16.946-17.61l111.401-6.089c9.128-0.499,16.496,6.471,16.469,15.566L3218.005,2610.476z"/>
					</g>
					<g>
						
							<linearGradient id="SVGID_00000034091052407959636970000007739630543549262266_" gradientUnits="userSpaceOnUse" x1="2569.6489" y1="2675.0681" x2="2547.1887" y2="3187.1545">
							<stop  offset="0" style="stop-color:#444B8C"/>
							<stop  offset="0.9964" style="stop-color:#26264F"/>
						</linearGradient>
						<path style="fill:url(#SVGID_00000034091052407959636970000007739630543549262266_);" d="M2645.844,2781.75
							c-0.009,9.556-8.19,17.901-18.29,18.641l-123.32,9.041c-10.334,0.758-18.722-6.48-18.719-16.168l0.016-44.244
							c0.003-9.692,8.4-18.107,18.737-18.795l123.353-8.207c10.102-0.672,18.271,6.534,18.263,16.093L2645.844,2781.75z"/>
						
							<linearGradient id="SVGID_00000048486098077149460420000003560511276033190313_" gradientUnits="userSpaceOnUse" x1="2764.9338" y1="2663.1538" x2="2742.9077" y2="3165.3418">
							<stop  offset="0" style="stop-color:#444B8C"/>
							<stop  offset="0.9964" style="stop-color:#26264F"/>
						</linearGradient>
						<path style="fill:url(#SVGID_00000048486098077149460420000003560511276033190313_);" d="M2838.517,2767.913
							c-0.015,9.396-7.931,17.593-17.696,18.309l-119.208,8.74c-9.988,0.732-18.089-6.394-18.079-15.918l0.046-43.497
							c0.01-9.528,8.13-17.792,18.121-18.457l119.24-7.933c9.767-0.65,17.661,6.445,17.646,15.845L2838.517,2767.913z"/>
						
							<linearGradient id="SVGID_00000123406540004073120220000018288729385386250905_" gradientUnits="userSpaceOnUse" x1="2960.2727" y1="2651.2285" x2="2938.6787" y2="3143.5603">
							<stop  offset="0" style="stop-color:#444B8C"/>
							<stop  offset="0.9964" style="stop-color:#26264F"/>
						</linearGradient>
						<path style="fill:url(#SVGID_00000123406540004073120220000018288729385386250905_);" d="M3031.29,2754.069
							c-0.021,9.238-7.676,17.285-17.111,17.977l-115.166,8.443c-9.647,0.707-17.467-6.306-17.45-15.668l0.075-42.75
							c0.016-9.365,7.865-17.478,17.514-18.12l115.195-7.664c9.438-0.628,17.06,6.355,17.039,15.596L3031.29,2754.069z"/>
						
							<linearGradient id="SVGID_00000060029805903092845250000006303879658292495807_" gradientUnits="userSpaceOnUse" x1="3149.0413" y1="2639.6968" x2="3127.8633" y2="3122.5466">
							<stop  offset="0" style="stop-color:#444B8C"/>
							<stop  offset="0.9964" style="stop-color:#26264F"/>
						</linearGradient>
						<path style="fill:url(#SVGID_00000060029805903092845250000006303879658292495807_);" d="M3217.622,2740.687
							c-0.027,9.084-7.432,16.988-16.555,17.657l-111.326,8.162c-9.324,0.684-16.876-6.221-16.853-15.425l0.102-42.029
							c0.022-9.206,7.613-17.174,16.939-17.794l111.353-7.409c9.125-0.607,16.489,6.268,16.462,15.355L3217.622,2740.687z"/>
					</g>
					
						<linearGradient id="SVGID_00000158002154159812913530000007621059896208602790_" gradientUnits="userSpaceOnUse" x1="2569.6221" y1="2808.2415" x2="2546.824" y2="3328.033">
						<stop  offset="0" style="stop-color:#444B8C"/>
						<stop  offset="0.9964" style="stop-color:#26264F"/>
					</linearGradient>
					<path style="fill:url(#SVGID_00000158002154159812913530000007621059896208602790_);" d="M2645.72,2915.344
						c-0.009,9.546-8.187,17.979-18.281,18.836l-123.262,10.464c-10.329,0.877-18.714-6.257-18.71-15.936l0.016-44.202
						c0.004-9.683,8.396-18.188,18.728-18.995l123.295-9.631c10.097-0.789,18.263,6.315,18.254,15.866L2645.72,2915.344z"/>
					
						<linearGradient id="SVGID_00000137107769083728163730000012190485603221174201_" gradientUnits="userSpaceOnUse" x1="2764.8152" y1="2794.1189" x2="2742.4626" y2="3303.7515">
						<stop  offset="0" style="stop-color:#444B8C"/>
						<stop  offset="0.9964" style="stop-color:#26264F"/>
					</linearGradient>
					<path style="fill:url(#SVGID_00000137107769083728163730000012190485603221174201_);" d="M2838.306,2899.283
						c-0.015,9.388-7.927,17.668-17.688,18.497l-119.155,10.115c-9.983,0.847-18.081-6.178-18.071-15.694l0.046-43.456
						c0.01-9.519,8.126-17.87,18.112-18.65l119.186-9.31c9.763-0.763,17.653,6.234,17.637,15.625L2838.306,2899.283z"/>
					
						<linearGradient id="SVGID_00000149342530714347711140000013030531420363317162_" gradientUnits="userSpaceOnUse" x1="2960.0654" y1="2779.9834" x2="2938.1565" y2="3279.5044">
						<stop  offset="0" style="stop-color:#444B8C"/>
						<stop  offset="0.9964" style="stop-color:#26264F"/>
					</linearGradient>
					<path style="fill:url(#SVGID_00000149342530714347711140000013030531420363317162_);" d="M3030.994,2883.215
						c-0.021,9.229-7.672,17.358-17.104,18.159l-115.116,9.772c-9.643,0.819-17.459-6.098-17.442-15.45l0.075-42.711
						c0.016-9.356,7.861-17.552,17.507-18.306l115.145-8.995c9.434-0.737,17.052,6.152,17.031,15.384L3030.994,2883.215z"/>
					
						<linearGradient id="SVGID_00000150061361061167552910000003216711559544469139_" gradientUnits="userSpaceOnUse" x1="2569.5935" y1="2951.0149" x2="2546.4319" y2="3479.0901">
						<stop  offset="0" style="stop-color:#444B8C"/>
						<stop  offset="0.9964" style="stop-color:#26264F"/>
					</linearGradient>
					<path style="fill:url(#SVGID_00000150061361061167552910000003216711559544469139_);" d="M2645.587,3058.572
						c-0.009,9.537-8.183,18.063-18.272,19.044l-123.2,11.987c-10.324,1.005-18.704-6.017-18.7-15.686l0.016-44.156
						c0.003-9.673,8.391-18.273,18.719-19.208l123.234-11.156c10.093-0.914,18.254,6.081,18.245,15.622L2645.587,3058.572z"/>
					
						<linearGradient id="SVGID_00000173148500151991065300000003486060193670871181_" gradientUnits="userSpaceOnUse" x1="2764.6882" y1="2934.5271" x2="2741.9846" y2="3452.1638">
						<stop  offset="0" style="stop-color:#444B8C"/>
						<stop  offset="0.9964" style="stop-color:#26264F"/>
					</linearGradient>
					<path style="fill:url(#SVGID_00000173148500151991065300000003486060193670871181_);" d="M2838.08,3040.131
						c-0.015,9.379-7.924,17.749-17.679,18.698l-119.097,11.588c-9.979,0.971-18.072-5.947-18.062-15.453l0.046-43.413
						c0.01-9.51,8.122-17.953,18.104-18.856l119.128-10.785c9.758-0.884,17.644,6.008,17.629,15.39L2838.08,3040.131z"/>
					
						<linearGradient id="SVGID_00000026122697673647128920000010945790889969028501_" gradientUnits="userSpaceOnUse" x1="2959.8438" y1="2918.0247" x2="2937.5957" y2="3425.2739">
						<stop  offset="0" style="stop-color:#444B8C"/>
						<stop  offset="0.9964" style="stop-color:#26264F"/>
					</linearGradient>
					<path style="fill:url(#SVGID_00000026122697673647128920000010945790889969028501_);" d="M3030.677,3021.679
						c-0.021,9.22-7.668,17.436-17.095,18.354l-115.062,11.196c-9.638,0.938-17.451-5.875-17.434-15.218l0.075-42.668
						c0.016-9.347,7.857-17.633,17.498-18.506l115.092-10.419c9.429-0.854,17.044,5.933,17.023,15.156L3030.677,3021.679z"/>
					
						<linearGradient id="SVGID_00000009561791498839231220000005681252169266941881_" gradientUnits="userSpaceOnUse" x1="3154.4192" y1="2701.1108" x2="3099.7063" y2="3948.542">
						<stop  offset="0" style="stop-color:#444B8C"/>
						<stop  offset="0.9964" style="stop-color:#26264F"/>
					</linearGradient>
					<path style="fill:url(#SVGID_00000009561791498839231220000005681252169266941881_);" d="M3200.58,2811.114l-111.314,8.695
						c-9.323,0.728-16.573,11.282-16.595,20.479l-0.058,23.653l-0.048,19.75l-0.217,89.164l-0.064,26.229l-0.042,17.134
						c-0.022,9.186,7.177,17.409,16.493,16.503l111.236-10.823c9.115-0.887,16.853-10.447,16.879-19.514l0.05-16.911l0.076-25.889
						l0.259-88.008l0.057-19.494l0.069-23.346C3217.389,2819.657,3209.701,2810.401,3200.58,2811.114z"/>
				</g>
			</g>
		</g>
		<g>
			
				<linearGradient id="SVGID_00000155135146752614775490000009997837293574721426_" gradientUnits="userSpaceOnUse" x1="2866.8706" y1="1787.3969" x2="2662.8477" y2="1852.874">
				<stop  offset="0" style="stop-color:#FCB148"/>
				<stop  offset="0.0521" style="stop-color:#FDBA46"/>
				<stop  offset="0.1424" style="stop-color:#FFC244"/>
				<stop  offset="0.3183" style="stop-color:#FFC444"/>
				<stop  offset="0.4849" style="stop-color:#FDB946"/>
				<stop  offset="0.7754" style="stop-color:#F99C4D"/>
				<stop  offset="0.8658" style="stop-color:#F8924F"/>
				<stop  offset="1" style="stop-color:#F8924F"/>
			</linearGradient>
			<path style="fill:url(#SVGID_00000155135146752614775490000009997837293574721426_);" d="M3101.745,1779.994
				c0,94.649-74.01,169.104-168.602,166.199c-98.443-3.023-181.237-88.043-181.237-189.784
				c0-101.741,82.794-175.598,181.237-165.348C3027.735,1600.911,3101.745,1685.345,3101.745,1779.994z"/>
			
				<linearGradient id="SVGID_00000158017593049549876550000009441544170653260200_" gradientUnits="userSpaceOnUse" x1="3031.9136" y1="1584.3126" x2="2849.7744" y2="1986.1455">
				<stop  offset="0" style="stop-color:#FFDB44"/>
				<stop  offset="1" style="stop-color:#FEEF06"/>
			</linearGradient>
			<path style="fill:url(#SVGID_00000158017593049549876550000009441544170653260200_);" d="M3127.305,1771.833
				c0,94.649-74.01,169.104-168.603,166.199c-98.443-3.023-181.236-88.043-181.236-189.784
				c0-101.741,82.794-175.598,181.236-165.348C3053.296,1592.75,3127.305,1677.184,3127.305,1771.833z"/>
			
				<linearGradient id="SVGID_00000005986508772688354360000005530119049822900666_" gradientUnits="userSpaceOnUse" x1="2998.4089" y1="2008.6039" x2="2963.2649" y2="1816.6128">
				<stop  offset="0" style="stop-color:#FCB148"/>
				<stop  offset="0.0521" style="stop-color:#FDBA46"/>
				<stop  offset="0.1424" style="stop-color:#FFC244"/>
				<stop  offset="0.3183" style="stop-color:#FFC444"/>
				<stop  offset="0.4849" style="stop-color:#FDB946"/>
				<stop  offset="0.7754" style="stop-color:#F99C4D"/>
				<stop  offset="0.8658" style="stop-color:#F8924F"/>
				<stop  offset="1" style="stop-color:#F8924F"/>
			</linearGradient>
			<path style="fill:url(#SVGID_00000005986508772688354360000005530119049822900666_);" d="M3119.881,1771.332
				c0,90.481-70.813,161.537-161.178,158.611c-93.871-3.04-172.686-84.178-172.686-181.119c0-96.941,78.814-167.453,172.686-157.835
				C3049.067,1600.247,3119.881,1680.851,3119.881,1771.332z"/>
			
				<linearGradient id="SVGID_00000101794624076781160350000007275426858002279570_" gradientUnits="userSpaceOnUse" x1="2923.8965" y1="1697.8452" x2="3068.7302" y2="2005.2993">
				<stop  offset="0" style="stop-color:#FCB148"/>
				<stop  offset="0.0521" style="stop-color:#FDBA46"/>
				<stop  offset="0.1424" style="stop-color:#FFC244"/>
				<stop  offset="0.3183" style="stop-color:#FFC444"/>
				<stop  offset="0.4849" style="stop-color:#FDB946"/>
				<stop  offset="0.7754" style="stop-color:#F99C4D"/>
				<stop  offset="0.8658" style="stop-color:#F8924F"/>
				<stop  offset="1" style="stop-color:#F8924F"/>
			</linearGradient>
			<path style="fill:url(#SVGID_00000101794624076781160350000007275426858002279570_);" d="M3114.563,1770.974
				c0,87.495-68.521,156.124-155.86,153.192c-90.611-3.042-166.596-81.408-166.596-174.931s75.985-161.643,166.596-152.468
				C3046.042,1605.61,3114.563,1683.478,3114.563,1770.974z"/>
			<g>
				
					<linearGradient id="SVGID_00000081636074117631929500000001518343132043239046_" gradientUnits="userSpaceOnUse" x1="2918.1265" y1="1631.6851" x2="2990.9536" y2="1904.6292">
					<stop  offset="0" style="stop-color:#FFDB44"/>
					<stop  offset="1" style="stop-color:#FEEF06"/>
				</linearGradient>
				<path style="fill:url(#SVGID_00000081636074117631929500000001518343132043239046_);" d="M2957.809,1626.532L2957.809,1626.532
					c4.648,0.442,8.409,4.626,8.409,9.346v16.11c9.293,1.038,18.6,2.653,27.92,4.843c6.872,1.615,13.697,3.537,20.477,5.766
					c4.062,1.335,6.83,5.437,6.416,9.667l-1.979,20.201c-0.525,5.359-5.823,8.507-10.81,6.282
					c-4.466-1.991-9.044-3.697-13.737-5.117c-8.188-2.478-16.824-4.093-25.911-4.842l-2.376-0.196v46.135
					c24.245,6.783,42.051,15.909,53.558,27.387c11.452,11.423,17.157,25.659,17.157,42.75c0,18.482-6.308,33.281-18.974,44.443
					c-12.734,11.221-30.586,17.532-53.673,18.898v17.78c0,4.722-3.764,8.4-8.416,8.215l-0.149-0.006
					c-4.661-0.185-8.446-4.177-8.446-8.916v-17.539l-3.747-0.169c-10.823-0.489-21.19-1.592-31.094-3.315
					c-7.335-1.276-14.499-2.923-21.488-4.942c-4.227-1.221-7.128-5.248-6.741-9.574l2.328-25.967
					c0.503-5.614,6.142-8.88,11.48-6.775c6.222,2.454,12.522,4.522,18.898,6.203c9.937,2.621,20.009,4.301,30.214,5.048l0.15-51.319
					c-23.273-5.758-40.697-14.288-52.144-25.586c-11.501-11.351-17.272-25.878-17.272-43.54c0-18.278,6.258-32.387,18.725-42.289
					c12.404-9.852,30.038-14.753,52.787-14.741v-16.469C2949.37,1629.57,2953.152,1626.09,2957.809,1626.532z M2949.37,1688.116
					c-7.192,0.523-12.801,2.499-16.816,5.929c-4.021,3.436-6.034,8.053-6.034,13.849c0,5.49,1.862,10.079,5.582,13.763
					c3.714,3.678,9.475,6.615,17.268,8.809V1688.116z M2964.286,1781.044v47.062c7.819,0.015,13.814-1.852,18-5.595
					c4.178-3.737,6.265-9.016,6.265-15.842c0-6.223-1.939-11.384-5.822-15.489
					C2978.84,1787.069,2972.698,1783.691,2964.286,1781.044z"/>
			</g>
			
				<linearGradient id="SVGID_00000047775975877037096330000016077276984628695444_" gradientUnits="userSpaceOnUse" x1="2881.2869" y1="1717.7422" x2="3025.8284" y2="2024.5762">
				<stop  offset="0" style="stop-color:#FCB148"/>
				<stop  offset="0.0521" style="stop-color:#FDBA46"/>
				<stop  offset="0.1424" style="stop-color:#FFC244"/>
				<stop  offset="0.3183" style="stop-color:#FFC444"/>
				<stop  offset="0.4849" style="stop-color:#FDB946"/>
				<stop  offset="0.7754" style="stop-color:#F99C4D"/>
				<stop  offset="0.8658" style="stop-color:#F8924F"/>
				<stop  offset="1" style="stop-color:#F8924F"/>
			</linearGradient>
			<path style="opacity:0.3;fill:url(#SVGID_00000047775975877037096330000016077276984628695444_);" d="M2930.498,1792.4
				c5.266-52.01,53.065-74.028,46.827-121.869c-3.844-29.486-26.194-54.336-51.125-73.739
				c-75.62,7.93-134.094,70.546-134.094,152.442c0,93.523,75.985,171.889,166.596,174.931c8.798,0.295,17.39-0.162,25.745-1.257
				C2948.462,1887.1,2925.974,1837.083,2930.498,1792.4z"/>
		</g>
		<g>
			
				<linearGradient id="SVGID_00000122000155391127059900000010842218471769887161_" gradientUnits="userSpaceOnUse" x1="1316.4551" y1="3008.4053" x2="1338.9093" y2="3294.1848" gradientTransform="matrix(-1 -0.0024 -0.0024 1 2583.2612 3.3687)">
				<stop  offset="0" style="stop-color:#311944"/>
				<stop  offset="1" style="stop-color:#A03976"/>
			</linearGradient>
			<path style="fill:url(#SVGID_00000122000155391127059900000010842218471769887161_);" d="M1215.452,3151.034
				c0,0,90.287,41.297,91.747,47.858c1.461,6.561-58.122-2.338-82.456-1.451c-24.334,0.888-44.333-6.352-42.107-16.653
				c2.23-10.301,10.809-36.202,10.809-36.202L1215.452,3151.034z"/>
			
				<linearGradient id="SVGID_00000030446427889359329690000016221203633149683843_" gradientUnits="userSpaceOnUse" x1="1374.422" y1="3167.5083" x2="1370.3397" y2="2871.5313" gradientTransform="matrix(-1 -0.0024 -0.0024 1 2583.2612 3.3687)">
				<stop  offset="0" style="stop-color:#FFC444"/>
				<stop  offset="0.9964" style="stop-color:#F36F56"/>
			</linearGradient>
			<path style="fill:url(#SVGID_00000030446427889359329690000016221203633149683843_);" d="M1218.839,3117.704l-5.596,40.681
				c0,0-14.321,5.059-23.919-0.986l-3.994-44.643L1218.839,3117.704z"/>
			
				<linearGradient id="SVGID_00000044136390271287337330000005180722094184569504_" gradientUnits="userSpaceOnUse" x1="1740.7805" y1="2975.071" x2="1763.234" y2="3260.8403" gradientTransform="matrix(-1 -0.0024 -0.0024 1 2583.2612 3.3687)">
				<stop  offset="0" style="stop-color:#311944"/>
				<stop  offset="1" style="stop-color:#A03976"/>
			</linearGradient>
			<path style="fill:url(#SVGID_00000044136390271287337330000005180722094184569504_);" d="M793.178,3117.658l-10.554,16.852
				c-2.952,4.713-3.842,10.393-2.446,15.776c3.643,14.044,10.92,41.413,14.105,48.553c4.336,9.726,62.814,15.637,62.814,15.637
				s5.233-7.327-6.89-16.222c-12.122-8.895-19.925-10.307-24.18-23.401c-4.253-13.091-7.024-50.103-7.024-50.103L793.178,3117.658z"
				/>
			
				<linearGradient id="SVGID_00000042728912289423899960000016443517825821070751_" gradientUnits="userSpaceOnUse" x1="1763.2971" y1="3162.1448" x2="1759.2148" y2="2866.1584" gradientTransform="matrix(-1 -0.0024 -0.0024 1 2583.2612 3.3687)">
				<stop  offset="0" style="stop-color:#FFC444"/>
				<stop  offset="0.9964" style="stop-color:#F36F56"/>
			</linearGradient>
			<path style="fill:url(#SVGID_00000042728912289423899960000016443517825821070751_);" d="M837.041,3074.872
				c-3.848,3.053-22.771,60.028-22.771,60.028s-6.1,7.761-17.624-3.742c-11.523-11.504-5.216-5.16-5.216-5.16l2.302-56.077
				L837.041,3074.872z"/>
			
				<linearGradient id="SVGID_00000169539263295772174440000015718578564593550513_" gradientUnits="userSpaceOnUse" x1="1303.7838" y1="2688.03" x2="1522.6228" y2="2688.03" gradientTransform="matrix(-1 -0.0024 -0.0024 1 2583.2612 3.3687)">
				<stop  offset="0" style="stop-color:#444B8C"/>
				<stop  offset="0.9964" style="stop-color:#3E4177"/>
			</linearGradient>
			<path style="fill:url(#SVGID_00000169539263295772174440000015718578564593550513_);" d="M1270.534,2300.234
				c4.477,121.403,4.355,253.292-2.969,394.17c-8.245,158.64-24.401,305.244-44.637,438.127c-7.405,0.218-15.185,0.238-23.311-0.009
				c-5.488-0.165-10.805-0.446-15.944-0.813c-10.269-27.589-22.399-63.866-33.234-107.188
				c-11.391-45.554-18.232-86.407-23.081-125.469c-17.075-137.536,3.352-149.482-10.529-251.412
				c-12.293-90.275-30.075-93.841-50.653-222.018c-22.325-139.076-5.407-159.893,2.815-167.407
				C1103.989,2226.224,1185.968,2248.257,1270.534,2300.234z"/>
			
				<linearGradient id="SVGID_00000091004170697696667010000006079724845784123048_" gradientUnits="userSpaceOnUse" x1="1303.7832" y1="2688.0393" x2="1522.6213" y2="2688.0393" gradientTransform="matrix(-1 -0.0024 -0.0024 1 2583.2612 3.3687)">
				<stop  offset="0" style="stop-color:#444B8C"/>
				<stop  offset="0.9964" style="stop-color:#3E4177"/>
			</linearGradient>
			<path style="opacity:0.3;fill:url(#SVGID_00000091004170697696667010000006079724845784123048_);" d="M1068.99,2258.216
				c33.381-30.514,109.51-11.809,189.852,35.076c-92.795,99.775-103.041,164.621-92.046,206.738
				c12.425,47.601,50.518,61.394,50.248,113.411c-0.333,63.922-58.066,80.717-57.001,148.364
				c0.703,44.73,26.056,44.327,31.909,99.587c6.927,65.384-26.247,87.828-15.636,136.217c4.565,20.817,17.672,48.036,55.12,76.133
				c-2.753,19.854-5.574,39.507-8.511,58.79c-7.402,0.216-15.183,0.239-23.309-0.011c-5.488-0.164-10.807-0.444-15.942-0.812
				c-10.27-27.589-22.4-63.864-33.236-107.187c-11.391-45.555-18.232-86.407-23.081-125.47
				c-17.074-137.535,3.352-149.482-10.529-251.412c-12.293-90.275-30.075-93.843-50.652-222.019
				C1043.851,2286.544,1060.768,2265.729,1068.99,2258.216z"/>
			
				<linearGradient id="SVGID_00000147177867609692425920000006244023018976011676_" gradientUnits="userSpaceOnUse" x1="1364.5378" y1="2666.4578" x2="1805.0856" y2="2666.4578" gradientTransform="matrix(-1 -0.0024 -0.0024 1 2583.2612 3.3687)">
				<stop  offset="0" style="stop-color:#444B8C"/>
				<stop  offset="0.9964" style="stop-color:#3E4177"/>
			</linearGradient>
			<path style="fill:url(#SVGID_00000147177867609692425920000006244023018976011676_);" d="M1213.208,2298.057
				c-79.973,116.417-166.28,261.334-243.569,434.857c-58.408,131.132-100.837,254.282-132.035,364.053
				c-4.19,1.927-14.074,5.77-26.687,4.072c-17.204-2.318-27.492-13.328-30.181-16.4c-12.401-78.774-10.853-145.46-6.464-193.581
				c2.81-30.809,7.776-82.117,27.57-145.423c22.172-70.911,37.307-74.863,66.191-149.873
				c29.979-77.857,22.809-97.321,51.573-194.775c11.817-40.035,31.58-99.605,64.125-170.842
				C1060.225,2252.781,1136.717,2275.42,1213.208,2298.057z"/>
			
				<linearGradient id="SVGID_00000110458962337919827550000000972055300232455302_" gradientUnits="userSpaceOnUse" x1="1107.1373" y1="3603.0461" x2="1107.1373" y2="1951.2894">
				<stop  offset="0" style="stop-color:#FCB148"/>
				<stop  offset="0.0521" style="stop-color:#FDBA46"/>
				<stop  offset="0.1424" style="stop-color:#FFC244"/>
				<stop  offset="0.3183" style="stop-color:#FFC444"/>
				<stop  offset="0.4849" style="stop-color:#FDB946"/>
				<stop  offset="0.7754" style="stop-color:#F99C4D"/>
				<stop  offset="0.8658" style="stop-color:#F8924F"/>
				<stop  offset="1" style="stop-color:#F8924F"/>
			</linearGradient>
			<path style="fill:url(#SVGID_00000110458962337919827550000000972055300232455302_);" d="M1467.508,2142.648
				c-9.098,5.208-19.266,10.025-30.646,14.376c-79.591,30.361-164.355-4.459-213.908-68.709c-1.07-1.32-2.069-2.676-3.033-4.032
				c-0.606-0.784-1.177-1.604-1.747-2.39c-0.82-1.141-1.606-2.284-2.392-3.425c-9.488-13.807-20.013-30.61-22.546-29.289
				c-0.178,0.072-0.803,0.286-0.875,0.606c-0.035,0.072-0.552,0.179-0.552,0.286v0.037c0,9.88,48.893,93.04,70.725,187.044
				c11.668,50.374,8.894,73.954,30.725,107.489c4.959,7.6,11.189,15.519,9.048,24.509c-5.386,22.511-56.801,28.363-92.511,32.428
				c-37.673,4.247-72.816,3.853-107.564,3.355c-55.617-0.821-59.989-3.71-72.689,2.533c-38.708,18.979-36.059,64.464-65.205,70.565
				c-24.438,5.066-49.263-22.226-57.113-30.894c-40.884-44.988-38.706-99.249-45.947-153.975
				c-16.874-127.253-85.976-266.672-153.616-354.933c-20.513-26.756-34.783-40.812-35.675-65.713
				c-2.604-72.991,113.091-153.618,209.378-162.857c26.399-2.569,73.669-1.749,118.014,2.427c17.695,1.676,36.567,4.137,56.831,7.67
				c49.16,8.597,83.372,14.591,118.226,30.538c140.631,64.321,75.061,150.728,227.251,249.761
				c52.335,34.034,138.17-73.098,137.349-43.417C1538.358,1982.573,1566.898,2085.745,1467.508,2142.648z"/>
			
				<linearGradient id="SVGID_00000029005826359820485430000004862401439479456912_" gradientUnits="userSpaceOnUse" x1="829.0072" y1="1774.2371" x2="782.2562" y2="2186.6453" gradientTransform="matrix(-1 0 0 1 1788.4608 0)">
				<stop  offset="0" style="stop-color:#FFC444"/>
				<stop  offset="0.9964" style="stop-color:#F36F56"/>
			</linearGradient>
			<path style="fill:url(#SVGID_00000029005826359820485430000004862401439479456912_);" d="M961.917,1633.892
				c0,0-6.039,33.704-19.941,57.697c-12.565,21.684-64.512,29.457-75.335,33.231c-10.823,3.773,16.327,22.622,45.201,29.455
				c28.871,6.835,113.327,11.303,129.867,2.213c16.541-9.089-10.742-11.869-30.609-22.314
				c-19.868-10.445-26.513-52.903-20.361-70.953C996.892,1645.169,961.917,1633.892,961.917,1633.892z"/>
			<g>
				
					<linearGradient id="SVGID_00000073692779892780802530000008367184108900418694_" gradientUnits="userSpaceOnUse" x1="2704.1748" y1="2537.7202" x2="2629.0889" y2="2347.0156" gradientTransform="matrix(-0.9989 0.0475 0.0475 0.9989 3514.4583 -907.3022)">
					<stop  offset="0" style="stop-color:#444B8C"/>
					<stop  offset="0.9964" style="stop-color:#3E4177"/>
				</linearGradient>
				<path style="fill:url(#SVGID_00000073692779892780802530000008367184108900418694_);" d="M1016.808,1624.137
					c20.952-14.974,26.754-55.467,15.118-64.557c-3.327-2.598-6.504-1.405-53.788,17.562c-23.481,9.421-35.031,14.436-38.834,24.806
					c-2.323,6.33-1.947,14.882,0.618,21.62c1.322,3.467,3.895,7.784,9.618,16.022c5.08,7.311,4.737,7.063,6.295,9.188
					c3.741,5.104,10.957,13.697,24.178,23.659c0.736-3.727,1.897-8.352,3.845-13.395c0.749-1.941,3.769-9.526,8.559-15.916
					C1000.659,1632.128,1010.008,1628.998,1016.808,1624.137z"/>
				
					<linearGradient id="SVGID_00000005956671220448161570000012997068356760997784_" gradientUnits="userSpaceOnUse" x1="799.8914" y1="1612.438" x2="836.624" y2="1916.3171" gradientTransform="matrix(-1 0 0 1 1788.4608 0)">
					<stop  offset="0" style="stop-color:#FFC444"/>
					<stop  offset="0.9964" style="stop-color:#F36F56"/>
				</linearGradient>
				<path style="fill:url(#SVGID_00000005956671220448161570000012997068356760997784_);" d="M963.111,1662.648
					c0,0,13.709,20.422,39.1,17.651c22.735-2.482,23.837-53.756,8.799-63.97c-5.016-3.408-14.812-4.483-22.628-1.921
					c-4.616,1.514-6.112,3.527-13.702,5.852c-7,2.147-9.036,1.448-11.095,3.342c-2.576,2.367-4.292,7.969,0.827,22.722
					c-4.543-4.215-9.839-5.676-13.461-3.768c-0.577,0.304-2.097,1.438-2.906,3.09
					C945.115,1651.627,950.773,1658.851,963.111,1662.648z"/>
			</g>
			
				<linearGradient id="SVGID_00000145745067286716627710000000669121133647297955_" gradientUnits="userSpaceOnUse" x1="1169.9041" y1="2076.4194" x2="1467.5078" y2="2076.4194">
				<stop  offset="0" style="stop-color:#FFC444"/>
				<stop  offset="0.9964" style="stop-color:#F36F56"/>
			</linearGradient>
			<path style="opacity:0.3;fill:url(#SVGID_00000145745067286716627710000000669121133647297955_);" d="M1467.508,2142.648
				c-9.098,5.208-19.266,10.025-30.646,14.376c-79.591,30.361-164.355-4.459-213.908-68.709c-1.07-1.32-2.069-2.676-3.033-4.032
				c-0.606-0.784-1.177-1.604-1.747-2.39c-0.82-1.141-1.606-2.284-2.392-3.425c-9.488-13.807-20.013-30.61-22.546-29.289
				c-0.178,0.072-0.286,0.286-0.357,0.606c0,0.072-0.035,0.179-0.035,0.286c-7.635-11.986-15.305-23.938-22.94-35.924
				c8.278-14.378,19.978-29.04,34.32-29.432c30.43-0.749,38.279,63.395,90.615,105.562c31.43,25.33,56.725,24.866,120.297,39.171
				C1430.441,2132.908,1447.956,2137.188,1467.508,2142.648z"/>
			
				<linearGradient id="SVGID_00000060009631094488629200000005240660502342871168_" gradientUnits="userSpaceOnUse" x1="713.5519" y1="3603.0479" x2="713.5519" y2="1951.2898">
				<stop  offset="0" style="stop-color:#FCB148"/>
				<stop  offset="0.0521" style="stop-color:#FDBA46"/>
				<stop  offset="0.1424" style="stop-color:#FFC244"/>
				<stop  offset="0.3183" style="stop-color:#FFC444"/>
				<stop  offset="0.4849" style="stop-color:#FDB946"/>
				<stop  offset="0.7754" style="stop-color:#F99C4D"/>
				<stop  offset="0.8658" style="stop-color:#F8924F"/>
				<stop  offset="1" style="stop-color:#F8924F"/>
			</linearGradient>
			<path style="fill:url(#SVGID_00000060009631094488629200000005240660502342871168_);" d="M746.311,2373.765
				c-38.501,3.435-125.167,5.002-186.463-51.706c-102.045-94.402-51.422-274.095-15.901-351.376
				c40.724-88.606,105.542-138.201,144.933-168.342c48.87-37.394,78.699-60.217,114.585-55.106
				c92.811,13.217,157.088,203.436,106.138,257.897c-16.68,17.828-33.197,7.733-81.469,23.106
				c-15.72,5.007-133.047,42.376-153.475,128.79c-14.297,60.481,22.104,131.3,86.892,178.864
				C756.47,2348.516,751.391,2361.141,746.311,2373.765z"/>
			
				<linearGradient id="SVGID_00000042004096000642121650000003371058699503554222_" gradientUnits="userSpaceOnUse" x1="489.5047" y1="2203.665" x2="1216.6398" y2="2203.665" gradientTransform="matrix(-1 0 0 1 1788.4608 0)">
				<stop  offset="0" style="stop-color:#FFC444"/>
				<stop  offset="0.9964" style="stop-color:#F36F56"/>
			</linearGradient>
			<path style="opacity:0.3;fill:url(#SVGID_00000042004096000642121650000003371058699503554222_);" d="M1177.86,2342.433
				c-43.588-27.546-50.036-55.463-98.845-74.327c-63.408-24.507-93.879,6.623-125.315-18.51
				c-37.412-29.911-4.294-82.022-32.291-172.452c-4.752-15.349-40.844-131.931-123.659-146.784
				c-38.617-6.926-89.623,7.868-109.277,40.594c-15.382,25.61-1.052,44.703-19.754,72.977
				c-18.689,28.256-41.041,21.344-64.864,44.91c-37.828,37.421-43.627,116.328-9.474,160.953
				c15.93,20.814,36.63,29.045,75.581,44.533c23.791,9.459,45.908,15.344,64.955,19.08
				c-47.694-45.777-72.445-104.813-60.255-156.379c12.733-53.866,63.115-88.67,103.073-108.462
				c39.983,75.245,72.661,162.437,83.543,244.579c7.251,54.731,5.067,108.993,45.951,153.999
				c7.865,8.658,32.673,35.968,57.128,30.87c29.121-6.068,26.498-51.573,65.196-70.564c12.699-6.234,17.081-3.343,72.717-2.531
				c34.755,0.508,69.91,0.923,107.61-3.358c31.756-3.606,75.902-8.659,89.078-25.559
				C1241.627,2374.441,1203.366,2358.551,1177.86,2342.433z"/>
			<g>
				
					<linearGradient id="SVGID_00000161593034234669609610000018176981755090675899_" gradientUnits="userSpaceOnUse" x1="704.3172" y1="2174.6619" x2="1544.1014" y2="2174.6619">
					<stop  offset="0" style="stop-color:#444B8C"/>
					<stop  offset="0.9964" style="stop-color:#26264F"/>
				</linearGradient>
				<path style="fill:url(#SVGID_00000161593034234669609610000018176981755090675899_);" d="M1544.101,1945.042l-766.838,524.96
					c-18.55,12.772-44.2,8.633-57.258-9.276l-8.205-11.237c-13.092-17.944-8.563-42.882,10.131-55.617l15.34-10.417l624.138-424.32
					l128.288-87.226L1544.101,1945.042z"/>
				
					<linearGradient id="SVGID_00000083783448637200739360000012786831404229571748_" gradientUnits="userSpaceOnUse" x1="-878.6196" y1="2046.3921" x2="52.7621" y2="2046.3921" gradientTransform="matrix(-0.9545 0.2981 0.2981 0.9545 866.5116 -199.1048)">
					<stop  offset="0" style="stop-color:#444B8C"/>
					<stop  offset="0.9964" style="stop-color:#26264F"/>
				</linearGradient>
				<path style="fill:url(#SVGID_00000083783448637200739360000012786831404229571748_);" d="M2136.771,2031.264
					c-208.53,147.655-498.232,93.821-646.852-127.265c-152.194-226.403-94.977-534.869,127.419-681.546
					c218.388-144.034,507.073-72.388,645.39,152.901C2397.9,1595.518,2341.698,1886.159,2136.771,2031.264z M2096.768,1968.973
					c173.206-121.983,220.479-367.211,105.885-552.525c-116.834-188.939-359.35-247.895-542.071-126.66
					c-185.524,123.094-233.514,380.891-106.918,570.605C1677.765,2046.369,1920.999,2092.762,2096.768,1968.973z"/>
				<path style="opacity:0.6;fill:#D8DEE8;" d="M1544.101,1945.042l-766.838,524.96c-18.55,12.772-44.2,8.633-57.258-9.276
					l-8.205-11.237c-13.092-17.944-8.563-42.882,10.131-55.617l15.305-10.453l0.035,0.037
					c37.673,37.851,62.539,43.202,79.199,38.992c39.029-9.882,27.471-70.387,86.655-118.512
					c58.544-47.592,105.813-17.731,172.204-70.673c40.169-32.036,25.828-45.343,66.642-86.012
					c81.339-81.055,165.71-55.619,204.381-115.161c10.168-15.662,17.98-38.457,15.056-72.955l128.288-87.226L1544.101,1945.042z"/>
				
					<linearGradient id="SVGID_00000119104586399374289340000001313863136140073625_" gradientUnits="userSpaceOnUse" x1="-4932.3032" y1="2584.7368" x2="-5401.2778" y2="2059.6458" gradientTransform="matrix(0.9776 0.2103 -0.2103 0.9776 7512.1211 603.6762)">
					<stop  offset="0" style="stop-color:#444B8C"/>
					<stop  offset="0.9964" style="stop-color:#26264F"/>
				</linearGradient>
				<path style="fill:url(#SVGID_00000119104586399374289340000001313863136140073625_);" d="M2159.01,2047.344
					c-208.53,147.656-498.232,93.822-646.853-127.265c-152.193-226.402-94.977-534.868,127.42-681.546
					c218.389-144.034,507.073-72.387,645.39,152.901C2420.138,1611.599,2363.936,1902.24,2159.01,2047.344z M2119.006,1985.053
					c173.206-121.983,220.479-367.21,105.886-552.525c-116.835-188.939-359.35-247.895-542.072-126.66
					c-185.524,123.094-233.514,380.891-106.918,570.605C1700.004,2062.449,1943.236,2108.842,2119.006,1985.053z"/>
				
					<linearGradient id="SVGID_00000148654090049098945900000007061142315210555298_" gradientUnits="userSpaceOnUse" x1="-5621.7002" y1="1818.0736" x2="-4985.6543" y2="2518.2585" gradientTransform="matrix(0.9776 0.2103 -0.2103 0.9776 7512.1211 603.6762)">
					<stop  offset="0" style="stop-color:#444B8C"/>
					<stop  offset="0.9964" style="stop-color:#26264F"/>
				</linearGradient>
				<path style="fill:url(#SVGID_00000148654090049098945900000007061142315210555298_);" d="M2144.892,2025.362
					c-196.971,139.206-470.236,87.953-610.152-120.729c-143.086-213.409-89.135-503.899,120.164-642.232
					c205.744-135.984,478.103-68.878,608.851,143.544C2391.695,1613.801,2338.647,1888.429,2144.892,2025.362z M2119.006,1985.053
					c173.206-121.983,220.479-367.21,105.886-552.525c-116.835-188.939-359.35-247.895-542.072-126.66
					c-185.524,123.094-233.514,380.891-106.918,570.605C1700.004,2062.449,1943.236,2108.842,2119.006,1985.053z"/>
			</g>
			
				<linearGradient id="SVGID_00000082349955039849185450000002498871298191763126_" gradientUnits="userSpaceOnUse" x1="762.8743" y1="2279.6394" x2="937.6824" y2="2811.1992">
				<stop  offset="0" style="stop-color:#FFC444"/>
				<stop  offset="0.9964" style="stop-color:#F36F56"/>
			</linearGradient>
			<path style="fill:url(#SVGID_00000082349955039849185450000002498871298191763126_);" d="M749.58,2365.643l8.574-21.311
				c0,0,13.998,0.853,25.484-7.384c6.259-4.488,17.367-5.825,20.595-4.929c3.228,0.895,15.42,0.362,1.523,6.993
				c-13.895,6.629-13.786,11.554-7.994,16.996c5.792,5.441,27.833,17.146,35.766,17.709c7.934,0.564-6.411,12.834-14.411,14.402
				c-8.002,1.565-21.121,3.547-37.352-6.009C775.844,2378.625,749.58,2365.643,749.58,2365.643z"/>
			
				<linearGradient id="SVGID_00000096773243298720856050000014079184379588310915_" gradientUnits="userSpaceOnUse" x1="-1930.4253" y1="4834.0435" x2="-2170.2136" y2="5320.2817" gradientTransform="matrix(-0.1745 0.9847 0.9847 0.1745 -3639.8972 3052.126)">
				<stop  offset="0" style="stop-color:#FFC444"/>
				<stop  offset="0.9964" style="stop-color:#F36F56"/>
			</linearGradient>
			<path style="fill:url(#SVGID_00000096773243298720856050000014079184379588310915_);" d="M1456.901,2004.109
				c21.106-14.534,24.387-46.125,55.409-48.349c0,0,25.813-6.236,12.771,22.338S1448.986,2028.444,1456.901,2004.109z"/>
		</g>
		<g>
			
				<linearGradient id="SVGID_00000099659723239074199570000008271515779143623573_" gradientUnits="userSpaceOnUse" x1="2924.3091" y1="1283.6821" x2="2640.281" y2="1374.8353">
				<stop  offset="0" style="stop-color:#FCB148"/>
				<stop  offset="0.0521" style="stop-color:#FDBA46"/>
				<stop  offset="0.1424" style="stop-color:#FFC244"/>
				<stop  offset="0.3183" style="stop-color:#FFC444"/>
				<stop  offset="0.4849" style="stop-color:#FDB946"/>
				<stop  offset="0.7754" style="stop-color:#F99C4D"/>
				<stop  offset="0.8658" style="stop-color:#F8924F"/>
				<stop  offset="1" style="stop-color:#F8924F"/>
			</linearGradient>
			<path style="fill:url(#SVGID_00000099659723239074199570000008271515779143623573_);" d="M3251.286,1273.376
				c0,131.764-103.031,235.416-234.718,231.372c-137.046-4.208-252.307-122.568-252.307-264.206
				c0-141.638,115.26-244.457,252.307-230.187C3148.254,1024.068,3251.286,1141.612,3251.286,1273.376z"/>
			
				<linearGradient id="SVGID_00000159456523594036637230000012420654151352839810_" gradientUnits="userSpaceOnUse" x1="3154.0715" y1="1000.9606" x2="2900.5085" y2="1560.3676">
				<stop  offset="0" style="stop-color:#FFDB44"/>
				<stop  offset="1" style="stop-color:#FEEF06"/>
			</linearGradient>
			<path style="fill:url(#SVGID_00000159456523594036637230000012420654151352839810_);" d="M3286.87,1262.015
				c0,131.764-103.031,235.416-234.718,231.373c-137.046-4.208-252.306-122.568-252.306-264.206
				c0-141.638,115.26-244.457,252.306-230.187C3183.839,1012.706,3286.87,1130.251,3286.87,1262.015z"/>
			
				<linearGradient id="SVGID_00000087411997225614320320000006719820959772662667_" gradientUnits="userSpaceOnUse" x1="3107.4285" y1="1591.6328" x2="3058.5029" y2="1324.3547">
				<stop  offset="0" style="stop-color:#FCB148"/>
				<stop  offset="0.0521" style="stop-color:#FDBA46"/>
				<stop  offset="0.1424" style="stop-color:#FFC244"/>
				<stop  offset="0.3183" style="stop-color:#FFC444"/>
				<stop  offset="0.4849" style="stop-color:#FDB946"/>
				<stop  offset="0.7754" style="stop-color:#F99C4D"/>
				<stop  offset="0.8658" style="stop-color:#F8924F"/>
				<stop  offset="1" style="stop-color:#F8924F"/>
			</linearGradient>
			<path style="fill:url(#SVGID_00000087411997225614320320000006719820959772662667_);" d="M3276.534,1261.318
				c0,125.962-98.582,224.882-224.382,220.808c-130.682-4.231-240.403-117.187-240.403-252.143
				c0-134.956,109.721-233.117,240.403-219.729C3177.952,1023.144,3276.534,1135.356,3276.534,1261.318z"/>
			
				<linearGradient id="SVGID_00000017507584053486528710000000229545374768676752_" gradientUnits="userSpaceOnUse" x1="3003.697" y1="1159.0138" x2="3205.3254" y2="1587.0323">
				<stop  offset="0" style="stop-color:#FCB148"/>
				<stop  offset="0.0521" style="stop-color:#FDBA46"/>
				<stop  offset="0.1424" style="stop-color:#FFC244"/>
				<stop  offset="0.3183" style="stop-color:#FFC444"/>
				<stop  offset="0.4849" style="stop-color:#FDB946"/>
				<stop  offset="0.7754" style="stop-color:#F99C4D"/>
				<stop  offset="0.8658" style="stop-color:#F8924F"/>
				<stop  offset="1" style="stop-color:#F8924F"/>
			</linearGradient>
			<path style="fill:url(#SVGID_00000017507584053486528710000000229545374768676752_);" d="M3269.131,1260.819
				c0,121.806-95.391,217.347-216.979,213.264c-126.143-4.235-231.925-113.332-231.925-243.528s105.782-225.03,231.925-212.257
				C3173.74,1030.61,3269.131,1139.013,3269.131,1260.819z"/>
			<g>
				
					<linearGradient id="SVGID_00000058584124672789079960000010906829795990079162_" gradientUnits="userSpaceOnUse" x1="2995.6641" y1="1066.9097" x2="3097.0498" y2="1446.8855">
					<stop  offset="0" style="stop-color:#FFDB44"/>
					<stop  offset="1" style="stop-color:#FEEF06"/>
				</linearGradient>
				<path style="fill:url(#SVGID_00000058584124672789079960000010906829795990079162_);" d="M3050.907,1059.737L3050.907,1059.737
					c6.471,0.615,11.707,6.44,11.707,13.011v22.427c12.938,1.444,25.894,3.693,38.868,6.743c9.566,2.248,19.069,4.925,28.507,8.028
					c5.655,1.859,9.509,7.569,8.932,13.458l-2.754,28.123c-0.731,7.461-8.106,11.843-15.05,8.746
					c-6.217-2.772-12.591-5.147-19.124-7.124c-11.399-3.449-23.421-5.698-36.071-6.741l-3.308-0.273v64.226
					c33.753,9.443,58.541,22.147,74.56,38.126c15.942,15.902,23.885,35.721,23.885,59.514c0,25.73-8.781,46.332-26.414,61.87
					c-17.727,15.621-42.581,24.407-74.72,26.309v24.753c0,6.574-5.241,11.694-11.717,11.437l-0.208-0.008
					c-6.489-0.258-11.758-5.815-11.758-12.412v-24.417l-5.216-0.235c-15.067-0.68-29.499-2.217-43.287-4.615
					c-10.212-1.776-20.184-4.069-29.914-6.88c-5.885-1.7-9.924-7.306-9.384-13.328l3.24-36.15c0.7-7.815,8.551-12.362,15.982-9.431
					c8.662,3.417,17.432,6.295,26.309,8.636c13.834,3.648,27.855,5.988,42.062,7.027l0.208-71.444
					c-32.399-8.017-56.655-19.891-72.592-35.619c-16.011-15.802-24.045-36.025-24.045-60.613c0-25.446,8.711-45.088,26.068-58.873
					c17.269-13.715,41.816-20.538,73.486-20.521v-22.927C3039.159,1063.965,3044.424,1059.12,3050.907,1059.737z M3039.159,1145.469
					c-10.013,0.729-17.821,3.479-23.41,8.254c-5.598,4.783-8.4,11.211-8.4,19.279c0,7.643,2.592,14.032,7.771,19.16
					c5.171,5.12,13.19,9.209,24.039,12.264V1145.469z M3059.925,1274.838v65.516c10.885,0.021,19.231-2.578,25.058-7.789
					c5.817-5.203,8.721-12.552,8.721-22.054c0-8.664-2.699-15.849-8.104-21.563
					C3080.185,1283.225,3071.635,1278.523,3059.925,1274.838z"/>
			</g>
			
				<linearGradient id="SVGID_00000161623390347471147540000003408260638788412559_" gradientUnits="userSpaceOnUse" x1="2944.3784" y1="1186.713" x2="3145.6003" y2="1613.8684">
				<stop  offset="0" style="stop-color:#FCB148"/>
				<stop  offset="0.0521" style="stop-color:#FDBA46"/>
				<stop  offset="0.1424" style="stop-color:#FFC244"/>
				<stop  offset="0.3183" style="stop-color:#FFC444"/>
				<stop  offset="0.4849" style="stop-color:#FDB946"/>
				<stop  offset="0.7754" style="stop-color:#F99C4D"/>
				<stop  offset="0.8658" style="stop-color:#F8924F"/>
				<stop  offset="1" style="stop-color:#F8924F"/>
			</linearGradient>
			<path style="opacity:0.3;fill:url(#SVGID_00000161623390347471147540000003408260638788412559_);" d="M3012.887,1290.647
				c7.331-72.405,73.874-103.057,65.19-169.658c-5.352-41.049-36.465-75.643-71.173-102.654
				c-105.273,11.04-186.678,98.209-186.678,212.221c0,130.197,105.782,239.293,231.925,243.528
				c12.248,0.411,24.21-0.226,35.841-1.75C3037.896,1422.483,3006.589,1352.852,3012.887,1290.647z"/>
		</g>
	</g>
</g>
</svg>
