<?xml version="1.0" encoding="utf-8"?>
<!-- Generator: Adobe Illustrator 27.5.0, SVG Export Plug-In . SVG Version: 6.00 Build 0)  -->
<svg version="1.1" xmlns="http://www.w3.org/2000/svg" xmlns:xlink="http://www.w3.org/1999/xlink" x="0px" y="0px"
	 viewBox="0 0 3710 3710" style="enable-background:new 0 0 3710 3710;" xml:space="preserve">
<g id="Background">
	<g>
		<g>
			<rect style="fill:#FFFFFF;" width="3710" height="3710"/>
		</g>
	</g>
</g>
<g id="Illustration">
	<g>
		<path style="fill:#F4F7FA;" d="M3183.401,2308.444c-204.337,231.865-545.401,209-544.646,318.3
			c0.834,120.691,416.641,141.038,424.4,254.64c10.513,153.924-730.086,449.967-1503.249,328.75
			c-266.369-41.762-518.565-82.108-736.127-278.667c-596.219-538.661-159.571-1678.929-88.406-1867.663
			c140.65-373.012,314.832-493.274,368.73-530.764c280.427-195.056,603.101-163.009,891.239-134.393
			c218.18,21.668,544.919,58.533,843.182,304.472c50.865,41.942,163.054,141.609,264.164,299.724
			C3348.336,1386.99,3456.9,1998.099,3183.401,2308.444z"/>
		<g>
			
				<linearGradient id="SVGID_1_" gradientUnits="userSpaceOnUse" x1="384.753" y1="1232.359" x2="1634.6133" y2="1232.359" gradientTransform="matrix(0.9992 0.0392 -0.0392 0.9992 103.0718 -75.471)">
				<stop  offset="0.0036" style="stop-color:#E38DDD"/>
				<stop  offset="1" style="stop-color:#9571F6"/>
			</linearGradient>
			<path style="fill:url(#SVGID_1_);" d="M1408.525,2023.277c49.137-14.884,131.858-39.942,192.012-116.016
				c109.36-138.307,73.136-355.457-3.099-493.672c-65.482-118.721-186.832-195.954-429.534-350.424
				C939.328,917.683,861.244,900.877,841.843,812.209c-27.658-126.406,103.057-220.144,48.681-362.77
				c-6.525-17.115-28.937-75.897-82.58-98.091c-91.828-37.993-210.731,57.897-266.421,128.681
				c-53.718,68.277-111.651,193.305-68.454,294.531c31.297,73.34,89.092,71.882,101.217,139.311
				c12.2,67.843-42.626,89.783-68.193,201.353c-10.214,44.573-30.715,134.043,8.59,211.128
				c50.823,99.672,155.63,88.411,174.569,171.256c13.684,59.858-36.559,85.308-35.569,154.59
				c1.304,91.207,89.97,158.231,164.5,213.019C905.946,1929.734,1142.72,2103.792,1408.525,2023.277z"/>
			<path style="opacity:0.16;fill:#FFFFFF;" d="M772.702,390.014c48.813,36.277-100.274,186.328-65.934,391.595
				c36.948,220.856,263.703,370.897,368.495,440.235c178.79,118.303,257.144,96.866,370.51,227.415
				c44.868,51.668,138.343,159.31,122.987,304.142c-1.426,13.456-19.57,163.235-137.621,230.689
				c-133.902,76.513-294.534-11.066-432.944-86.525c-83.634-45.598-250.706-136.684-235.482-230.556
				c9.306-57.385,84.593-102.598,145.714-114.44c87.236-16.905,157.563,31.852,165.856,17.04
				c7.469-13.339-42.403-65.729-111.798-105.56c-138.805-79.669-213.81-27.637-316.445-100.931
				c-12.441-8.883-109.99-80.707-108.664-185.539c0.764-60.462,34.44-133.477,83.645-144.273
				c55.65-12.211,107.146,60.432,120.339,48.981c12.615-10.948-26.803-84.018-76.309-150.544
				c-72.741-97.749-106.648-99.921-132.805-161.187c-39.907-93.474-3.785-188.683,1.603-202.295
				C584.345,440.708,730.968,358.999,772.702,390.014z"/>
		</g>
		<g>
			
				<linearGradient id="SVGID_00000174578785318358303940000000733900147683285382_" gradientUnits="userSpaceOnUse" x1="1574.0698" y1="1522.9813" x2="1337.2395" y2="2790.3442" gradientTransform="matrix(0.9992 0.0394 -0.0394 0.9992 -244.3436 -565.8916)">
				<stop  offset="0.0036" style="stop-color:#E38DDD"/>
				<stop  offset="1" style="stop-color:#9571F6"/>
			</linearGradient>
			<path style="fill:url(#SVGID_00000174578785318358303940000000733900147683285382_);" d="M1206.844,1685.217
				c24.679,31.159,221.131,6.518,334.27-91.612c22.676-19.669,63.593-55.157,74.461-108.594
				c13.264-65.217-33.278-83.173-24.742-153.187c7.832-64.24,48.755-63.415,60.767-142.605
				c4.503-29.688,13.648-89.975-31.278-123.216c-26.076-19.292-48.034-12.952-59.972-30.185
				c-21.372-30.853,43.018-59.813,46.506-122.459c1.888-33.904-15.895-59.944-51.459-112.022
				c-32.38-47.416-50.627-74.133-85.438-81.533c-51.067-10.853-80.529,32.038-114.82,21.148
				c-55.466-17.612-0.558-136.878-80.441-195.643c-50.931-37.468-130.082-30.796-144.208-29.366
				c-152.172,15.385-289.699,183.573-248.341,304.782c32.607,95.56,164.36,126.638,155.254,222.27
				c-3.162,33.211-20.882,48.681-14.729,91.441c7.935,55.154,46.881,95.198,67.701,116.093
				c78.897,79.174,153.737,77.341,164.517,128.475c6.797,32.24-22.048,37.256-20.964,88.885c0.992,47.171,25.351,56.23,27.59,95.422
				C1265.545,1633.816,1190.101,1664.076,1206.844,1685.217z"/>
			<path style="opacity:0.16;fill:#FFFFFF;" d="M1026.298,590.198c-54.316,12.687-91.888,78.584-101.381,128.679
				c-13.583,71.686,22.149,154.207,82.151,195.845c93.317,64.759,202.246,0.726,241.56,60.895
				c20.738,31.74,13.414,84.74-12.848,108.634c-46.178,42.018-136.938-18.656-163.233,14.959
				c-18.807,24.042,2.802,86.803,44.337,123.732c83.005,73.797,219.944,21.609,234.981,64.914
				c3.545,10.209-13.943,40.403-48.919,100.791c-26.417,45.609-31.819,50.061-32.529,65.058
				c-2.147,45.36,44.762,57.757,47.317,102.448c2.948,51.555-56.601,85.437-48.75,96.518c8.23,11.62,83.706-11.483,132.785-56.819
				c116.315-107.441,72.244-328.551,56.705-406.51C1395.849,875.143,1164.775,557.852,1026.298,590.198z"/>
		</g>
		<g>
			
				<linearGradient id="SVGID_00000182503513874914161490000011948299686209542806_" gradientUnits="userSpaceOnUse" x1="1098.2637" y1="2095.2463" x2="1480.6398" y2="2055.2966">
				<stop  offset="0.0036" style="stop-color:#26264F"/>
				<stop  offset="1" style="stop-color:#444B8C"/>
			</linearGradient>
			<path style="fill:url(#SVGID_00000182503513874914161490000011948299686209542806_);" d="M940.704,2890.218
				c-45.68,2.669-83.021-29.263-83.021-71.193V1307.761c0-41.93,37.341-74.689,83.021-73.031l2156.216,78.243
				c34.935,1.268,63.24,31.936,63.24,68.368v1313.13c0,36.433-28.305,67.728-63.24,69.769L940.704,2890.218z"/>
			
				<linearGradient id="SVGID_00000145764662790642856000000008407891059926316674_" gradientUnits="userSpaceOnUse" x1="1913.3717" y1="3263.4224" x2="1994.386" y2="3147.375">
				<stop  offset="0" style="stop-color:#444B8C"/>
				<stop  offset="0.9964" style="stop-color:#26264F"/>
			</linearGradient>
			<path style="fill:url(#SVGID_00000145764662790642856000000008407891059926316674_);" d="M2346.469,3057.49
				c-34.464-11.994-60.223-42.681-67.487-80.399l-50.161-260.471l-429.091,15.987l-52.809,271.353
				c-7.396,38.002,22.21,76.128,56.307,90.125l179.522,73.695c33.39,13.707,69.281,19.166,104.954,15.964l379.395-34.053
				c11.091-0.995,19.987-10.142,21.278-21.876c1.291-11.735,9.062-24.911-1.514-28.591L2346.469,3057.49z"/>
			
				<linearGradient id="SVGID_00000032610511845558848010000002240079367020950964_" gradientUnits="userSpaceOnUse" x1="2158.6147" y1="3233.6741" x2="2034.6245" y2="2560.5859">
				<stop  offset="0" style="stop-color:#444B8C"/>
				<stop  offset="0.9964" style="stop-color:#26264F"/>
			</linearGradient>
			<path style="fill:url(#SVGID_00000032610511845558848010000002240079367020950964_);" d="M2350.715,3041.648
				c-34.429-11.843-60.162-42.145-67.418-79.389l-50.11-257.196l-418.631,15.802l-52.756,267.941
				c-7.388,37.525,12.161,75.155,46.223,88.976l179.342,72.769c33.356,13.534,69.211,18.925,104.849,15.764l379.013-33.625
				c11.079-0.983,19.967-10.015,21.256-21.602c1.29-11.587-5.376-22.524-15.942-26.159L2350.715,3041.648z"/>
			<g>
				<g>
					
						<linearGradient id="SVGID_00000039112228234796372880000007401997720663948160_" gradientUnits="userSpaceOnUse" x1="2464.4805" y1="1375.5707" x2="3084.9648" y2="489.9966">
						<stop  offset="0" style="stop-color:#444B8C"/>
						<stop  offset="0.9964" style="stop-color:#26264F"/>
					</linearGradient>
					<path style="fill:url(#SVGID_00000039112228234796372880000007401997720663948160_);" d="M957.775,2890.218
						c-45.68,2.669-83.021-29.263-83.021-71.193V1307.761c0-41.93,37.341-74.689,83.021-73.031l2156.216,78.243
						c34.935,1.268,63.24,31.936,63.24,68.368v1313.13c0,36.433-28.305,67.728-63.24,69.769L957.775,2890.218z"/>
					
						<linearGradient id="SVGID_00000080199790586254171690000001390153719660483207_" gradientUnits="userSpaceOnUse" x1="2194.9849" y1="1480.7188" x2="1418.8408" y2="3945.8584">
						<stop  offset="0" style="stop-color:#444B8C"/>
						<stop  offset="0.9964" style="stop-color:#26264F"/>
					</linearGradient>
					<path style="fill:url(#SVGID_00000080199790586254171690000001390153719660483207_);" d="M3113.992,1343.858l-2156.216-73.897
						c-24.426-0.837-44.277,16.64-44.277,39.038v1175.793v332.135c0,22.399,19.851,39.436,44.277,38.058l2156.216-121.631
						c18.722-1.056,33.865-17.752,33.865-37.294v-300.095V1380.403C3147.857,1360.861,3132.714,1344.5,3113.992,1343.858z"/>
					
						<linearGradient id="SVGID_00000093879289909506042650000010887331407781133999_" gradientUnits="userSpaceOnUse" x1="2570.8518" y1="1068.9072" x2="733.2327" y2="4111.8481">
						<stop  offset="0" style="stop-color:#FCB148"/>
						<stop  offset="0.0521" style="stop-color:#FDBA46"/>
						<stop  offset="0.1424" style="stop-color:#FFC244"/>
						<stop  offset="0.3183" style="stop-color:#FFC444"/>
						<stop  offset="0.4849" style="stop-color:#FDB946"/>
						<stop  offset="0.7754" style="stop-color:#F99C4D"/>
						<stop  offset="0.8658" style="stop-color:#F8924F"/>
						<stop  offset="1" style="stop-color:#F8924F"/>
					</linearGradient>
					<path style="fill:url(#SVGID_00000093879289909506042650000010887331407781133999_);" d="M957.775,2726.5
						c-9.51,0.467-17.255-6.245-17.255-14.959V1309.863c0-8.713,7.744-15.55,17.255-15.237l2156.216,70.855
						c7.302,0.24,13.237,6.64,13.237,14.264V2606.24c0,7.625-5.936,14.121-13.237,14.479L957.775,2726.5z"/>
				</g>
				<g>
					<polygon style="opacity:0.68;fill:#FFFFFF;" points="3040.561,2545.141 1052.357,2632.455 1052.357,1504.109 
						3040.561,1545.841 					"/>
					<polygon style="opacity:0.68;fill:#FFFFFF;" points="3040.561,1511.703 1052.357,1465.563 1052.357,1369.199 
						3040.561,1426.359 					"/>
					<g>
						
							<linearGradient id="SVGID_00000079465177900898279720000006222756576496879772_" gradientUnits="userSpaceOnUse" x1="2974.1086" y1="1263.0532" x2="2885.4861" y2="1450.7247">
							<stop  offset="0" style="stop-color:#FF9085"/>
							<stop  offset="1" style="stop-color:#FB6FBB"/>
						</linearGradient>
						<path style="fill:url(#SVGID_00000079465177900898279720000006222756576496879772_);" d="M2889.555,1465.109
							c0,6.093-4.799,10.912-10.722,10.762c-5.928-0.15-10.737-5.218-10.737-11.32c0-6.102,4.809-10.921,10.737-10.763
							C2884.757,1453.947,2889.555,1459.015,2889.555,1465.109z"/>
						
							<linearGradient id="SVGID_00000115495400359412228900000008103488483905388709_" gradientUnits="userSpaceOnUse" x1="3009.7141" y1="1282.1088" x2="2921.3823" y2="1469.1646">
							<stop  offset="0" style="stop-color:#FF9085"/>
							<stop  offset="1" style="stop-color:#FB6FBB"/>
						</linearGradient>
						<path style="fill:url(#SVGID_00000115495400359412228900000008103488483905388709_);" d="M2933.558,1466.252
							c0,6.077-4.772,10.882-10.662,10.733c-5.895-0.149-10.677-5.203-10.677-11.288c0-6.085,4.782-10.89,10.677-10.732
							C2928.786,1455.122,2933.558,1460.175,2933.558,1466.252z"/>
						
							<linearGradient id="SVGID_00000042715635554612762280000000377239981283006633_" gradientUnits="userSpaceOnUse" x1="3045.1252" y1="1301.0416" x2="2957.0828" y2="1487.4845">
							<stop  offset="0" style="stop-color:#FF9085"/>
							<stop  offset="1" style="stop-color:#FB6FBB"/>
						</linearGradient>
						<path style="fill:url(#SVGID_00000042715635554612762280000000377239981283006633_);" d="M2977.312,1467.389
							c0,6.059-4.745,10.851-10.601,10.703c-5.861-0.148-10.616-5.187-10.616-11.254c0-6.068,4.755-10.86,10.616-10.703
							C2972.567,1456.29,2977.312,1461.329,2977.312,1467.389z"/>
					</g>
					<g>
						<polygon style="opacity:0.68;fill:#FFFFFF;" points="2638.163,2365.058 1095.723,2413.488 1095.723,1533.42 
							2638.163,1563.269 						"/>
					</g>
					<g>
						<polygon style="fill:#FFFFFF;" points="3019.324,1837.706 2665.138,1836.987 2665.138,1819.698 3019.324,1820.805 						"/>
						<polygon style="fill:#FFFFFF;" points="2887.538,1866.882 2665.138,1866.851 2665.138,1849.562 2887.538,1849.836 						"/>
					</g>
					<g>
						<g>
							<polygon style="opacity:0.68;fill:#FFFFFF;" points="3019.324,2127.471 2665.138,2133.409 2665.138,1902.511 
								3019.324,1901.758 							"/>
						</g>
						<polygon style="fill:#FFFFFF;" points="3019.324,2168.819 2665.138,2175.707 2665.138,2158.418 3019.324,2151.918 						"/>
						<polygon style="fill:#FFFFFF;" points="2887.538,2200.825 2665.138,2205.571 2665.138,2188.281 2887.538,2183.779 						"/>
					</g>
					<g>
						<g>
							<polygon style="opacity:0.68;fill:#FFFFFF;" points="3019.324,2458.585 2665.138,2472.129 2665.138,2241.231 
								3019.324,2232.872 							"/>
						</g>
						<polygon style="fill:#FFFFFF;" points="3019.324,2499.933 2665.138,2514.427 2665.138,2497.137 3019.324,2483.031 						"/>
						<polygon style="fill:#FFFFFF;" points="2887.538,2534.768 2665.138,2544.291 2665.138,2527.002 2887.538,2517.722 						"/>
					</g>
					<g>
						<polygon style="fill:#FFFFFF;" points="2163.137,2473.023 1095.723,2512.642 1095.723,2454.786 2163.137,2418.729 						"/>
						<polygon style="fill:#FFFFFF;" points="2638.163,2455.392 2485.869,2461.044 2485.869,2407.826 2638.163,2402.682 						"/>
						<polygon style="fill:#FFFFFF;" points="2462.344,2461.917 2306.625,2467.697 2306.625,2413.881 2462.344,2408.621 						"/>
						<polygon style="fill:#FFFFFF;" points="1584.067,2562.466 1095.723,2582.56 1095.723,2553.633 1584.067,2534.352 						"/>
					</g>
				</g>
			</g>
		</g>
		<g>
			
				<linearGradient id="SVGID_00000036248893785343273450000000360321748771751821_" gradientUnits="userSpaceOnUse" x1="1841.5577" y1="1313.6532" x2="2414.4971" y2="1377.3131">
				<stop  offset="0" style="stop-color:#893976"/>
				<stop  offset="1" style="stop-color:#311944"/>
			</linearGradient>
			<path style="fill:url(#SVGID_00000036248893785343273450000000360321748771751821_);" d="M2947.023,1065.919
				c0,286.729-374.964,975.189-530.423,1215.202c-26.427,40.801-135.127,33.216-161.554-7.585
				c-155.459-240.013-579.448-920.888-579.448-1207.617c0-351.094,284.618-635.713,635.713-635.713
				S2947.023,714.824,2947.023,1065.919z"/>
			
				<linearGradient id="SVGID_00000138543352561852673950000009099584033422396330_" gradientUnits="userSpaceOnUse" x1="2719.4451" y1="361.519" x2="1582.9191" y2="2727.9795">
				<stop  offset="0" style="stop-color:#FF9085"/>
				<stop  offset="1" style="stop-color:#FB6FBB"/>
			</linearGradient>
			<path style="fill:url(#SVGID_00000138543352561852673950000009099584033422396330_);" d="M3016.037,1065.919
				c0,286.729-423.989,967.604-579.448,1207.617c-26.427,40.801-86.102,40.801-112.529,0
				c-155.46-240.013-579.448-920.888-579.448-1207.617c0-351.094,284.618-635.713,635.713-635.713
				S3016.037,714.824,3016.037,1065.919z"/>
			<circle style="opacity:0.7;fill:#FFFFFF;" cx="2380.325" cy="1007.27" r="350.136"/>
			<circle style="opacity:0.7;fill:#FFFFFF;" cx="2380.325" cy="1007.27" r="329.285"/>
		</g>
		<g>
			
				<linearGradient id="SVGID_00000155856349866125847250000011758839572134545540_" gradientUnits="userSpaceOnUse" x1="3328.0796" y1="3052.9517" x2="3350.6218" y2="3339.8508" gradientTransform="matrix(-1 -0.0024 -0.0024 1 4805.8267 3.3687)">
				<stop  offset="0" style="stop-color:#311944"/>
				<stop  offset="1" style="stop-color:#A03976"/>
			</linearGradient>
			<path style="fill:url(#SVGID_00000155856349866125847250000011758839572134545540_);" d="M1426.113,3191.311
				c0,0,90.641,41.458,92.107,48.045c1.467,6.587-58.349-2.347-82.779-1.457c-24.43,0.892-44.507-6.377-42.272-16.718
				c2.238-10.341,10.851-36.344,10.851-36.344L1426.113,3191.311z"/>
			
				<linearGradient id="SVGID_00000129179650969057523380000013919763730081206409_" gradientUnits="userSpaceOnUse" x1="3386.2737" y1="3212.6782" x2="3382.1755" y2="2915.5408" gradientTransform="matrix(-1 -0.0024 -0.0024 1 4805.8267 3.3687)">
				<stop  offset="0" style="stop-color:#FFC444"/>
				<stop  offset="0.9964" style="stop-color:#F36F56"/>
			</linearGradient>
			<path style="fill:url(#SVGID_00000129179650969057523380000013919763730081206409_);" d="M1429.514,3157.85l-5.618,40.841
				c0,0-14.378,5.079-24.013-0.99l-4.01-44.818L1429.514,3157.85z"/>
			
				<linearGradient id="SVGID_00000047775100442942928790000017349957478192672432_" gradientUnits="userSpaceOnUse" x1="3754.0679" y1="3019.4871" x2="3776.6091" y2="3306.3757" gradientTransform="matrix(-1 -0.0024 -0.0024 1 4805.8267 3.3687)">
				<stop  offset="0" style="stop-color:#311944"/>
				<stop  offset="1" style="stop-color:#A03976"/>
			</linearGradient>
			<path style="fill:url(#SVGID_00000047775100442942928790000017349957478192672432_);" d="M1002.184,3157.804l-10.595,16.917
				c-2.963,4.732-3.857,10.434-2.455,15.838c3.657,14.099,10.963,41.575,14.161,48.743c4.353,9.764,63.06,15.698,63.06,15.698
				s5.253-7.355-6.917-16.285c-12.169-8.93-20.003-10.347-24.275-23.493c-4.27-13.142-7.051-50.3-7.051-50.3L1002.184,3157.804z"/>
			
				<linearGradient id="SVGID_00000036228619248192456000000015503453190995321262_" gradientUnits="userSpaceOnUse" x1="3776.6726" y1="3207.2932" x2="3772.5742" y2="2910.1475" gradientTransform="matrix(-1 -0.0024 -0.0024 1 4805.8267 3.3687)">
				<stop  offset="0" style="stop-color:#FFC444"/>
				<stop  offset="0.9964" style="stop-color:#F36F56"/>
			</linearGradient>
			<path style="fill:url(#SVGID_00000036228619248192456000000015503453190995321262_);" d="M1046.219,3114.85
				c-3.863,3.065-22.86,60.263-22.86,60.263s-6.124,7.792-17.693-3.757c-11.568-11.549-5.236-5.181-5.236-5.181l2.311-56.297
				L1046.219,3114.85z"/>
			
				<linearGradient id="SVGID_00000129912486205232732680000013334063266115750551_" gradientUnits="userSpaceOnUse" x1="3315.3586" y1="2731.3208" x2="3535.0552" y2="2731.3208" gradientTransform="matrix(-1 -0.0024 -0.0024 1 4805.8267 3.3687)">
				<stop  offset="0" style="stop-color:#444B8C"/>
				<stop  offset="0.9964" style="stop-color:#3E4177"/>
			</linearGradient>
			<path style="fill:url(#SVGID_00000129912486205232732680000013334063266115750551_);" d="M1481.411,2337.177
				c4.494,121.879,4.372,254.284-2.981,395.715c-8.277,159.262-24.496,306.44-44.812,439.844
				c-7.434,0.219-15.245,0.239-23.402-0.009c-5.509-0.166-10.847-0.448-16.006-0.815c-10.309-27.697-22.486-64.117-33.365-107.608
				c-11.436-45.732-18.304-86.745-23.172-125.961c-17.142-138.075,3.365-150.069-10.571-252.398
				c-12.341-90.628-30.193-94.209-50.852-222.888c-22.413-139.621-5.428-160.519,2.827-168.063
				C1314.213,2262.876,1396.513,2284.996,1481.411,2337.177z"/>
			
				<linearGradient id="SVGID_00000061453320582608559750000001028123422593001354_" gradientUnits="userSpaceOnUse" x1="3315.3579" y1="2731.3301" x2="3535.0537" y2="2731.3301" gradientTransform="matrix(-1 -0.0024 -0.0024 1 4805.8267 3.3687)">
				<stop  offset="0" style="stop-color:#444B8C"/>
				<stop  offset="0.9964" style="stop-color:#3E4177"/>
			</linearGradient>
			<path style="opacity:0.3;fill:url(#SVGID_00000061453320582608559750000001028123422593001354_);" d="M1279.077,2294.994
				c33.512-30.634,109.94-11.855,190.596,35.214c-93.159,100.167-103.445,165.266-92.407,207.548
				c12.474,47.788,50.716,61.634,50.445,113.855c-0.334,64.173-58.293,81.033-57.224,148.945
				c0.706,44.906,26.158,44.5,32.034,99.977c6.954,65.64-26.35,88.173-15.697,136.751c4.582,20.899,17.741,48.224,55.336,76.431
				c-2.764,19.931-5.596,39.662-8.544,59.02c-7.431,0.217-15.242,0.24-23.4-0.011c-5.509-0.165-10.849-0.446-16.004-0.815
				c-10.311-27.697-22.488-64.115-33.366-107.607c-11.436-45.733-18.304-86.745-23.172-125.962
				c-17.141-138.075,3.365-150.069-10.571-252.398c-12.341-90.628-30.193-94.211-50.851-222.889
				C1253.839,2323.433,1270.823,2302.536,1279.077,2294.994z"/>
			
				<linearGradient id="SVGID_00000015357066387164087710000006938614684017648038_" gradientUnits="userSpaceOnUse" x1="3376.3508" y1="2709.6641" x2="3818.6248" y2="2709.6641" gradientTransform="matrix(-1 -0.0024 -0.0024 1 4805.8267 3.3687)">
				<stop  offset="0" style="stop-color:#444B8C"/>
				<stop  offset="0.9964" style="stop-color:#3E4177"/>
			</linearGradient>
			<path style="fill:url(#SVGID_00000015357066387164087710000006938614684017648038_);" d="M1423.86,2334.991
				c-80.286,116.873-166.932,262.358-244.524,436.561c-58.637,131.646-101.232,255.279-132.552,365.48
				c-4.207,1.934-14.129,5.792-26.792,4.088c-17.272-2.327-27.6-13.38-30.3-16.465c-12.449-79.082-10.895-146.03-6.49-194.34
				c2.822-30.93,7.806-82.438,27.679-145.993c22.259-71.189,37.453-75.156,66.45-150.461
				c30.096-78.162,22.899-97.702,51.776-195.538c11.863-40.192,31.704-99.996,64.376-171.511
				C1270.277,2289.538,1347.069,2312.265,1423.86,2334.991z"/>
			
				<linearGradient id="SVGID_00000172423691665399036930000017238546818816791984_" gradientUnits="userSpaceOnUse" x1="2956.0454" y1="1704.7593" x2="2457.7268" y2="2522.8948" gradientTransform="matrix(-1 0 0 1 4011.0259 0)">
				<stop  offset="0" style="stop-color:#AA80F9"/>
				<stop  offset="0.9964" style="stop-color:#6165D7"/>
			</linearGradient>
			<path style="fill:url(#SVGID_00000172423691665399036930000017238546818816791984_);" d="M1750.003,2170.087
				c-0.76,28.438-47.501,53.487-85.135,61.17c-87.995,17.959-190.014-45.978-238.435-116.706
				c-9.508-13.888-20.073-30.727-22.619-29.423c-5.757,2.948,47.143,89.865,70.079,188.719c11.734,50.572,8.662,74.257,30.6,107.925
				c4.969,7.627,11.093,15.568,8.941,24.592c-5.39,22.596-57.068,28.465-92.916,32.535c-37.848,4.297-73.141,3.881-108.032,3.371
				c-55.854-0.815-60.253-3.717-73.002,2.542c-38.849,19.066-36.217,64.749-65.452,70.841
				c-24.551,5.117-49.456-22.299-57.352-30.991c-41.045-45.183-38.852-99.657-46.131-154.602
				c-16.924-127.742-86.325-267.696-154.214-356.292c-20.59-26.87-34.908-41.004-35.802-65.975
				c-2.625-73.305,113.507-154.226,210.197-163.524c26.502-2.547,73.959-1.746,118.449,2.449c17.782,1.674,36.712,4.141,57.06,7.701
				c49.345,8.633,83.698,14.641,118.706,30.658c141.171,64.592,110.362,208.372,263.157,307.784
				C1700.64,2127.041,1750.799,2140.307,1750.003,2170.087z"/>
			
				<linearGradient id="SVGID_00000093865044135746319330000007494434500453684414_" gradientUnits="userSpaceOnUse" x1="2854.9263" y1="1694.338" x2="2807.9922" y2="2108.3621" gradientTransform="matrix(-1 0 0 1 4011.0259 0)">
				<stop  offset="0" style="stop-color:#FFC444"/>
				<stop  offset="0.9964" style="stop-color:#F36F56"/>
			</linearGradient>
			<path style="fill:url(#SVGID_00000093865044135746319330000007494434500453684414_);" d="M1171.584,1668.223
				c0,0-6.063,33.836-20.019,57.923c-12.614,21.769-64.765,29.572-75.63,33.362c-10.865,3.787,16.391,22.71,45.378,29.571
				c28.984,6.862,113.771,11.347,130.376,2.221c16.606-9.125-10.784-11.915-30.729-22.401
				c-19.946-10.486-26.617-53.111-20.441-71.231C1206.696,1679.545,1171.584,1668.223,1171.584,1668.223z"/>
			<g>
				
					<linearGradient id="SVGID_00000070840845960233257750000014985175250016610725_" gradientUnits="userSpaceOnUse" x1="4716.5063" y1="2476.8779" x2="4641.126" y2="2285.4258" gradientTransform="matrix(-0.9989 0.0475 0.0475 0.9989 5737.0234 -907.3022)">
					<stop  offset="0" style="stop-color:#444B8C"/>
					<stop  offset="0.9964" style="stop-color:#3E4177"/>
				</linearGradient>
				<path style="fill:url(#SVGID_00000070840845960233257750000014985175250016610725_);" d="M1226.691,1658.43
					c21.034-15.032,26.859-55.685,15.177-64.81c-3.34-2.608-6.529-1.41-53.999,17.631c-23.573,9.458-35.168,14.492-38.986,24.903
					c-2.332,6.355-1.955,14.94,0.621,21.704c1.327,3.481,3.911,7.815,9.656,16.086c5.1,7.339,4.756,7.091,6.32,9.224
					c3.755,5.124,10.999,13.751,24.273,23.751c0.739-3.742,1.905-8.385,3.86-13.448c0.752-1.948,3.784-9.564,8.592-15.979
					C1210.478,1666.452,1219.865,1663.31,1226.691,1658.43z"/>
				
					<linearGradient id="SVGID_00000168821093823708120970000011896264616907555509_" gradientUnits="userSpaceOnUse" x1="2812.6848" y1="1646.6852" x2="2849.5613" y2="1951.7551" gradientTransform="matrix(-1 0 0 1 4011.0259 0)">
					<stop  offset="0" style="stop-color:#FFC444"/>
					<stop  offset="0.9964" style="stop-color:#F36F56"/>
				</linearGradient>
				<path style="fill:url(#SVGID_00000168821093823708120970000011896264616907555509_);" d="M1172.783,1697.092
					c0,0,13.763,20.501,39.253,17.72c22.824-2.492,23.93-53.967,8.834-64.22c-5.036-3.421-14.87-4.501-22.716-1.928
					c-4.635,1.52-6.136,3.54-13.756,5.875c-7.028,2.155-9.072,1.454-11.138,3.355c-2.586,2.376-4.309,8,0.831,22.811
					c-4.561-4.232-9.878-5.699-13.514-3.783c-0.58,0.305-2.105,1.444-2.918,3.102
					C1154.716,1686.027,1160.396,1693.28,1172.783,1697.092z"/>
			</g>
			
				<linearGradient id="SVGID_00000067946262036477029130000003672318373170298527_" gradientUnits="userSpaceOnUse" x1="2274.8496" y1="2127.374" x2="2630.6565" y2="2127.374" gradientTransform="matrix(-1 0 0 1 4011.0259 0)">
				<stop  offset="0" style="stop-color:#AA80F9"/>
				<stop  offset="0.9964" style="stop-color:#6165D7"/>
			</linearGradient>
			<path style="opacity:0.3;fill:url(#SVGID_00000067946262036477029130000003672318373170298527_);" d="M1626.569,2165.717
				c-63.8-14.369-89.222-13.906-120.772-39.326c-52.529-42.324-60.418-106.741-90.944-105.954
				c-14.425,0.372-26.144,15.104-34.484,29.53c7.685,12.035,15.37,24.071,23.054,36.105c0.032-0.457,0.133-0.812,0.389-0.943
				c2.547-1.303,13.111,15.535,22.619,29.423c48.422,70.728,150.44,134.665,238.435,116.706
				c25.231-5.151,54.491-18.126,71.309-34.675C1692.747,2181.912,1655.654,2172.268,1626.569,2165.717z"/>
			
				<linearGradient id="SVGID_00000014606295088898432360000014483365072916030604_" gradientUnits="userSpaceOnUse" x1="6267.2178" y1="834.61" x2="6347.2422" y2="834.61" gradientTransform="matrix(-0.8553 0.5182 0.5182 0.8553 6739.7451 -1761.0112)">
				<stop  offset="0" style="stop-color:#FFC444"/>
				<stop  offset="0.9964" style="stop-color:#F36F56"/>
			</linearGradient>
			<path style="fill:url(#SVGID_00000014606295088898432360000014483365072916030604_);" d="M1730.479,2220.574
				c0,0,36.001-3.581,57.452-12.759c21.452-9.179,35.309,4.001,33.339,13.126c-1.971,9.121-37.264,21.823-51.364,22.279
				C1755.807,2243.676,1730.479,2220.574,1730.479,2220.574z"/>
			
				<linearGradient id="SVGID_00000043448585192173924220000004407247616470704262_" gradientUnits="userSpaceOnUse" x1="3225.6604" y1="1868.9801" x2="2727.3408" y2="2687.1169" gradientTransform="matrix(-1 0 0 1 4011.0259 0)">
				<stop  offset="0" style="stop-color:#AA80F9"/>
				<stop  offset="0.9964" style="stop-color:#6165D7"/>
			</linearGradient>
			<path style="fill:url(#SVGID_00000043448585192173924220000004407247616470704262_);" d="M955.133,2410.996
				c-38.652,3.448-125.657,5.022-187.193-51.908c-102.445-94.771-51.624-275.169-15.963-352.753
				c40.884-88.953,105.956-138.743,145.501-169.001c49.062-37.54,79.007-60.453,115.034-55.322
				c93.175,13.269,157.704,204.233,106.554,258.907c-16.746,17.898-33.327,7.764-81.788,23.197
				c-15.781,5.027-133.569,42.542-154.076,129.294c-14.354,60.718,22.19,131.814,87.232,179.565
				C965.333,2385.647,960.233,2398.322,955.133,2410.996z"/>
			
				<linearGradient id="SVGID_00000170958989494062415320000014409557274703365555_" gradientUnits="userSpaceOnUse" x1="2501.0818" y1="2240.229" x2="3231.0664" y2="2240.229" gradientTransform="matrix(-1 0 0 1 4011.0259 0)">
				<stop  offset="0" style="stop-color:#AA80F9"/>
				<stop  offset="0.9964" style="stop-color:#6165D7"/>
			</linearGradient>
			<path style="opacity:0.3;fill:url(#SVGID_00000170958989494062415320000014409557274703365555_);" d="M1388.374,2379.54
				c-43.758-27.653-50.233-55.68-99.233-74.618c-63.657-24.604-94.246,6.649-125.807-18.583
				c-37.559-30.029-4.31-82.344-32.417-173.128c-4.771-15.409-41.004-132.447-124.144-147.359
				c-38.769-6.953-89.974,7.899-109.705,40.753c-15.442,25.71-1.056,44.878-19.831,73.263
				c-18.762,28.367-41.201,21.428-65.118,45.086c-37.977,37.567-43.798,116.784-9.511,161.584
				c15.992,20.896,36.773,29.159,75.877,44.708c23.885,9.496,46.088,15.404,65.209,19.155
				c-47.881-45.957-72.729-105.223-60.491-156.992c12.782-54.077,63.363-89.017,103.477-108.887
				c40.14,75.54,72.946,163.074,83.87,245.537c7.28,54.945,5.087,109.42,46.131,154.602c7.896,8.692,32.801,36.109,57.352,30.991
				c29.235-6.092,26.602-51.775,65.452-70.841c12.749-6.259,17.148-3.357,73.002-2.542c34.891,0.51,70.183,0.926,108.032-3.371
				c31.88-3.621,76.199-8.693,89.427-25.659C1452.391,2411.674,1413.98,2395.722,1388.374,2379.54z"/>
			<g>
				
					<linearGradient id="SVGID_00000065763610894319606200000012178997273152089755_" gradientUnits="userSpaceOnUse" x1="2130.9507" y1="2293.8403" x2="3037.1213" y2="2293.8403" gradientTransform="matrix(-1 0 0 1 4011.0259 0)">
					<stop  offset="0" style="stop-color:#444B8C"/>
					<stop  offset="0.9964" style="stop-color:#26264F"/>
				</linearGradient>
				<path style="fill:url(#SVGID_00000065763610894319606200000012178997273152089755_);" d="M980.51,2441.374l-4.503-13.246
					c-7.179-21.119,4.624-43.642,26.349-50.26l851.766-259.464l25.954,87.97l-847.463,261.027
					C1011.001,2474.058,987.666,2462.426,980.51,2441.374z"/>
				
					<linearGradient id="SVGID_00000167364526219253541590000018276952826442349954_" gradientUnits="userSpaceOnUse" x1="1295.2131" y1="2007.8029" x2="2230.2136" y2="2007.8029" gradientTransform="matrix(-1 0 0 1 4011.0259 0)">
					<stop  offset="0" style="stop-color:#444B8C"/>
					<stop  offset="0.9964" style="stop-color:#26264F"/>
				</linearGradient>
				<path style="fill:url(#SVGID_00000167364526219253541590000018276952826442349954_);" d="M2383.538,2470.919
					c-244.018,79.088-505.521-59.199-581.775-315.538c-78.089-262.503,69.055-540.975,326.068-614.976
					c252.381-72.667,507.579,82.384,572.703,339.667C2764.176,2131.503,2623.339,2393.197,2383.538,2470.919z M2363.845,2399.256
					c202.485-65.058,321.174-285.906,266.821-497.783c-55.415-216.02-270.168-345.094-481.548-283.6
					c-214.621,62.436-337.759,295.115-273.221,514.8C1939.163,2348.028,2158.364,2465.277,2363.845,2399.256z"/>
				<path style="opacity:0.3;fill:#D8DEE8;" d="M1854.121,2118.405l-108.604,33.083c-7.452,34.638-21.94,54.483-36.522,66.57
					c-54.857,45.474-128.107-4.122-230.302,49.2c-51.282,26.758-41.537,43.785-89.606,62.455
					c-79.467,30.866-115.844-11.89-186.173,16.204c-71.136,28.417-78.149,89.828-118.493,87.624
					c-17.259-0.942-39.476-13.498-64.25-61.099l-17.815,5.427c-21.724,6.618-33.528,29.139-26.349,50.26l4.503,13.244
					c7.157,21.051,30.491,32.684,52.103,26.027l847.463-261.027L1854.121,2118.405z"/>
				<path style="opacity:0.56;fill:#FFFFFF;" d="M2383.955,2434.465c-212.546,68.401-439.472-52.728-505.092-275.583
					c-66.985-227.495,60.531-468.516,282.87-533.075c218.863-63.551,441.027,70.241,498.239,293.808
					C2716.049,2138.747,2593.296,2367.096,2383.955,2434.465z"/>
				
					<linearGradient id="SVGID_00000092430879519574885240000005120103029899737263_" gradientUnits="userSpaceOnUse" x1="-6843.7744" y1="3623.3596" x2="-7314.5625" y2="3096.2378" gradientTransform="matrix(0.8705 0.4922 -0.4922 0.8705 10115.4473 2747.6741)">
					<stop  offset="0" style="stop-color:#444B8C"/>
					<stop  offset="0.9964" style="stop-color:#26264F"/>
				</linearGradient>
				<path style="fill:url(#SVGID_00000092430879519574885240000005120103029899737263_);" d="M2400.035,2492.983
					c-244.018,79.089-505.521-59.198-581.776-315.538c-78.088-262.502,69.056-540.975,326.069-614.976
					c252.381-72.666,507.579,82.385,572.703,339.667C2780.674,2153.567,2639.836,2415.262,2400.035,2492.983z M2380.343,2421.32
					c202.485-65.058,321.174-285.906,266.822-497.782c-55.417-216.021-270.169-345.093-481.549-283.6
					c-214.621,62.436-337.759,295.115-273.221,514.8C1955.661,2370.093,2174.861,2487.341,2380.343,2421.32z"/>
				
					<linearGradient id="SVGID_00000106857413403105992390000007498193762989730213_" gradientUnits="userSpaceOnUse" x1="-7535.8369" y1="2853.7317" x2="-6897.332" y2="3556.6243" gradientTransform="matrix(0.8705 0.4922 -0.4922 0.8705 10115.4473 2747.6741)">
					<stop  offset="0" style="stop-color:#444B8C"/>
					<stop  offset="0.9964" style="stop-color:#26264F"/>
				</linearGradient>
				<path style="fill:url(#SVGID_00000106857413403105992390000007498193762989730213_);" d="M2393.086,2467.694
					c-230.412,74.45-476.936-56.444-548.563-298.292c-73.249-247.325,65.386-509.549,307.351-579.473
					c237.855-68.737,478.767,77.077,540.489,319.765C2752.758,2147.166,2619.736,2394.459,2393.086,2467.694z M2380.343,2421.32
					c202.485-65.058,321.174-285.906,266.822-497.782c-55.417-216.021-270.169-345.093-481.549-283.6
					c-214.621,62.436-337.759,295.115-273.221,514.8C1955.661,2370.093,2174.861,2487.341,2380.343,2421.32z"/>
			</g>
			
				<linearGradient id="SVGID_00000176042101390824953620000009979743566553331610_" gradientUnits="userSpaceOnUse" x1="-5617.5083" y1="651.5984" x2="-5599.7949" y2="551.3349" gradientTransform="matrix(0.8553 -0.5182 0.5182 0.8553 5490.7197 -1003.974)">
				<stop  offset="0" style="stop-color:#FFC444"/>
				<stop  offset="0.9964" style="stop-color:#F36F56"/>
			</linearGradient>
			<path style="fill:url(#SVGID_00000176042101390824953620000009979743566553331610_);" d="M958.415,2402.842l8.608-21.394
				c0,0,14.052,0.856,25.584-7.413c6.284-4.506,17.435-5.848,20.676-4.948c3.24,0.899,15.48,0.363,1.529,7.02
				c-13.95,6.655-13.84,11.6-8.025,17.063c5.815,5.462,27.941,17.214,35.906,17.778c7.965,0.566-6.436,12.885-14.467,14.459
				c-8.033,1.571-21.204,3.561-37.498-6.033C984.782,2415.875,958.415,2402.842,958.415,2402.842z"/>
		</g>
	</g>
</g>
</svg>
