<?xml version="1.0" encoding="utf-8"?>
<!-- Generator: Adobe Illustrator 27.5.0, SVG Export Plug-In . SVG Version: 6.00 Build 0)  -->
<svg version="1.1" xmlns="http://www.w3.org/2000/svg" xmlns:xlink="http://www.w3.org/1999/xlink" x="0px" y="0px"
	 viewBox="0 0 3710 3710" style="enable-background:new 0 0 3710 3710;" xml:space="preserve">
<g id="Background">
	<g>
		<g>
			<rect style="fill:#FFFFFF;" width="3710" height="3710"/>
		</g>
	</g>
</g>
<g id="Illustration">
	<g>
		<linearGradient id="SVGID_1_" gradientUnits="userSpaceOnUse" x1="3408.2947" y1="3615.2478" x2="1372.5428" y2="1417.9283">
			<stop  offset="0" style="stop-color:#DAE3FE"/>
			<stop  offset="1" style="stop-color:#E9EFFD"/>
		</linearGradient>
		<path style="fill:url(#SVGID_1_);" d="M3124.674,2363.051c-279.744,653.795-1018.178,934.616-1596.753,886.735
			c-157.974-13.073-475.822-39.377-724.001-274.045c-476.609-450.664-403.207-1392.678,53.045-1947.283
			c58.756-71.422,465.455-549.94,1099.219-543.535c464.008,4.69,789.691,266.772,829.292,299.422
			c50.028,41.246,160.368,139.261,259.812,294.754C3278.947,1444.455,3299.486,1954.494,3124.674,2363.051z"/>
		<g>
			<path style="fill:#BDD0FB;" d="M2326.377,1060.491c43.856-64.378,283.823-11.445,348.519-163.578l-70.826-150.901
				c0,0-132.858,160.503-223.704,177.46c-90.846,16.957-80.729-41.955-35.289-75.186c45.438-33.23,203.722-70.143,223-136.866
				c0,0,14.878-52.962-56.369-58.509c-71.246-5.545-125.405-118.478-123.194-173.144c0,0-21.669,23.709-95.925,54.217
				c-74.256,30.507-151.177,55.9-128.953,124.898c22.222,68.997,85.072,144.759,52.733,175.533
				c-32.34,30.772-175.529-83.259-121.304-216.917c0,0-121.801,39.517-140.229,75.011c-18.428,35.493,1.782,111.776,95.078,169.35
				c93.298,57.573,118.79,111.884,94.534,134.964c-24.254,23.079-269.771-184.377-218.365-290.819
				c0,0-179.75,156.937-189.718,185.535c-9.969,28.597,90.4,126.153,173.121,161.191c82.72,35.04,120.907,116.403,113.384,150.211
				c-7.524,33.809-74.675-59.428-124.616-82.77c-49.941-23.343-197.156-195.792-197.156-195.792s6.891,31.298-45.879,93.297
				c-52.772,61.997-103.434,194.935-59.883,221.278c43.553,26.341,273.897,110.108,332.476,160.16
				c58.579,50.052,94.983,102.695,50.181,98.606c-44.804-4.089-121.397-67.602-189.732-96.907
				c-68.333-29.306-253.301-82.84-261.515-133.565c0,0-94.633,197.077,40.337,351.741c0,0,106.354,27.246,205.094-3.254
				c98.743-30.501,141.579-38.911,162.964-9.962c21.383,28.95-47.009,49.354-109.014,66.761
				c-62.005,17.406-205.374,60.806-245.637,33.17c0,0,216.745,220.913,390.472,100.983
				c162.925-112.473,165.075-143.766,164.715-147.223c2.263,12.749,74.031,397.771,452.947,175.743
				c0,0-100.628,26.48-145.244-27.045c-44.615-53.524-162.787-89.342-129.193-125.745c33.595-36.402,195.191,158.38,295.22,122.315
				c100.03-36.067,168.402-183.335,116.553-288.542c0,0-66.365,71.528-172.164,53.767s-243.583-70.438-167.583-107.864
				c76-37.426,340.953,58.889,397.815,15.432c56.859-43.457-4.576-287.521-4.576-287.521s-28.041,24.857-146.655,68.833
				c-118.617,43.977-262.558,69.545-250.864,36.319c11.697-33.226,106.828-43.288,191.519-55.498
				c84.691-12.21,178.87-71.114,174.683-116.379c-4.186-45.264-51.257-179.524-51.257-179.524s-140.607,86.477-200.441,131.814
				C2436.602,1120.904,2282.521,1124.869,2326.377,1060.491z M2239.988,1540.558c-102.651,5.19-41.72-56.706,8.441-89.624
				C2286.508,1425.947,2342.637,1535.37,2239.988,1540.558z M2270.119,1347.634c-67.831,4.993-87.668-24.115-58.832-48.541
				C2277.549,1242.969,2337.95,1342.641,2270.119,1347.634z M2278.077,1140.318c-36.605,5.076-51.872-2.534-34.765-40.841
				C2260.42,1061.17,2314.68,1135.244,2278.077,1140.318z"/>
		</g>
		<g>
			<path style="fill:#91B3FA;" d="M1500.79,3168.428c0,0,647.018-1487.758,1561.922-2198.549
				c61.502-47.781,151.506-8.958,158.476,68.611C3267.795,1557.172,3258.325,3103.396,1500.79,3168.428z"/>
			<path style="opacity:0.5;fill:#FFFFFF;" d="M1667.306,3098.648c-4.297,2.917-0.471,9.438,4.177,7.123
				c171.429-85.327,855.349-533.023,1268.936-1595.633c1.328-3.414-3.632-5.695-5.25-2.41
				C2815.926,1749.849,2346.811,2637.349,1667.306,3098.648z"/>
		</g>
		<g style="opacity:0.85;">
			<path style="fill:#BDD0FB;" d="M1505.342,2268.175c0,0-49.52-1087.133-452.806-1751.457
				c-27.11-44.658-92.801-41.862-115.727,5.081C783.506,835.691,419.505,1806.93,1505.342,2268.175z"/>
			<path style="opacity:0.5;fill:#FFFFFF;" d="M1414.387,2181.462c2.07,2.964-2.036,6.253-4.485,3.594
				c-90.289-98.042-423.87-558.947-429.009-1352.591c-0.016-2.549,3.776-2.802,4.013-0.263
				C1002.335,1019.245,1087.054,1712.808,1414.387,2181.462z"/>
		</g>
		<g>
			<path style="fill:#91B3FA;" d="M1350.422,2366.09c0,0-149.55-1134.739-631.823-1794.644
				c-32.42-44.36-101.005-35.529-120.812,15.72C465.341,929.859,171.159,1980.301,1350.422,2366.09z"/>
			<path style="opacity:0.5;fill:#FFFFFF;" d="M1247.322,2283.395c2.435,2.92-1.572,6.736-4.376,4.169
				c-103.421-94.626-494.377-547.633-571.056-1378.817c-0.246-2.67,3.705-3.275,4.18-0.636
				C711.138,1102.544,862.216,1821.706,1247.322,2283.395z"/>
		</g>
		<g>
			
				<linearGradient id="SVGID_00000156585135384234212710000014188221442069490832_" gradientUnits="userSpaceOnUse" x1="2117.6929" y1="673.532" x2="-158.6135" y2="3663.397" gradientTransform="matrix(0.9997 0.0255 -0.0255 0.9997 312.1446 145.9882)">
				<stop  offset="0" style="stop-color:#09005D"/>
				<stop  offset="1" style="stop-color:#1A0F91"/>
			</linearGradient>
			<path style="fill:url(#SVGID_00000156585135384234212710000014188221442069490832_);" d="M607.958,952.24
				c2.377-93.232,79.883-166.885,173.115-164.508l1435.586,36.597c79.2,2.019,142.925,65.75,144.936,144.951l52.908,2084.032
				c1.574,61.977-48.482,112.946-110.477,112.492l-1646.125-12.04c-58.253-0.427-104.828-48.554-103.343-106.79L607.958,952.24z"/>
			<path style="fill:#BDD0FB;" d="M899.266,3124.782c-0.018,0-0.035-0.001-0.053-0.001l-184.046-7.074
				c-61.686-2.372-110.592-54.509-109.019-116.222l7.086-277.965c0.059-2.32,1.988-4.154,4.308-4.094h0.002
				c2.32,0.061,4.152,1.99,4.093,4.308l-7.086,277.965c-1.456,57.141,43.826,105.412,100.941,107.608l184.045,7.074
				c2.319,0.09,4.126,2.043,4.038,4.362C903.485,3123.044,901.561,3124.843,899.266,3124.782z"/>
			<path style="fill:#BDD0FB;" d="M619.518,2641.724c-2.318-0.061-4.15-1.99-4.091-4.308l1.148-45.014
				c0.059-2.32,1.988-4.154,4.309-4.095h0.002c2.32,0.061,4.152,1.99,4.092,4.309l-1.148,45.014
				c-0.059,2.321-1.988,4.154-4.308,4.095L619.518,2641.724z"/>
			<g>
				
					<linearGradient id="SVGID_00000014616321535848912440000008413503722479850371_" gradientUnits="userSpaceOnUse" x1="3146.3867" y1="1284.921" x2="1173.5009" y2="3180.304" gradientTransform="matrix(0.9322 -0.3619 0.3619 0.9322 -1374.8748 781.41)">
					<stop  offset="0" style="stop-color:#4F52FF"/>
					<stop  offset="1" style="stop-color:#4042E2"/>
				</linearGradient>
				<path style="fill:url(#SVGID_00000014616321535848912440000008413503722479850371_);" d="M729.055,818.462
					c0.585-29.833,27.406-52.251,56.863-47.489c195.365,31.583,867.407,130.992,1425.867,102.414
					c25.468-1.303,47.036,18.518,47.74,44.009l57.816,2093.441c0.793,28.704-21.721,52.659-50.421,53.625
					c-234.773,7.896-1201.551,36.914-1544.979-7.932c-20.902-2.729-36.36-20.78-35.947-41.855L729.055,818.462z"/>
				<path style="fill:#BDD0FB;" d="M750.812,871.44c0.563-28.71,26.374-50.284,54.722-45.701
					c188.008,30.394,834.744,126.059,1372.175,98.558c24.509-1.254,45.265,17.82,45.942,42.352l55.64,2014.612
					c0.762,27.624-20.904,50.676-48.522,51.605c-225.932,7.599-1156.306,35.523-1486.802-7.633
					c-20.115-2.627-34.991-19.997-34.594-40.279L750.812,871.44z"/>
				<path style="opacity:0.78;fill:#FFFFFF;" d="M921.504,1031.006l9.041,431.839c0.301,14.363,11.599,26.064,25.944,26.835
					c79.825,4.29,328.587,16.707,469.322,12.962c15.919-0.424,28.825-12.965,29.758-28.863
					c4.742-80.822,16.608-316.108,0.685-414.999c-2.572-15.974-15.941-27.971-32.091-28.949l-471.738-28.548
					C935.413,1000.254,921.147,1013.968,921.504,1031.006z"/>
				
					<ellipse transform="matrix(0.7071 -0.7071 0.7071 0.7071 -494.6443 1190.1061)" style="fill:#91B3FA;" cx="1189.263" cy="1192.141" rx="92.752" ry="92.752"/>
				<path style="fill:#91B3FA;" d="M1041.484,1460.781l295.401,7.531c18.111,0.462,29.472-19.26,20.109-34.769
					c-24.09-39.901-75.118-98.919-166.103-98.634c-87.691,0.275-140.957,51.051-168.019,87.752
					C1011.384,1438.239,1022.133,1460.287,1041.484,1460.781z"/>
				<g style="opacity:0.6;">
					<path style="fill:#FFFFFF;" d="M2105.239,1098.753c7.371,0.188,13.38-5.691,13.353-13.065l-0.008-2.147
						c-0.027-7.374-6.077-13.668-13.444-13.988l-524.356-22.722c-7.367-0.319-11.536,5.159-9.265,12.175l4.405,13.603
						c2.271,7.015,10.161,12.909,17.533,13.097L2105.239,1098.753z"/>
				</g>
				<g style="opacity:0.6;">
					<path style="fill:#FFFFFF;" d="M1578.733,1127.241c-7.367-0.319-11.536,5.159-9.264,12.175l4.405,13.603
						c2.271,7.015,10.161,12.909,17.533,13.097l511.782,13.047c7.372,0.188,13.38-5.692,13.353-13.065l-0.008-2.147
						c-0.027-7.374-6.077-13.668-13.444-13.987L1578.733,1127.241z"/>
				</g>
				<g style="opacity:0.6;">
					<path style="fill:#FFFFFF;" d="M1576.654,1208.82c-7.367-0.319-11.536,5.159-9.265,12.175l4.404,13.603
						c2.272,7.015,10.161,12.909,17.533,13.097l511.783,13.047c7.372,0.188,13.38-5.692,13.353-13.065l-0.008-2.147
						c-0.027-7.374-6.077-13.668-13.444-13.987L1576.654,1208.82z"/>
				</g>
				<g style="opacity:0.6;">
					<path style="fill:#FFFFFF;" d="M2141.371,1655.438c7.372,0.188,13.159-5.687,12.861-13.055l-0.089-2.196
						c-0.298-7.368-6.572-13.597-13.942-13.844l-1219.565-40.711c-7.37-0.246-9.763,4.367-5.318,10.25l13.716,18.157
						c4.445,5.884,14.113,10.851,21.484,11.039L2141.371,1655.438z"/>
				</g>
				<g style="opacity:0.6;">
					<path style="fill:#FFFFFF;" d="M918.586,1666.043c-7.37-0.246-9.763,4.367-5.318,10.25l13.716,18.157
						c4.445,5.884,14.113,10.852,21.484,11.039l1190.853,30.358c7.372,0.188,13.159-5.687,12.861-13.054l-0.089-2.196
						c-0.298-7.368-6.572-13.597-13.942-13.843L918.586,1666.043z"/>
				</g>
				<g>
					<path style="fill:#FFFFFF;" d="M1072.586,1981.029c-0.084-0.002-0.168-0.005-0.254-0.007l-102.348-3.593
						c-14.761-0.517-26.689-10.993-27.749-24.371l-6.81-86.124c-0.405-5.128,1.31-10.146,4.833-14.125
						c3.936-4.447,9.788-7.153,16.054-7.42h0.002c8.636-0.37,20.808-1.095,33.696-1.862c28.551-1.7,60.912-3.628,79.889-3.382
						c13.747,0.2,25.451,8.813,28.414,20.991c4.841,19.903,3.419,57.23,1.387,96.98
						C1099.035,1971.174,1086.897,1981.406,1072.586,1981.029z M956.674,1853.786c-3.999,0.172-7.689,1.846-10.121,4.594
						c-1.997,2.255-2.973,5.058-2.748,7.893l6.81,86.124c0.72,9.113,9.174,16.265,19.663,16.632l102.348,3.593
						c0.06,0.002,0.121,0.003,0.183,0.005c9.783,0.26,18.062-6.411,18.499-14.94c1.996-39.104,3.411-75.762-1.164-94.566
						c-2-8.225-10.4-14.31-20.04-14.564c-0.105-0.003-0.209-0.005-0.316-0.006c-18.671-0.242-52.276,1.758-79.277,3.367
						c-12.925,0.77-25.132,1.497-33.84,1.869H956.674z"/>
					<g style="opacity:0.6;">
						<path style="fill:#FFFFFF;" d="M1169.757,1894.129c-7.371-0.21-12.012,5.49-10.314,12.665l6.013,25.408
							c1.698,7.176,9.12,13.137,16.493,13.248l935.539,14.057c7.373,0.111,13.427-5.832,13.454-13.206l0.041-11.397
							c0.027-7.374-5.982-13.579-13.353-13.789L1169.757,1894.129z"/>
					</g>
					
						<linearGradient id="SVGID_00000035531177357724963090000007417838400049458598_" gradientUnits="userSpaceOnUse" x1="1003.892" y1="1288.2139" x2="480.9826" y2="2180.6973" gradientTransform="matrix(0.9997 0.0255 -0.0255 0.9997 312.1446 145.9882)">
						<stop  offset="0" style="stop-color:#FE7062"/>
						<stop  offset="1" style="stop-color:#FF928E"/>
					</linearGradient>
					<path style="fill:url(#SVGID_00000035531177357724963090000007417838400049458598_);" d="M971.462,1876.243L971.462,1876.243
						c7.714-4.266,17.427-1.355,21.524,6.45l19.27,36.711c1.929,3.675,7.222,3.58,9.019-0.161l52.925-110.223
						c2.64-5.498,10.875-3.406,10.629,2.688c-1.381,34.092-12.083,98.691-67.96,151.567c0,0-29.733-12.439-52.564-66.161
						C961.006,1889.353,964.084,1880.323,971.462,1876.243z"/>
					<path style="fill:#FFFFFF;" d="M1066.993,2200.441c-0.084-0.002-0.168-0.004-0.254-0.007l-102.349-3.593
						c-14.761-0.517-26.689-10.993-27.748-24.371l-6.81-86.124c-0.405-5.128,1.31-10.146,4.833-14.126
						c3.936-4.447,9.788-7.152,16.052-7.42h0.002c8.638-0.369,20.812-1.095,33.702-1.862c28.549-1.7,60.908-3.628,79.885-3.382
						c13.732,0.223,25.449,8.811,28.412,20.989c4.843,19.905,3.421,57.232,1.389,96.982
						C1093.441,2190.587,1081.303,2200.818,1066.993,2200.441z M951.077,2073.198c-3.997,0.172-7.685,1.846-10.117,4.593
						c-1.997,2.257-2.973,5.06-2.748,7.895l6.81,86.124c0.72,9.114,9.174,16.265,19.663,16.632l102.348,3.593
						c0.06,0.001,0.121,0.003,0.183,0.005c9.783,0.26,18.062-6.41,18.498-14.939c1.996-39.104,3.411-75.762-1.164-94.566
						c-2.002-8.224-10.4-14.31-20.04-14.564c-0.104-0.003-0.209-0.006-0.316-0.006c-18.669-0.242-52.274,1.758-79.275,3.367
						C971.996,2072.1,959.787,2072.826,951.077,2073.198L951.077,2073.198z"/>
					<path style="opacity:0.6;fill:#FFFFFF;" d="M961.854,2082.074c21.544-0.922,68.407-4.476,90.583-4.187
						c9.397,0.123,17.491,6.008,19.486,14.209c3.875,15.929,2.505,47.448,1.02,76.534c-0.445,8.71-8.627,15.464-18.4,15.121
						l-81.79-2.872c-10.058-0.353-18.236-7.425-18.944-16.384l-5.443-68.824C947.804,2088.552,953.868,2082.415,961.854,2082.074z"
						/>
					<g style="opacity:0.6;">
						<path style="fill:#FFFFFF;" d="M1164.164,2113.541c-7.371-0.21-12.012,5.49-10.314,12.665l6.013,25.408
							c1.698,7.176,9.12,13.137,16.493,13.248l935.538,14.058c7.373,0.111,13.427-5.832,13.454-13.206l0.041-11.397
							c0.027-7.374-5.982-13.579-13.353-13.789L1164.164,2113.541z"/>
					</g>
					<path style="fill:#FFFFFF;" d="M1061.4,2419.854c-0.084-0.002-0.168-0.004-0.255-0.007l-102.348-3.593
						c-14.761-0.517-26.689-10.993-27.748-24.371l-6.81-86.125c-0.405-5.128,1.311-10.146,4.836-14.128
						c3.936-4.445,9.786-7.148,16.05-7.416l0,0c8.626-0.37,20.777-1.094,33.64-1.859c27.159-1.618,60.96-3.633,79.948-3.385
						c13.741,0.114,25.451,8.813,28.415,20.991c4.838,19.891,3.417,57.221,1.387,96.978
						C1087.848,2410,1075.71,2420.231,1061.4,2419.854z M1058.918,2287.381c-0.105-0.003-0.209-0.006-0.316-0.006
						c-18.683-0.244-52.315,1.759-79.336,3.37c-12.902,0.768-25.087,1.494-33.78,1.866h-0.002
						c-3.997,0.172-7.683,1.844-10.116,4.592c-1.997,2.255-2.973,5.058-2.748,7.893l6.81,86.126
						c0.72,9.113,9.174,16.265,19.663,16.632l102.348,3.593c0.06,0.002,0.121,0.003,0.183,0.005
						c9.783,0.26,18.062-6.411,18.498-14.939c1.995-39.113,3.407-75.775-1.163-94.566
						C1076.958,2293.72,1068.558,2287.635,1058.918,2287.381z"/>
					<path style="opacity:0.6;fill:#FFFFFF;" d="M956.261,2301.486c21.543-0.922,68.407-4.476,90.582-4.187
						c9.397,0.123,17.491,6.008,19.486,14.209c3.875,15.929,2.505,47.448,1.02,76.534c-0.445,8.71-8.627,15.464-18.4,15.121
						l-81.79-2.871c-10.058-0.353-18.236-7.426-18.944-16.384l-5.442-68.824C942.21,2307.965,948.275,2301.828,956.261,2301.486z"/>
					<g style="opacity:0.6;">
						<path style="fill:#FFFFFF;" d="M1158.57,2332.953c-7.371-0.21-12.012,5.49-10.314,12.665l6.013,25.408
							c1.698,7.176,9.12,13.137,16.493,13.248l935.538,14.057c7.373,0.111,13.427-5.832,13.454-13.206l0.041-11.397
							c0.027-7.374-5.982-13.579-13.353-13.789L1158.57,2332.953z"/>
					</g>
					<path style="fill:#FFFFFF;" d="M1055.807,2639.266c-0.084-0.002-0.169-0.004-0.255-0.007l-102.348-3.593
						c-14.761-0.519-26.689-10.997-27.748-24.371l-6.812-86.126c-0.404-5.131,1.313-10.148,4.838-14.127
						c3.937-4.447,9.788-7.149,16.052-7.417c8.622-0.37,20.771-1.094,33.632-1.859c27.161-1.618,60.964-3.633,79.955-3.384
						c13.647,0.179,25.449,8.807,28.413,20.989c4.839,19.891,3.419,57.224,1.389,96.98
						C1082.255,2629.412,1070.117,2639.644,1055.807,2639.266z M1053.329,2506.794c-0.107-0.003-0.211-0.006-0.318-0.006
						c-18.687-0.244-52.321,1.759-79.345,3.369c-12.9,0.769-25.082,1.494-33.774,1.866h-0.002c-3.997,0.172-7.683,1.844-10.116,4.59
						c-1.997,2.257-2.975,5.06-2.75,7.895l6.812,86.126c0.721,9.113,9.174,16.263,19.663,16.632l102.348,3.594
						c0.06,0.001,0.121,0.003,0.183,0.005c9.783,0.26,18.062-6.411,18.498-14.94c1.995-39.112,3.407-75.776-1.163-94.566
						C1071.363,2513.133,1062.967,2507.048,1053.329,2506.794z"/>
					<path style="opacity:0.6;fill:#FFFFFF;" d="M950.667,2520.898c21.543-0.922,68.407-4.476,90.583-4.187
						c9.397,0.123,17.491,6.008,19.486,14.209c3.875,15.929,2.505,47.448,1.02,76.533c-0.445,8.711-8.627,15.464-18.4,15.121
						l-81.79-2.871c-10.058-0.353-18.236-7.426-18.944-16.384l-5.443-68.824C936.617,2527.377,942.681,2521.24,950.667,2520.898z"/>
					<g style="opacity:0.6;">
						<path style="fill:#FFFFFF;" d="M1152.977,2552.366c-7.371-0.21-12.012,5.49-10.314,12.665l6.013,25.408
							c1.698,7.176,9.12,13.137,16.493,13.248l935.539,14.057c7.373,0.111,13.427-5.832,13.454-13.206l0.041-11.398
							c0.027-7.374-5.982-13.579-13.353-13.789L1152.977,2552.366z"/>
					</g>
				</g>
			</g>
			
				<linearGradient id="SVGID_00000169560294646146122430000001901533085420366516_" gradientUnits="userSpaceOnUse" x1="1452.4121" y1="131.3348" x2="791.893" y2="1000.2322" gradientTransform="matrix(0.9997 0.0255 -0.0255 0.9997 312.1446 145.9882)">
				<stop  offset="0" style="stop-color:#09005D"/>
				<stop  offset="1" style="stop-color:#1A0F91"/>
			</linearGradient>
			<path style="fill:url(#SVGID_00000169560294646146122430000001901533085420366516_);" d="M1595.137,524.52
				c-50.936-37.397-96.043-37.831-128.022-29.275c-29.172,7.805-48.651,35.282-46.663,65.415l9.879,149.756l162.516,18.607
				C1592.847,729.024,1695.03,597.862,1595.137,524.52z M1520.433,643.229c-22.431-0.572-40.151-19.219-39.579-41.65
				c0.572-22.431,19.219-40.152,41.65-39.58c22.431,0.572,40.151,19.22,39.58,41.651
				C1561.512,626.081,1542.865,643.801,1520.433,643.229z"/>
			<g>
				<path style="fill:#BDD0FB;" d="M1448.193,648.252c-2.146-0.057-3.935-1.74-4.078-3.924l-1.574-23.849
					c-0.152-2.318,1.6-4.318,3.916-4.471c2.316-0.165,4.318,1.6,4.47,3.916l1.574,23.849c0.152,2.318-1.6,4.318-3.916,4.471
					C1448.454,648.253,1448.323,648.256,1448.193,648.252z M1445.109,601.517c-2.146-0.057-3.934-1.74-4.078-3.924l-1.195-18.109
					c-1.902-28.836,16.88-55.161,44.663-62.594c19.627-5.253,39.724-5.565,59.724-0.931c2.263,0.523,3.672,2.782,3.148,5.042
					c-0.523,2.261-2.796,3.663-5.043,3.148c-18.655-4.325-37.375-4.032-55.658,0.862c-23.916,6.398-40.086,29.075-38.448,53.919
					l1.195,18.109c0.154,2.318-1.6,4.319-3.916,4.471C1445.37,601.518,1445.238,601.52,1445.109,601.517z"/>
			</g>
			
				<linearGradient id="SVGID_00000107549554883524516510000010994926966294676638_" gradientUnits="userSpaceOnUse" x1="1524.8712" y1="186.406" x2="864.3445" y2="1055.3134" gradientTransform="matrix(0.9997 0.0255 -0.0255 0.9997 312.1446 145.9882)">
				<stop  offset="0" style="stop-color:#09005D"/>
				<stop  offset="1" style="stop-color:#1A0F91"/>
			</linearGradient>
			<path style="fill:url(#SVGID_00000107549554883524516510000010994926966294676638_);" d="M1205.561,801.303l1.915-75.117
				c0.661-25.931,22.682-46.151,48.575-44.602L1773.5,712.53c22.964,1.373,41.115,19.99,41.906,42.981l2.488,72.287
				L1205.561,801.303z"/>
			<path style="fill:#BDD0FB;" d="M1378.751,713.305c-2.318-0.061-4.15-1.99-4.091-4.308c0.059-2.32,1.988-4.154,4.308-4.095
				l22.273,0.567l0.002,0c2.32,0.061,4.152,1.99,4.093,4.308c-0.059,2.32-1.988,4.154-4.309,4.095l-22.273-0.567L1378.751,713.305z"
				/>
			<path style="fill:#BDD0FB;" d="M1234.184,778.7c-2.318-0.061-4.15-1.99-4.091-4.308l0.775-30.385
				c0.603-23.63,20.316-42.363,43.943-41.76l81.884,2.088l0.004,0c2.318,0.061,4.15,1.99,4.091,4.308
				c-0.059,2.32-1.988,4.154-4.308,4.095l-81.884-2.088c-18.995-0.485-34.842,14.576-35.327,33.571l-0.775,30.385
				c-0.059,2.32-1.988,4.154-4.308,4.095L1234.184,778.7z"/>
			
				<linearGradient id="SVGID_00000166661081735254998950000000772514062153441470_" gradientUnits="userSpaceOnUse" x1="1441.6366" y1="239.5519" x2="985.5538" y2="1077.0127" gradientTransform="matrix(0.9997 0.0255 -0.0255 0.9997 312.1446 145.9882)">
				<stop  offset="0" style="stop-color:#4F52FF"/>
				<stop  offset="1" style="stop-color:#4042E2"/>
			</linearGradient>
			<path style="fill:url(#SVGID_00000166661081735254998950000000772514062153441470_);" d="M1043.985,769.674l905.647,23.062
				c32.564,0.829,59.807,24.974,64.544,57.203l0.654,4.447c5.188,35.302-22.69,66.757-58.359,65.848l-929.14-23.686
				c-21.347-0.544-37.903-18.826-36.334-40.122l3.059-41.535C995.968,788.912,1017.943,769.011,1043.985,769.674z"/>
		</g>
		<g>
			
				<linearGradient id="SVGID_00000066474186693266641640000015490290314015535017_" gradientUnits="userSpaceOnUse" x1="148.3442" y1="1034.6957" x2="-173.4613" y2="1430.3104" gradientTransform="matrix(-0.9922 -0.1247 -0.1247 0.9922 2710.0249 715.4178)">
				<stop  offset="0" style="stop-color:#FEBBBA"/>
				<stop  offset="1" style="stop-color:#FF928E"/>
			</linearGradient>
			<path style="fill:url(#SVGID_00000066474186693266641640000015490290314015535017_);" d="M2464.475,1835.564
				c2.095-4.005,8.021-3.374,9.231,0.981c4.479,16.121,15.319,44.252,38.065,54.241c1.146,0.503,2.231,1.012,3.28,1.524
				c1.032-3.093,1.046-6.684-1.425-10.461c-7.072-10.807,5.694-25.568,5.694-25.568s0.845,13,10.727,21.185
				c8.511,7.051,12.597,22.74,6.781,35.611c-12.311,47.817-30.745,111.061,41.063,157.264
				c71.808,46.204,172.933-87.197,172.933-87.197l-50.191,159.113c0,0-77.47,57.169-167.581-23.219
				c-90.112-80.388-30.384-197.364-30.384-197.364S2433.938,1893.949,2464.475,1835.564z"/>
			<g>
				<g>
					<g>
						
							<linearGradient id="SVGID_00000114770611487749175690000003540472974048158646_" gradientUnits="userSpaceOnUse" x1="11315.8096" y1="3201.2366" x2="11423.2041" y2="3201.2366" gradientTransform="matrix(1 0 0 1 -10063.1719 0)">
							<stop  offset="0" style="stop-color:#09005D"/>
							<stop  offset="1" style="stop-color:#1A0F91"/>
						</linearGradient>
						<path style="fill:url(#SVGID_00000114770611487749175690000003540472974048158646_);" d="M1267.587,3163.394
							c0,0-11.933,18.811-14.936,71.478c-0.28,4.907,3.607,9.088,8.522,9.088h93.334c3.756,0,6.435-3.682,5.233-7.24
							c-5.469-16.187-22.006-55.654-58.904-78.205L1267.587,3163.394z"/>
						
							<linearGradient id="SVGID_00000003783496937145815460000015098130413902965926_" gradientUnits="userSpaceOnUse" x1="11326.7041" y1="3151.3318" x2="11370.2588" y2="3151.3318" gradientTransform="matrix(1 0 0 1 -10063.1719 0)">
							<stop  offset="0" style="stop-color:#A22B25"/>
							<stop  offset="1" style="stop-color:#C0423C"/>
						</linearGradient>
						<path style="fill:url(#SVGID_00000003783496937145815460000015098130413902965926_);" d="M1263.532,3127.707l5.278,44.264
							c0.456,3.819,3.449,6.875,7.269,7.316c5.104,0.588,12.525,1.003,19.735-0.187c6.554-1.081,11.272-6.919,11.272-13.563v-42.737
							L1263.532,3127.707z"/>
						
							<linearGradient id="SVGID_00000054237617231368050800000018274777027325233792_" gradientUnits="userSpaceOnUse" x1="11544.1953" y1="3199.5195" x2="11712.7021" y2="3199.5195" gradientTransform="matrix(1 0 0 1 -10063.1719 0)">
							<stop  offset="0" style="stop-color:#09005D"/>
							<stop  offset="1" style="stop-color:#1A0F91"/>
						</linearGradient>
						<path style="fill:url(#SVGID_00000054237617231368050800000018274777027325233792_);" d="M1498.512,3158.514
							c0,0-17.865,27.767-17.483,65.882c0.091,8.978,7.607,16.129,16.585,16.129h144.958c6.788,0,9.543-8.722,3.989-12.623
							c-27.43-19.262-81.343-55.245-120.338-69.388H1498.512z"/>
						
							<linearGradient id="SVGID_00000085965237352752928840000007636600380318490000_" gradientUnits="userSpaceOnUse" x1="11546.7559" y1="3131.9912" x2="11590.0713" y2="3131.9912" gradientTransform="matrix(1 0 0 1 -10063.1719 0)">
							<stop  offset="0" style="stop-color:#A22B25"/>
							<stop  offset="1" style="stop-color:#C0423C"/>
						</linearGradient>
						<path style="fill:url(#SVGID_00000085965237352752928840000007636600380318490000_);" d="M1483.584,3110.711l11.26,54.668
							c1.259,6.114,7.241,10.226,13.334,8.866c3.705-0.826,8.074-2.41,12.744-5.33c4.438-2.775,6.686-8.054,5.78-13.208
							l-11.647-66.229L1483.584,3110.711z"/>
						
							<linearGradient id="SVGID_00000013193310030063141870000014112817179738832540_" gradientUnits="userSpaceOnUse" x1="3137.4031" y1="2132.2019" x2="2661.4529" y2="2299.7898">
							<stop  offset="0" style="stop-color:#09005D"/>
							<stop  offset="1" style="stop-color:#1A0F91"/>
						</linearGradient>
						<path style="fill:url(#SVGID_00000013193310030063141870000014112817179738832540_);" d="M1284.214,2350.637
							c0,0-39.151,34.517-46.519,76.045c-7.368,41.527,20.875,716.49,20.875,716.49s39.149,6.513,59.331-5.716
							c0,0,23.936-438.045,42.131-539.267c0,0,95.417,453.758,121.854,535.746c0,0,37.717,4.588,49.88-2.589
							c0,0-24.993-588.196-56.4-692.769L1284.214,2350.637z"/>
						
							<linearGradient id="SVGID_00000047037299079814442700000017141105728269735823_" gradientUnits="userSpaceOnUse" x1="1302.4105" y1="2536.2769" x2="1362.8262" y2="2536.2769">
							<stop  offset="0" style="stop-color:#4F52FF"/>
							<stop  offset="1" style="stop-color:#4042E2"/>
						</linearGradient>
						<path style="fill:url(#SVGID_00000047037299079814442700000017141105728269735823_);" d="M1358.898,2583.626
							c0.328,0,0.656-0.039,0.993-0.125c2.102-0.55,3.355-2.695,2.806-4.796l-16.63-63.789c-0.251-0.954-0.848-1.779-1.677-2.314
							l-35.932-23.051c-1.803-1.167-4.242-0.651-5.428,1.186c-1.167,1.827-0.636,4.256,1.186,5.428l34.64,22.222l16.245,62.304
							C1355.553,2582.455,1357.153,2583.626,1358.898,2583.626z"/>
						
							<linearGradient id="SVGID_00000064340759959937775640000004322096844856691133_" gradientUnits="userSpaceOnUse" x1="2191.2554" y1="622.2978" x2="2070.5791" y2="923.9885">
							<stop  offset="0" style="stop-color:#4F52FF"/>
							<stop  offset="1" style="stop-color:#4042E2"/>
						</linearGradient>
						<path style="fill:url(#SVGID_00000064340759959937775640000004322096844856691133_);" d="M1670.568,1960.631
							c-164.813-13.682-207.889,20.424-207.889,20.424l79.203,125.039c0,0,161.945-3.199,277.984-92.637
							c-21.716-23.388-36.799-49.235-46.473-69.361C1743.471,1956.531,1709.012,1963.822,1670.568,1960.631z"/>
						
							<linearGradient id="SVGID_00000153676027034466379600000002895088248457895297_" gradientUnits="userSpaceOnUse" x1="11836.5654" y1="1863.6604" x2="11997.5469" y2="1863.6604" gradientTransform="matrix(1 0 0 1 -10063.1719 0)">
							<stop  offset="0" style="stop-color:#A22B25"/>
							<stop  offset="1" style="stop-color:#C0423C"/>
						</linearGradient>
						<path style="fill:url(#SVGID_00000153676027034466379600000002895088248457895297_);" d="M1928.662,1718.709
							c-0.222-5.281-7.379-6.718-9.623-1.932l-21.031,44.876c-4.063,8.672-5.365,18.38-3.731,27.816l7.377,26.12
							c2.207,12.739-1.121,25.789-9.196,35.885c-19.323,24.157-60.478,68.278-119.065,92.623
							c9.673,20.126,24.756,45.973,46.473,69.361c42.578-32.815,78.984-77.227,98.93-137.372
							c9.557-2.935,15.942-11.933,15.563-21.923L1928.662,1718.709z"/>
						
							<linearGradient id="SVGID_00000127745572001513660730000001536043465275596708_" gradientUnits="userSpaceOnUse" x1="1610.2562" y1="2191.9143" x2="1338.7345" y2="3056.7595">
							<stop  offset="0" style="stop-color:#4F52FF"/>
							<stop  offset="1" style="stop-color:#4042E2"/>
						</linearGradient>
						<path style="fill:url(#SVGID_00000127745572001513660730000001536043465275596708_);" d="M1724.818,2033.124
							c-58.02-62.519-168.536-90.765-232.521-102.368c-28.032-5.083-55.664,10.515-65.597,37.217
							c-28.794,77.404-107.107,278.782-122.286,313.393c-12.453,28.394-25.457,56.126-33.719,73.464
							c-4.936,10.358-0.623,22.752,9.713,27.734c53.834,25.948,150.702,55.306,189.972,66.759c8.638,2.52,17.24-3.966,17.24-12.964
							c0-7.631,2.074-15.12,6.001-21.663l148.729-247.847c92.702,102.787,173.884,112.185,236.248,89.688
							c-10.486-32.408-17.348-64.876-20.639-97.406C1765.828,2143.349,1724.818,2033.124,1724.818,2033.124z"/>
						
							<linearGradient id="SVGID_00000087390881379826564560000001461247508366955187_" gradientUnits="userSpaceOnUse" x1="12240.1836" y1="1855.5437" x2="11846.4902" y2="2345.3352" gradientTransform="matrix(1 0 0 1 -10063.1719 0)">
							<stop  offset="0" style="stop-color:#A22B25"/>
							<stop  offset="1" style="stop-color:#C0423C"/>
						</linearGradient>
						<path style="fill:url(#SVGID_00000087390881379826564560000001461247508366955187_);" d="M2036.179,2123.701l-30.119-17.607
							c-53.828,36.968-111.267,59.348-148.1,53.037c3.292,32.53,10.153,64.998,20.639,97.406
							C1960.758,2226.899,2036.179,2123.701,2036.179,2123.701z"/>
						
							<linearGradient id="SVGID_00000003803231848366843430000001705379875457020044_" gradientUnits="userSpaceOnUse" x1="12229.5313" y1="2012.1089" x2="12004.7852" y2="2291.7139" gradientTransform="matrix(1 0 0 1 -10063.1719 0)">
							<stop  offset="0" style="stop-color:#A22B25"/>
							<stop  offset="1" style="stop-color:#C0423C"/>
						</linearGradient>
						<path style="fill:url(#SVGID_00000003803231848366843430000001705379875457020044_);" d="M2179.222,2130.038
							c-18.731-10.193-74.31-18.961-74.31-18.961s-63.885-37.376-82.276-44.733c-15.274-6.111-21.848,16.735-23.638,24.652
							c-0.366,1.615-0.532,2.609-0.532,2.609l2.363,15.193l64.539,28.683c13.815,6.14,29.057,8.351,44.049,6.389l68.909-9.015
							c1.106-0.146,1.993-0.986,2.198-2.083C2180.729,2131.674,2180.203,2130.571,2179.222,2130.038z"/>
						
							<linearGradient id="SVGID_00000074439879270530134250000018245530104262419112_" gradientUnits="userSpaceOnUse" x1="11809.7627" y1="1637.2296" x2="11472.8809" y2="2256.2173" gradientTransform="matrix(1 0 0 1 -10063.1719 0)">
							<stop  offset="0" style="stop-color:#A22B25"/>
							<stop  offset="1" style="stop-color:#C0423C"/>
						</linearGradient>
						<path style="fill:url(#SVGID_00000074439879270530134250000018245530104262419112_);" d="M1580.307,1815.936l-49.423,120.604
							c0,0,56.788,39.307,102.475,35.565l24.666-108.445L1580.307,1815.936z"/>
						<g>
							
								<linearGradient id="SVGID_00000180341919977463818780000016789246274256065172_" gradientUnits="userSpaceOnUse" x1="9380.5293" y1="10513.4844" x2="9231.6465" y2="10710.4443" gradientTransform="matrix(0.817 -0.5767 0.5767 0.817 -12086.5996 -1428.4956)">
								<stop  offset="0" style="stop-color:#A22B25"/>
								<stop  offset="1" style="stop-color:#C0423C"/>
							</linearGradient>
							<path style="fill:url(#SVGID_00000180341919977463818780000016789246274256065172_);" d="M1663.794,1733.718
								c1.132,1.603,35.754,126.682,35.754,126.682l-71.838,18.251l-50.428-113.673
								C1577.283,1764.978,1644.844,1706.87,1663.794,1733.718z"/>
							
								<linearGradient id="SVGID_00000059275036087943391170000008984216690815543486_" gradientUnits="userSpaceOnUse" x1="9266.8262" y1="10560.9961" x2="9444.6689" y2="10560.9961" gradientTransform="matrix(0.817 -0.5767 0.5767 0.817 -12086.5996 -1428.4956)">
								<stop  offset="0" style="stop-color:#09005D"/>
								<stop  offset="1" style="stop-color:#1A0F91"/>
							</linearGradient>
							<path style="fill:url(#SVGID_00000059275036087943391170000008984216690815543486_);" d="M1604.334,1782.248l21.86,61.919
								c0.281,0.794,0.656,1.528,1.14,2.217c2.967,4.215,14.237,17.967,27.604,5.58c12.13-11.241,23.366-21.319,33.744-23.149
								c4.66-0.821,9.173,2.022,10.434,6.583c3.142,11.365,9.751,37.106,12.081,60.346c0.473,4.716-2.784,8.979-7.44,9.863
								c-14.031,2.665-43.78,7.456-68.616,5.705c-3.365-0.237-6.327-2.256-7.731-5.324c-6.844-14.956-27.815-60.334-35.614-72.075
								c-7.321-11.02-25.267-10.711-32.793-10.043c-2.468,0.218-4.894-0.576-6.757-2.209c-6.584-5.772-19.116-20.507-1.488-38.147
								c3.689-3.692,3.59-9.647-0.212-13.223c-7.57-7.118-15.667-19.741-3.054-35.397c12.819-15.914,29.742-13.381,40.11-9.598
								c4.192,1.53,8.765-0.242,11.044-4.079c1.297-2.184,3.56-3.837,7.485-3.5c5.288,0.455,9.733-3.958,9.639-9.264
								c-0.184-10.195,3.466-23.075,21.151-28.579c31.382-9.767,50.952,20.55,52.89,43.173
								c1.938,22.622-32.688,31.277-53.048,29.752c-15.481-1.16-26.974,14.184-31.595,21.606
								C1603.705,1776.755,1603.412,1779.637,1604.334,1782.248z"/>
							
								<linearGradient id="SVGID_00000042730625797051227440000008082158572752680869_" gradientUnits="userSpaceOnUse" x1="9162.4736" y1="10669.4619" x2="9281.8906" y2="10546.9434" gradientTransform="matrix(0.817 -0.5767 0.5767 0.817 -12086.5996 -1428.4956)">
								<stop  offset="0" style="stop-color:#A22B25"/>
								<stop  offset="1" style="stop-color:#C0423C"/>
							</linearGradient>
							<path style="fill:url(#SVGID_00000042730625797051227440000008082158572752680869_);" d="M1599.98,1856.378
								c0,0-5.069-39.274-21.407-41.198c-16.338-1.924-32.24,11.503-15.996,33.547
								C1582.781,1876.147,1599.98,1856.378,1599.98,1856.378z"/>
						</g>
					</g>
				</g>
				<g>
					
						<linearGradient id="SVGID_00000140001841051425685540000000539618551327909554_" gradientUnits="userSpaceOnUse" x1="1695.5717" y1="2418.5776" x2="2263.6294" y2="1759.2256" gradientTransform="matrix(0.9995 -0.0307 0.0307 0.9995 -35.935 79.7163)">
						<stop  offset="0" style="stop-color:#FE7062"/>
						<stop  offset="1" style="stop-color:#FF928E"/>
					</linearGradient>
					
						<circle style="fill:url(#SVGID_00000140001841051425685540000000539618551327909554_);" cx="2291.631" cy="1754.905" r="423.496"/>
					
						<linearGradient id="SVGID_00000085226453575610306470000016289008841590023608_" gradientUnits="userSpaceOnUse" x1="2584.6189" y1="1278.3177" x2="904.8573" y2="3815.9587" gradientTransform="matrix(0.9995 -0.0307 0.0307 0.9995 -35.935 79.7163)">
						<stop  offset="0" style="stop-color:#FE7062"/>
						<stop  offset="1" style="stop-color:#FF928E"/>
					</linearGradient>
					
						<circle style="fill:url(#SVGID_00000085226453575610306470000016289008841590023608_);" cx="2291.63" cy="1754.905" r="409.414"/>
					<path style="opacity:0.7;fill:#FFFFFF;" d="M1949.193,1602.93c-1.156,0.036-2.339-0.19-3.461-0.715
						c-3.826-1.787-5.478-6.336-3.691-10.155c61.974-132.778,191.388-218.051,337.741-222.55
						c23.353-0.718,46.807,0.667,69.712,4.123c4.176,0.626,7.051,4.518,6.421,8.696c-0.63,4.172-4.491,7.069-8.697,6.413
						c-22-3.311-44.531-4.642-66.966-3.953c-140.552,4.321-264.839,86.218-324.361,213.731
						C1954.63,1601.225,1951.987,1602.845,1949.193,1602.93z"/>
					
						<ellipse transform="matrix(0.7071 -0.7071 0.7071 0.7071 -573.1216 2143.457)" style="opacity:0.78;fill:#FFFFFF;" cx="2300.821" cy="1763.547" rx="346.519" ry="346.519"/>
					<g>
						
							<linearGradient id="SVGID_00000098942424848794451600000016399750321701556652_" gradientUnits="userSpaceOnUse" x1="1741.12" y1="900.9829" x2="889.2903" y2="2331.064" gradientTransform="matrix(0.9727 0.232 -0.232 0.9727 1139.366 168.2912)">
							<stop  offset="0" style="stop-color:#FE7062"/>
							<stop  offset="1" style="stop-color:#FF928E"/>
						</linearGradient>
						<path style="fill:url(#SVGID_00000098942424848794451600000016399750321701556652_);" d="M2274.748,2022.077l-1.158-37.682
							c-39.331-0.365-78.469-8.442-106.436-19.673c-9.987-4.011-15.351-14.915-12.838-25.38l8.494-35.393
							c3.115-12.984,16.914-20.075,29.381-15.293c27.729,10.634,61.807,18.674,98.254,17.553
							c37.835-1.163,65.657-14.858,64.849-41.152c-0.729-23.726-22.965-37.162-75.984-49.652
							c-75.66-18.214-130.535-49.264-132.565-115.317c-1.834-59.642,40.376-106.512,115.671-121.021l-1.158-37.685
							c-0.373-12.126,9.155-22.258,21.281-22.63l22.139-0.681c12.127-0.373,22.258,9.154,22.63,21.28l1.04,33.835
							c36.395,0.337,63.044,5.74,84.269,12.473c10.875,3.449,17.11,14.857,14.463,25.955l-7.805,32.731
							c-3.01,12.622-16.177,19.89-28.45,15.676c-19.557-6.717-47.124-13.489-82.653-12.396c-44.891,1.38-57.142,20.37-56.63,37.044
							c0.631,20.521,27.998,33.799,86.905,49.964c84.136,22.447,119.828,56.01,121.74,118.215
							c1.755,57.073-38.99,109.677-120.68,125.028l1.296,42.171c0.373,12.126-9.155,22.258-21.281,22.631l-22.143,0.681
							C2285.253,2043.731,2275.121,2034.203,2274.748,2022.077z"/>
					</g>
				</g>
			</g>
			<g>
				<g>
					
						<linearGradient id="SVGID_00000086693808238561445160000000544758024297984667_" gradientUnits="userSpaceOnUse" x1="-116.5194" y1="480.0687" x2="-199.2601" y2="990.7787" gradientTransform="matrix(1 0 0 1 3763.9983 0)">
						<stop  offset="0" style="stop-color:#4F52FF"/>
						<stop  offset="1" style="stop-color:#4042E2"/>
					</linearGradient>
					<path style="fill:url(#SVGID_00000086693808238561445160000000544758024297984667_);" d="M3163.894,3199.037l4.57,37.562
						c0.867,7.126,6.477,12.761,13.609,13.575c12.042,1.375,31.365,2.786,50.272,0.787c8.299-0.877,13.686-9.281,11.157-17.233
						c-4.608-14.5-13.04-36.268-25.197-49.078h-41.668C3168.933,3184.65,3162.964,3191.389,3163.894,3199.037z"/>
					
						<linearGradient id="SVGID_00000161632058844678904650000001824339083381298088_" gradientUnits="userSpaceOnUse" x1="-939.642" y1="3535.0864" x2="-824.0389" y2="2183.9761" gradientTransform="matrix(1 0 0 1 3763.9983 0)">
						<stop  offset="0" style="stop-color:#FEBBBA"/>
						<stop  offset="1" style="stop-color:#FF928E"/>
					</linearGradient>
					<path style="fill:url(#SVGID_00000161632058844678904650000001824339083381298088_);" d="M2837.533,2759.017l-7.033,41.371
						c0,0,23.552,238.563,27.741,333.988c0.657,14.961-3.213,29.746-11.065,42.497l-40.953,66.504l104.082-61.417l2.072-12.701
						l-17.038-23.426l22.317-267.25c1.312-15.699-1.928-31.444-9.331-45.352l-21.528-40.444L2837.533,2759.017z"/>
					
						<linearGradient id="SVGID_00000107560388134833561310000009601829362484696722_" gradientUnits="userSpaceOnUse" x1="-456.1742" y1="425.0421" x2="-538.9147" y2="935.751" gradientTransform="matrix(1 0 0 1 3763.9983 0)">
						<stop  offset="0" style="stop-color:#4F52FF"/>
						<stop  offset="1" style="stop-color:#4042E2"/>
					</linearGradient>
					<path style="fill:url(#SVGID_00000107560388134833561310000009601829362484696722_);" d="M2799.368,3253.011h33.215
						c6.217,0,12.081-2.854,15.872-7.781c10.354-13.454,31.808-39.704,42.065-40.389c13.81-0.922,12.043,48.17,12.043,48.17h7.741
						l9.805-61.004c2.467-15.348-5.167-30.554-18.949-37.745l0,0c0,0-3.157,23.344-20.273,33.671
						c-17.116,10.326-69.653,47.306-69.653,47.306s-6.434-0.917-13.5,0.36C2787.254,3237.492,2788.718,3253.011,2799.368,3253.011z"
						/>
					
						<linearGradient id="SVGID_00000177484991560939253830000013324809134731603855_" gradientUnits="userSpaceOnUse" x1="-707.0993" y1="3555.1902" x2="-591.4659" y2="2203.7249" gradientTransform="matrix(1 0 0 1 3763.9983 0)">
						<stop  offset="0" style="stop-color:#FEBBBA"/>
						<stop  offset="1" style="stop-color:#FF928E"/>
					</linearGradient>
					<path style="fill:url(#SVGID_00000177484991560939253830000013324809134731603855_);" d="M2980.091,2778.667
						c0,0,137.975,261.725,159.908,321.481c21.933,59.756,29.616,109.606,29.911,114.327c0.459,7.377,9.634,14.451,34.924,14.451
						c13.051,0,19.443-5.232,22.573-10.296c2.67-4.32,2.808-9.726,0.558-14.279c-7.981-16.152-33.31-67.771-42.69-91.182
						c-11.199-27.953-35.29-154.629-48.503-198.674c-13.212-44.043-28.147-91.82-85.683-135.828
						C3051.087,2778.667,3011.59,2739.982,2980.091,2778.667z"/>
					
						<linearGradient id="SVGID_00000116952946326691411450000014189062244094042800_" gradientUnits="userSpaceOnUse" x1="3533.9619" y1="1964.4987" x2="2337.26" y2="3120.9761">
						<stop  offset="0" style="stop-color:#09005D"/>
						<stop  offset="1" style="stop-color:#1A0F91"/>
					</linearGradient>
					<path style="fill:url(#SVGID_00000116952946326691411450000014189062244094042800_);" d="M2971.84,2424.48
						c-14.485-43.635-79.68-91.52-79.68-91.52c-65.698,39.458-128.194,20.244-128.194,20.244s-7.656,58.311,1.311,104.459
						c8.967,46.148,65.222,342.725,65.222,342.725c88.641,17.96,224.968-18.07,224.968-18.07
						C2999.007,2682.076,2986.324,2468.115,2971.84,2424.48z"/>
				</g>
				
					<linearGradient id="SVGID_00000168104394643971886690000007103967718067858571_" gradientUnits="userSpaceOnUse" x1="869.7617" y1="661.8901" x2="658.7385" y2="912.6357" gradientTransform="matrix(0.9602 0.2794 -0.2794 0.9602 2542.7078 797.6744)">
					<stop  offset="0" style="stop-color:#09005D"/>
					<stop  offset="1" style="stop-color:#1A0F91"/>
				</linearGradient>
				<path style="fill:url(#SVGID_00000168104394643971886690000007103967718067858571_);" d="M2773.088,1741.871
					c0,0-20.804-93.318,86.09-68.615c0,0,51.888-8.479,54.527,40.495c0,0,33.446,22.039,8.958,64.422
					c0,0,99.4-38.394,142.709,48.732c43.309,87.126,3.499,135.066-38.234,147.552c0,0,33.812,16.977,17.807,55.31
					c-16.005,38.333-97.055,65.355-144.933,18.738c0,0-136.235,18.003-133.508-78.225c0,0-63.365-40.918,3.189-120.445
					C2836.245,1770.309,2773.088,1741.871,2773.088,1741.871z"/>
				
					<linearGradient id="SVGID_00000114790025255435429150000001604087729108646321_" gradientUnits="userSpaceOnUse" x1="3358.8855" y1="2132.3833" x2="5259.5317" y2="2021.7635">
					<stop  offset="0" style="stop-color:#4F52FF"/>
					<stop  offset="1" style="stop-color:#4042E2"/>
				</linearGradient>
				<path style="fill:url(#SVGID_00000114790025255435429150000001604087729108646321_);" d="M2767.167,1958.191
					c10.634-3.193,31.401-7.744,56.9-4.809c59.759,6.88,99.29,65.557,85.691,124.153c-17.852,76.923-39.325,201.238-9.586,261.736
					c0,0-65.141,71.809-136.207,13.932c0,0-31.885-138.968-73.649-199.974c-28.822-42.101,45.914-158.065,64.881-186.162
					C2758.059,1962.829,2762.269,1959.662,2767.167,1958.191z"/>
				
					<linearGradient id="SVGID_00000084488654996909536370000003168480414877314463_" gradientUnits="userSpaceOnUse" x1="564.1875" y1="1103.9735" x2="581.3801" y2="981.9065" gradientTransform="matrix(0.9602 0.2794 -0.2794 0.9602 2542.7078 797.6744)">
					<stop  offset="0" style="stop-color:#FEBBBA"/>
					<stop  offset="1" style="stop-color:#FF928E"/>
				</linearGradient>
				<path style="fill:url(#SVGID_00000084488654996909536370000003168480414877314463_);" d="M2826.526,1841.306
					c0,0,31.767,89.857,34.157,129.498c0,0-35.111,15.965-68.193-10.981c0,0-3.471-89.752-8.487-105.823L2826.526,1841.306z"/>
				
					<linearGradient id="SVGID_00000006679801733948873110000014389607895476002701_" gradientUnits="userSpaceOnUse" x1="485.3672" y1="842.4188" x2="646.1212" y2="1027.2427" gradientTransform="matrix(0.9602 0.2794 -0.2794 0.9602 2542.7078 797.6744)">
					<stop  offset="0" style="stop-color:#FEBBBA"/>
					<stop  offset="1" style="stop-color:#FF928E"/>
				</linearGradient>
				<path style="fill:url(#SVGID_00000006679801733948873110000014389607895476002701_);" d="M2782.4,1718.789
					c0,0-83.09,116.28-33.421,150.054c49.668,33.775,108.817-48.859,108.817-48.859s19.28-63.645-0.88-85.234
					C2836.757,1713.159,2782.4,1718.789,2782.4,1718.789z"/>
				
					<linearGradient id="SVGID_00000110464851704987296570000002114534797280136875_" gradientUnits="userSpaceOnUse" x1="768.6924" y1="576.8346" x2="557.6647" y2="827.5856" gradientTransform="matrix(0.9602 0.2794 -0.2794 0.9602 2542.7078 797.6744)">
					<stop  offset="0" style="stop-color:#09005D"/>
					<stop  offset="1" style="stop-color:#1A0F91"/>
				</linearGradient>
				<path style="fill:url(#SVGID_00000110464851704987296570000002114534797280136875_);" d="M2820.859,1691.002
					c0,0-38.171,9.045-43.521,26.315c-5.35,17.271,54.13,33.287,70.796,34.07l13.429,69.693c0,0,39.697-65.562,23.972-103.426
					C2869.811,1679.79,2820.859,1691.002,2820.859,1691.002z"/>
				
					<linearGradient id="SVGID_00000008865119014367745280000007840513313033429160_" gradientUnits="userSpaceOnUse" x1="525.5298" y1="807.4824" x2="686.283" y2="992.3054" gradientTransform="matrix(0.9602 0.2794 -0.2794 0.9602 2542.7078 797.6744)">
					<stop  offset="0" style="stop-color:#FEBBBA"/>
					<stop  offset="1" style="stop-color:#FF928E"/>
				</linearGradient>
				<path style="fill:url(#SVGID_00000008865119014367745280000007840513313033429160_);" d="M2841.688,1811.428
					c0,0,32.341-37.455,45.205-13.037c12.864,24.418-29.11,42.75-43.64,30.762L2841.688,1811.428z"/>
				
					<linearGradient id="SVGID_00000074409920921422394620000016195754297069167502_" gradientUnits="userSpaceOnUse" x1="2654.0383" y1="2105.3994" x2="3304.8521" y2="1360.9641" gradientTransform="matrix(-0.3441 -0.9389 -0.9389 0.3441 5462.0752 4095.709)">
					<stop  offset="0" style="stop-color:#FEBBBA"/>
					<stop  offset="1" style="stop-color:#FF928E"/>
				</linearGradient>
				<path style="fill:url(#SVGID_00000074409920921422394620000016195754297069167502_);" d="M2876.824,2098.29
					c0,0-31.101,104.523-121.971,179.747c-90.87,75.224-221.745-63.906-221.745-63.906s5.621-39.876-41.455-65.555
					c-25.889-14.121,72.669-10.948,87.54,18.19c14.87,29.138-15.066,27.531,24.782,59.046
					c38.889,30.757,126.108,25.815,158.368-121.103c1.81-8.242,12.644-53.555,18.189-59.916
					C2820.248,1999.234,2879.206,2051.362,2876.824,2098.29z"/>
			</g>
		</g>
		<g>
			<path style="fill:#FFFFFF;" d="M3063.258,1370.213c-18.427,60.446-53.701,82.964-82.621,74.148
				c-29.57-9.013-44.201-47.229-27.717-102.474c16.541-54.271,50.504-82.973,83-73.069
				C3069.389,1279.021,3078.992,1318.593,3063.258,1370.213z M2944.572,1565.004l212.88-259.138l22.748,6.932l-212.883,259.138
				L2944.572,1565.004z M2984.001,1349.43c-10.41,32.993-9.031,59.933,6.889,64.784c15.926,4.855,30.713-15.711,41.335-50.564
				c9.685-31.768,10.987-59.337-6.236-64.586C3009.744,1294.111,2993.818,1317.222,2984.001,1349.43z M3172.521,1533.714
				c-18.288,60-53.375,83.059-82.621,74.145c-29.243-8.914-44.198-47.228-27.254-102.818c16.407-53.825,50.503-82.969,82.672-73.164
				C3178.791,1442.079,3188.258,1482.094,3172.521,1533.714z M3093.27,1512.928c-10.276,32.549-9.037,59.932,6.886,64.783
				c16.246,4.953,30.716-15.71,41.339-50.563c9.817-32.208,10.983-59.337-6.236-64.586
				C3119.01,1457.608,3103.087,1480.723,3093.27,1512.928z"/>
			<g>
				<path style="fill:#FFFFFF;" d="M2896.314,1412.817v32.757h30.602v18.361h-30.602v32.919h-20.844v-32.919h-30.438v-18.361h30.438
					v-32.757H2896.314z"/>
			</g>
		</g>
	</g>
</g>
</svg>
