<svg width="34" height="34" viewBox="0 0 34 34" fill="none" xmlns="http://www.w3.org/2000/svg">
<path id="Vector" d="M12.0494 21.813V22.775C12.0494 24.7442 12.8317 26.6328 14.224 28.0253C15.6164 29.4177 17.5049 30.2 19.474 30.2C21.4432 30.2 23.3317 29.4177 24.724 28.0253C26.1164 26.6328 26.8987 24.7442 26.8987 22.775V20.0195C25.7974 19.6303 24.8691 18.8642 24.278 17.8567C23.6869 16.8492 23.471 15.6651 23.6684 14.5138C23.8659 13.3625 24.464 12.3181 25.357 11.5651C26.2501 10.8122 27.3805 10.3992 28.5486 10.3992C29.7167 10.3992 30.8471 10.8122 31.7401 11.5651C32.6332 12.3181 33.2313 13.3625 33.4287 14.5138C33.6262 15.6651 33.4103 16.8492 32.8192 17.8567C32.2281 18.8642 31.2998 19.6303 30.1985 20.0195V22.775C30.1985 25.6194 29.0686 28.3474 27.0574 30.3587C25.0462 32.37 22.3183 33.5 19.474 33.5C16.6297 33.5 13.9019 32.37 11.8907 30.3587C9.87948 28.3474 8.74958 25.6194 8.74958 22.775V21.813C6.44288 21.4225 4.34895 20.2278 2.83892 18.4407C1.32889 16.6536 0.5003 14.3897 0.5 12.05L0.5 3.8C0.5 2.92479 0.84766 2.08542 1.4665 1.46655C2.08534 0.847678 2.92466 0.5 3.79983 0.5L5.44975 0.5C5.88734 0.5 6.307 0.673839 6.61642 0.983274C6.92584 1.29271 7.09967 1.71239 7.09967 2.15C7.09967 2.58761 6.92584 3.00729 6.61642 3.31673C6.307 3.62616 5.88734 3.8 5.44975 3.8H3.79983V12.05C3.79983 13.8004 4.49515 15.4792 5.73283 16.7169C6.97051 17.9546 8.64916 18.65 10.3995 18.65C12.1498 18.65 13.8285 17.9546 15.0662 16.7169C16.3038 15.4792 16.9992 13.8004 16.9992 12.05V3.8H15.3493C14.9117 3.8 14.492 3.62616 14.1826 3.31673C13.8732 3.00729 13.6993 2.58761 13.6993 2.15C13.6993 1.71239 13.8732 1.29271 14.1826 0.983274C14.492 0.673839 14.9117 0.5 15.3493 0.5L16.9992 0.5C17.8743 0.5 18.7137 0.847678 19.3325 1.46655C19.9513 2.08542 20.299 2.92479 20.299 3.8V12.05C20.2987 14.3897 19.4701 16.6536 17.9601 18.4407C16.4501 20.2278 14.3561 21.4225 12.0494 21.813ZM28.5486 17C28.9862 17 29.4058 16.8262 29.7153 16.5167C30.0247 16.2073 30.1985 15.7876 30.1985 15.35C30.1985 14.9124 30.0247 14.4927 29.7153 14.1833C29.4058 13.8738 28.9862 13.7 28.5486 13.7C28.111 13.7 27.6913 13.8738 27.3819 14.1833C27.0725 14.4927 26.8987 14.9124 26.8987 15.35C26.8987 15.7876 27.0725 16.2073 27.3819 16.5167C27.6913 16.8262 28.111 17 28.5486 17Z" fill="#182D43"/>
</svg>
