<svg width="32" height="28" viewBox="0 0 32 28" fill="none" xmlns="http://www.w3.org/2000/svg">
<path fill-rule="evenodd" clip-rule="evenodd" d="M30.2 0.149989C30.423 0.0387517 30.6798 0.00845397 30.9239 0.0645877C31.1481 0.117885 31.3473 0.242366 31.4897 0.418107C31.632 0.593849 31.7093 0.810689 31.7091 1.03392V24.7219C31.7091 25.5816 31.3559 26.4061 30.7273 27.014C30.0987 27.6219 29.2461 27.9634 28.357 27.9634H27.5835C25.5897 27.9634 23.4579 26.4006 23.4579 24.4725V17.9926C23.4579 17.4636 23.2406 16.9562 22.8537 16.5821C22.4669 16.208 21.9422 15.9979 21.3951 15.9979H9.0215L9.01827 15.9947V1.05138C9.0151 0.808861 9.10202 0.573294 9.26323 0.387492C9.4128 0.217368 9.61707 0.100699 9.84334 0.0561683C10.0696 0.0116376 10.3048 0.041821 10.5112 0.141885L12.1125 0.915484L13.7157 0.141885C13.8591 0.0726804 14.0172 0.036657 14.1775 0.036657C14.3378 0.036657 14.496 0.0726804 14.6394 0.141885L16.2381 0.916731L17.8625 0.140638C18.0064 0.0715754 18.1649 0.0359498 18.3255 0.0365992C18.4861 0.0372485 18.6443 0.0741549 18.7876 0.144379L20.3637 0.913614L21.952 0.142509C22.0957 0.0727645 22.2542 0.0364438 22.4149 0.0364438C22.5756 0.0364438 22.7341 0.0727645 22.8777 0.142509L24.4751 0.916108L26.0938 0.142509C26.237 0.0732707 26.3949 0.0372246 26.555 0.0372246C26.7151 0.0372246 26.873 0.0732707 27.0162 0.142509L28.6149 0.915484L30.2 0.149989ZM18.3331 13.0026H26.5521C26.6914 13.0026 26.8293 12.9752 26.9574 12.9222C27.0855 12.8693 27.2012 12.7917 27.2975 12.6943C27.3937 12.5969 27.4686 12.4817 27.5175 12.3555C27.5665 12.2293 27.5885 12.0949 27.5822 11.9603C27.5577 11.4217 27.0768 11.0078 26.5199 11.0078H18.3009C18.1615 11.0078 18.0237 11.0352 17.8956 11.0882C17.7675 11.1411 17.6518 11.2187 17.5555 11.3161C17.4592 11.4135 17.3844 11.5287 17.3354 11.6549C17.2865 11.781 17.2645 11.9155 17.2708 12.0501C17.2953 12.5887 17.7762 13.0026 18.3331 13.0026ZM14.2075 8.01564H26.5521C26.6914 8.01561 26.8293 7.98828 26.9574 7.9353C27.0855 7.88232 27.2012 7.80478 27.2975 7.70738C27.3937 7.60997 27.4686 7.49471 27.5175 7.36856C27.5665 7.24241 27.5885 7.10797 27.5822 6.97337C27.5577 6.43478 27.0768 6.02086 26.5199 6.02086H14.1753C14.0359 6.0209 13.8981 6.04823 13.77 6.10121C13.6418 6.15419 13.5262 6.23172 13.4299 6.32913C13.3336 6.42653 13.2588 6.54179 13.2098 6.66795C13.1609 6.7941 13.1389 6.92853 13.1452 7.06314C13.1697 7.60173 13.6506 8.01564 14.2075 8.01564ZM22.1038 18.5379V24.2979C22.1038 25.9351 22.9854 26.769 23.6278 27.3767C23.6789 27.425 23.7284 27.4719 23.7759 27.5176C23.8137 27.5544 23.8393 27.6011 23.8496 27.6518C23.8598 27.7025 23.8542 27.755 23.8334 27.8026C23.8126 27.8503 23.7776 27.891 23.7328 27.9196C23.688 27.9482 23.6354 27.9634 23.5816 27.9634H6.83477C4.09861 27.9634 2.28064 27.0987 1.27657 25.3203C0.684889 24.2731 0.290894 22.8972 0.290894 19.5885C0.291792 19.0329 0.521786 18.5003 0.930566 18.1072C1.33935 17.7141 1.89364 17.4924 2.47219 17.4907H21.0132C21.3024 17.4907 21.5798 17.601 21.7844 17.7974C21.9889 17.9938 22.1038 18.2602 22.1038 18.5379Z" fill="#182D43"/>
</svg>
