<svg width="34" height="34" viewBox="0 0 34 34" fill="none" xmlns="http://www.w3.org/2000/svg">
<path id="Vector" d="M32.8938 26.3497L25.3637 19.5032C25.0077 19.1797 24.54 19.0072 24.0592 19.022C23.5784 19.0369 23.1223 19.238 22.787 19.5829L18.3541 24.1417C17.2871 23.9379 15.142 23.2692 12.934 21.0667C10.7259 18.8568 10.0572 16.7061 9.85894 15.6465L14.414 11.2119C14.7594 10.8768 14.9608 10.4206 14.9756 9.93966C14.9905 9.45875 14.8177 8.99092 14.4937 8.63519L7.64901 1.10702C7.32491 0.750165 6.87447 0.533707 6.39335 0.503616C5.91223 0.473524 5.43833 0.63217 5.07229 0.945859L1.05254 4.39318C0.732281 4.7146 0.541127 5.14239 0.515342 5.59539C0.487555 6.05849 -0.0422362 17.0284 8.46407 25.5384C15.8849 32.9572 25.1803 33.5 27.7403 33.5C28.1145 33.5 28.3442 33.4889 28.4054 33.4852C28.8583 33.4598 29.2859 33.2678 29.6057 32.9461L33.0512 28.9246C33.3662 28.5597 33.526 28.0862 33.4966 27.6051C33.4671 27.124 33.2508 26.6735 32.8938 26.3497Z" fill="#182D43"/>
</svg>
