<svg width="56" height="56" viewBox="0 0 56 56" fill="none" xmlns="http://www.w3.org/2000/svg">
<g id="icon_privatecar">
<path id="Vector" d="M47.9911 21.3333H42.9629L41.5654 17.8667C40.1293 14.3025 36.7019 12 32.8327 12H22.1667C18.2984 12 14.8701 14.3025 13.4332 17.8667L12.0357 21.3333H7.00835C6.35243 21.3333 5.8712 21.945 6.03077 22.5758L6.53468 24.5758C6.64638 25.0208 7.0495 25.3333 7.51226 25.3333H9.19782C8.06991 26.3108 7.34345 27.7317 7.34345 29.3333V33.3333C7.34345 34.6767 7.86079 35.8892 8.6872 36.8275V41.3333C8.6872 42.8058 9.8907 44 11.3747 44H14.0622C15.5462 44 16.7497 42.8058 16.7497 41.3333V38.6667H38.2497V41.3333C38.2497 42.8058 39.4532 44 40.9372 44H43.6247C45.1088 44 46.3123 42.8058 46.3123 41.3333V36.8275C47.1387 35.89 47.656 34.6775 47.656 33.3333V29.3333C47.656 27.7317 46.9295 26.3108 45.8025 25.3333H47.488C47.9508 25.3333 48.3539 25.0208 48.4656 24.5758L48.9695 22.5758C49.1283 21.945 48.647 21.3333 47.9911 21.3333ZM18.4235 19.8475C19.0358 18.3292 20.5181 17.3333 22.1667 17.3333H32.8327C34.4814 17.3333 35.9637 18.3292 36.5759 19.8475L38.2497 24H16.7497L18.4235 19.8475ZM14.0622 33.3167C12.4497 33.3167 11.3747 32.2533 11.3747 30.6583C11.3747 29.0633 12.4497 28 14.0622 28C15.6747 28 18.0935 30.3925 18.0935 31.9875C18.0935 33.5825 15.6747 33.3167 14.0622 33.3167ZM40.9372 33.3167C39.3247 33.3167 36.906 33.5825 36.906 31.9875C36.906 30.3925 39.3247 28 40.9372 28C42.5497 28 43.6247 29.0633 43.6247 30.6583C43.6247 32.2533 42.5497 33.3167 40.9372 33.3167Z" fill="white"/>
</g>
</svg>
