<svg width="38" height="28" viewBox="0 0 38 28" fill="none" xmlns="http://www.w3.org/2000/svg">
<path id="Vector" d="M37.1084 8.16667H32.6649L31.4299 5.13333C30.1608 2.01469 27.1319 0 23.7127 0H14.2869C10.8683 0 7.83872 2.01469 6.56884 5.13333L5.33384 8.16667H0.891098C0.311449 8.16667 -0.113825 8.70188 0.0271911 9.25385L0.472504 11.0039C0.571215 11.3932 0.927466 11.6667 1.33641 11.6667H2.82598C1.82922 12.522 1.18723 13.7652 1.18723 15.1667V18.6667C1.18723 19.8421 1.64442 20.903 2.37473 21.7241V25.6667C2.37473 26.9551 3.43829 28 4.74974 28H7.12474C8.43619 28 9.49974 26.9551 9.49974 25.6667V23.3333H28.4998V25.6667C28.4998 26.9551 29.5633 28 30.8748 28H33.2498C34.5612 28 35.6248 26.9551 35.6248 25.6667V21.7241C36.3551 20.9037 36.8123 19.8428 36.8123 18.6667V15.1667C36.8123 13.7652 36.1703 12.522 35.1743 11.6667H36.6638C37.0728 11.6667 37.429 11.3932 37.5277 11.0039L37.9731 9.25385C38.1133 8.70188 37.6881 8.16667 37.1084 8.16667ZM10.9789 6.86656C11.52 5.53802 12.8299 4.66667 14.2869 4.66667H23.7127C25.1696 4.66667 26.4795 5.53802 27.0206 6.86656L28.4998 10.5H9.49974L10.9789 6.86656ZM7.12474 18.6521C5.69974 18.6521 4.74974 17.7217 4.74974 16.326C4.74974 14.9304 5.69974 14 7.12474 14C8.54974 14 10.6872 16.0934 10.6872 17.4891C10.6872 18.8847 8.54974 18.6521 7.12474 18.6521ZM30.8748 18.6521C29.4498 18.6521 27.3123 18.8847 27.3123 17.4891C27.3123 16.0934 29.4498 14 30.8748 14C32.2998 14 33.2498 14.9304 33.2498 16.326C33.2498 17.7217 32.2998 18.6521 30.8748 18.6521Z" fill="#182D43"/>
</svg>
